G75*
%MOIN*%
%OFA0B0*%
%FSLAX25Y25*%
%IPPOS*%
%LPD*%
%AMOC8*
5,1,8,0,0,1.08239X$1,22.5*
%
%ADD10C,0.00000*%
%ADD11C,0.01075*%
%ADD12C,0.08200*%
%ADD13C,0.10800*%
%ADD14C,0.15800*%
%ADD15C,0.07800*%
%ADD16R,0.02178X0.02769*%
%ADD17R,0.03950X0.07493*%
%ADD18R,0.03162X0.01587*%
%ADD19R,0.01587X0.03162*%
%ADD20C,0.03431*%
%ADD21C,0.04762*%
D10*
X0005000Y0004300D02*
X0005000Y0204261D01*
X0094951Y0204261D01*
X0094951Y0004300D01*
X0005000Y0004300D01*
X0005000Y0014300D02*
X0005000Y0194300D01*
X0005003Y0194542D01*
X0005012Y0194783D01*
X0005026Y0195024D01*
X0005047Y0195265D01*
X0005073Y0195505D01*
X0005105Y0195745D01*
X0005143Y0195984D01*
X0005186Y0196221D01*
X0005236Y0196458D01*
X0005291Y0196693D01*
X0005351Y0196927D01*
X0005418Y0197159D01*
X0005489Y0197390D01*
X0005567Y0197619D01*
X0005650Y0197846D01*
X0005738Y0198071D01*
X0005832Y0198294D01*
X0005931Y0198514D01*
X0006036Y0198732D01*
X0006145Y0198947D01*
X0006260Y0199160D01*
X0006380Y0199370D01*
X0006505Y0199576D01*
X0006635Y0199780D01*
X0006770Y0199981D01*
X0006910Y0200178D01*
X0007054Y0200372D01*
X0007203Y0200562D01*
X0007357Y0200748D01*
X0007515Y0200931D01*
X0007677Y0201110D01*
X0007844Y0201285D01*
X0008015Y0201456D01*
X0008190Y0201623D01*
X0008369Y0201785D01*
X0008552Y0201943D01*
X0008738Y0202097D01*
X0008928Y0202246D01*
X0009122Y0202390D01*
X0009319Y0202530D01*
X0009520Y0202665D01*
X0009724Y0202795D01*
X0009930Y0202920D01*
X0010140Y0203040D01*
X0010353Y0203155D01*
X0010568Y0203264D01*
X0010786Y0203369D01*
X0011006Y0203468D01*
X0011229Y0203562D01*
X0011454Y0203650D01*
X0011681Y0203733D01*
X0011910Y0203811D01*
X0012141Y0203882D01*
X0012373Y0203949D01*
X0012607Y0204009D01*
X0012842Y0204064D01*
X0013079Y0204114D01*
X0013316Y0204157D01*
X0013555Y0204195D01*
X0013795Y0204227D01*
X0014035Y0204253D01*
X0014276Y0204274D01*
X0014517Y0204288D01*
X0014758Y0204297D01*
X0015000Y0204300D01*
X0085000Y0204300D01*
X0085242Y0204297D01*
X0085483Y0204288D01*
X0085724Y0204274D01*
X0085965Y0204253D01*
X0086205Y0204227D01*
X0086445Y0204195D01*
X0086684Y0204157D01*
X0086921Y0204114D01*
X0087158Y0204064D01*
X0087393Y0204009D01*
X0087627Y0203949D01*
X0087859Y0203882D01*
X0088090Y0203811D01*
X0088319Y0203733D01*
X0088546Y0203650D01*
X0088771Y0203562D01*
X0088994Y0203468D01*
X0089214Y0203369D01*
X0089432Y0203264D01*
X0089647Y0203155D01*
X0089860Y0203040D01*
X0090070Y0202920D01*
X0090276Y0202795D01*
X0090480Y0202665D01*
X0090681Y0202530D01*
X0090878Y0202390D01*
X0091072Y0202246D01*
X0091262Y0202097D01*
X0091448Y0201943D01*
X0091631Y0201785D01*
X0091810Y0201623D01*
X0091985Y0201456D01*
X0092156Y0201285D01*
X0092323Y0201110D01*
X0092485Y0200931D01*
X0092643Y0200748D01*
X0092797Y0200562D01*
X0092946Y0200372D01*
X0093090Y0200178D01*
X0093230Y0199981D01*
X0093365Y0199780D01*
X0093495Y0199576D01*
X0093620Y0199370D01*
X0093740Y0199160D01*
X0093855Y0198947D01*
X0093964Y0198732D01*
X0094069Y0198514D01*
X0094168Y0198294D01*
X0094262Y0198071D01*
X0094350Y0197846D01*
X0094433Y0197619D01*
X0094511Y0197390D01*
X0094582Y0197159D01*
X0094649Y0196927D01*
X0094709Y0196693D01*
X0094764Y0196458D01*
X0094814Y0196221D01*
X0094857Y0195984D01*
X0094895Y0195745D01*
X0094927Y0195505D01*
X0094953Y0195265D01*
X0094974Y0195024D01*
X0094988Y0194783D01*
X0094997Y0194542D01*
X0095000Y0194300D01*
X0095000Y0014300D01*
X0080000Y0014300D02*
X0080002Y0014441D01*
X0080008Y0014582D01*
X0080018Y0014722D01*
X0080032Y0014862D01*
X0080050Y0015002D01*
X0080071Y0015141D01*
X0080097Y0015280D01*
X0080126Y0015418D01*
X0080160Y0015554D01*
X0080197Y0015690D01*
X0080238Y0015825D01*
X0080283Y0015959D01*
X0080332Y0016091D01*
X0080384Y0016222D01*
X0080440Y0016351D01*
X0080500Y0016478D01*
X0080563Y0016604D01*
X0080629Y0016728D01*
X0080700Y0016851D01*
X0080773Y0016971D01*
X0080850Y0017089D01*
X0080930Y0017205D01*
X0081014Y0017318D01*
X0081100Y0017429D01*
X0081190Y0017538D01*
X0081283Y0017644D01*
X0081378Y0017747D01*
X0081477Y0017848D01*
X0081578Y0017946D01*
X0081682Y0018041D01*
X0081789Y0018133D01*
X0081898Y0018222D01*
X0082010Y0018307D01*
X0082124Y0018390D01*
X0082240Y0018470D01*
X0082359Y0018546D01*
X0082480Y0018618D01*
X0082602Y0018688D01*
X0082727Y0018753D01*
X0082853Y0018816D01*
X0082981Y0018874D01*
X0083111Y0018929D01*
X0083242Y0018981D01*
X0083375Y0019028D01*
X0083509Y0019072D01*
X0083644Y0019113D01*
X0083780Y0019149D01*
X0083917Y0019181D01*
X0084055Y0019210D01*
X0084193Y0019235D01*
X0084333Y0019255D01*
X0084473Y0019272D01*
X0084613Y0019285D01*
X0084754Y0019294D01*
X0084894Y0019299D01*
X0085035Y0019300D01*
X0085176Y0019297D01*
X0085317Y0019290D01*
X0085457Y0019279D01*
X0085597Y0019264D01*
X0085737Y0019245D01*
X0085876Y0019223D01*
X0086014Y0019196D01*
X0086152Y0019166D01*
X0086288Y0019131D01*
X0086424Y0019093D01*
X0086558Y0019051D01*
X0086692Y0019005D01*
X0086824Y0018956D01*
X0086954Y0018902D01*
X0087083Y0018845D01*
X0087210Y0018785D01*
X0087336Y0018721D01*
X0087459Y0018653D01*
X0087581Y0018582D01*
X0087701Y0018508D01*
X0087818Y0018430D01*
X0087933Y0018349D01*
X0088046Y0018265D01*
X0088157Y0018178D01*
X0088265Y0018087D01*
X0088370Y0017994D01*
X0088473Y0017897D01*
X0088573Y0017798D01*
X0088670Y0017696D01*
X0088764Y0017591D01*
X0088855Y0017484D01*
X0088943Y0017374D01*
X0089028Y0017262D01*
X0089110Y0017147D01*
X0089189Y0017030D01*
X0089264Y0016911D01*
X0089336Y0016790D01*
X0089404Y0016667D01*
X0089469Y0016542D01*
X0089531Y0016415D01*
X0089588Y0016286D01*
X0089643Y0016156D01*
X0089693Y0016025D01*
X0089740Y0015892D01*
X0089783Y0015758D01*
X0089822Y0015622D01*
X0089857Y0015486D01*
X0089889Y0015349D01*
X0089916Y0015211D01*
X0089940Y0015072D01*
X0089960Y0014932D01*
X0089976Y0014792D01*
X0089988Y0014652D01*
X0089996Y0014511D01*
X0090000Y0014370D01*
X0090000Y0014230D01*
X0089996Y0014089D01*
X0089988Y0013948D01*
X0089976Y0013808D01*
X0089960Y0013668D01*
X0089940Y0013528D01*
X0089916Y0013389D01*
X0089889Y0013251D01*
X0089857Y0013114D01*
X0089822Y0012978D01*
X0089783Y0012842D01*
X0089740Y0012708D01*
X0089693Y0012575D01*
X0089643Y0012444D01*
X0089588Y0012314D01*
X0089531Y0012185D01*
X0089469Y0012058D01*
X0089404Y0011933D01*
X0089336Y0011810D01*
X0089264Y0011689D01*
X0089189Y0011570D01*
X0089110Y0011453D01*
X0089028Y0011338D01*
X0088943Y0011226D01*
X0088855Y0011116D01*
X0088764Y0011009D01*
X0088670Y0010904D01*
X0088573Y0010802D01*
X0088473Y0010703D01*
X0088370Y0010606D01*
X0088265Y0010513D01*
X0088157Y0010422D01*
X0088046Y0010335D01*
X0087933Y0010251D01*
X0087818Y0010170D01*
X0087701Y0010092D01*
X0087581Y0010018D01*
X0087459Y0009947D01*
X0087336Y0009879D01*
X0087210Y0009815D01*
X0087083Y0009755D01*
X0086954Y0009698D01*
X0086824Y0009644D01*
X0086692Y0009595D01*
X0086558Y0009549D01*
X0086424Y0009507D01*
X0086288Y0009469D01*
X0086152Y0009434D01*
X0086014Y0009404D01*
X0085876Y0009377D01*
X0085737Y0009355D01*
X0085597Y0009336D01*
X0085457Y0009321D01*
X0085317Y0009310D01*
X0085176Y0009303D01*
X0085035Y0009300D01*
X0084894Y0009301D01*
X0084754Y0009306D01*
X0084613Y0009315D01*
X0084473Y0009328D01*
X0084333Y0009345D01*
X0084193Y0009365D01*
X0084055Y0009390D01*
X0083917Y0009419D01*
X0083780Y0009451D01*
X0083644Y0009487D01*
X0083509Y0009528D01*
X0083375Y0009572D01*
X0083242Y0009619D01*
X0083111Y0009671D01*
X0082981Y0009726D01*
X0082853Y0009784D01*
X0082727Y0009847D01*
X0082602Y0009912D01*
X0082480Y0009982D01*
X0082359Y0010054D01*
X0082240Y0010130D01*
X0082124Y0010210D01*
X0082010Y0010293D01*
X0081898Y0010378D01*
X0081789Y0010467D01*
X0081682Y0010559D01*
X0081578Y0010654D01*
X0081477Y0010752D01*
X0081378Y0010853D01*
X0081283Y0010956D01*
X0081190Y0011062D01*
X0081100Y0011171D01*
X0081014Y0011282D01*
X0080930Y0011395D01*
X0080850Y0011511D01*
X0080773Y0011629D01*
X0080700Y0011749D01*
X0080629Y0011872D01*
X0080563Y0011996D01*
X0080500Y0012122D01*
X0080440Y0012249D01*
X0080384Y0012378D01*
X0080332Y0012509D01*
X0080283Y0012641D01*
X0080238Y0012775D01*
X0080197Y0012910D01*
X0080160Y0013046D01*
X0080126Y0013182D01*
X0080097Y0013320D01*
X0080071Y0013459D01*
X0080050Y0013598D01*
X0080032Y0013738D01*
X0080018Y0013878D01*
X0080008Y0014018D01*
X0080002Y0014159D01*
X0080000Y0014300D01*
X0085000Y0004300D02*
X0085242Y0004303D01*
X0085483Y0004312D01*
X0085724Y0004326D01*
X0085965Y0004347D01*
X0086205Y0004373D01*
X0086445Y0004405D01*
X0086684Y0004443D01*
X0086921Y0004486D01*
X0087158Y0004536D01*
X0087393Y0004591D01*
X0087627Y0004651D01*
X0087859Y0004718D01*
X0088090Y0004789D01*
X0088319Y0004867D01*
X0088546Y0004950D01*
X0088771Y0005038D01*
X0088994Y0005132D01*
X0089214Y0005231D01*
X0089432Y0005336D01*
X0089647Y0005445D01*
X0089860Y0005560D01*
X0090070Y0005680D01*
X0090276Y0005805D01*
X0090480Y0005935D01*
X0090681Y0006070D01*
X0090878Y0006210D01*
X0091072Y0006354D01*
X0091262Y0006503D01*
X0091448Y0006657D01*
X0091631Y0006815D01*
X0091810Y0006977D01*
X0091985Y0007144D01*
X0092156Y0007315D01*
X0092323Y0007490D01*
X0092485Y0007669D01*
X0092643Y0007852D01*
X0092797Y0008038D01*
X0092946Y0008228D01*
X0093090Y0008422D01*
X0093230Y0008619D01*
X0093365Y0008820D01*
X0093495Y0009024D01*
X0093620Y0009230D01*
X0093740Y0009440D01*
X0093855Y0009653D01*
X0093964Y0009868D01*
X0094069Y0010086D01*
X0094168Y0010306D01*
X0094262Y0010529D01*
X0094350Y0010754D01*
X0094433Y0010981D01*
X0094511Y0011210D01*
X0094582Y0011441D01*
X0094649Y0011673D01*
X0094709Y0011907D01*
X0094764Y0012142D01*
X0094814Y0012379D01*
X0094857Y0012616D01*
X0094895Y0012855D01*
X0094927Y0013095D01*
X0094953Y0013335D01*
X0094974Y0013576D01*
X0094988Y0013817D01*
X0094997Y0014058D01*
X0095000Y0014300D01*
X0085000Y0004300D02*
X0015000Y0004300D01*
X0010000Y0014300D02*
X0010002Y0014441D01*
X0010008Y0014582D01*
X0010018Y0014722D01*
X0010032Y0014862D01*
X0010050Y0015002D01*
X0010071Y0015141D01*
X0010097Y0015280D01*
X0010126Y0015418D01*
X0010160Y0015554D01*
X0010197Y0015690D01*
X0010238Y0015825D01*
X0010283Y0015959D01*
X0010332Y0016091D01*
X0010384Y0016222D01*
X0010440Y0016351D01*
X0010500Y0016478D01*
X0010563Y0016604D01*
X0010629Y0016728D01*
X0010700Y0016851D01*
X0010773Y0016971D01*
X0010850Y0017089D01*
X0010930Y0017205D01*
X0011014Y0017318D01*
X0011100Y0017429D01*
X0011190Y0017538D01*
X0011283Y0017644D01*
X0011378Y0017747D01*
X0011477Y0017848D01*
X0011578Y0017946D01*
X0011682Y0018041D01*
X0011789Y0018133D01*
X0011898Y0018222D01*
X0012010Y0018307D01*
X0012124Y0018390D01*
X0012240Y0018470D01*
X0012359Y0018546D01*
X0012480Y0018618D01*
X0012602Y0018688D01*
X0012727Y0018753D01*
X0012853Y0018816D01*
X0012981Y0018874D01*
X0013111Y0018929D01*
X0013242Y0018981D01*
X0013375Y0019028D01*
X0013509Y0019072D01*
X0013644Y0019113D01*
X0013780Y0019149D01*
X0013917Y0019181D01*
X0014055Y0019210D01*
X0014193Y0019235D01*
X0014333Y0019255D01*
X0014473Y0019272D01*
X0014613Y0019285D01*
X0014754Y0019294D01*
X0014894Y0019299D01*
X0015035Y0019300D01*
X0015176Y0019297D01*
X0015317Y0019290D01*
X0015457Y0019279D01*
X0015597Y0019264D01*
X0015737Y0019245D01*
X0015876Y0019223D01*
X0016014Y0019196D01*
X0016152Y0019166D01*
X0016288Y0019131D01*
X0016424Y0019093D01*
X0016558Y0019051D01*
X0016692Y0019005D01*
X0016824Y0018956D01*
X0016954Y0018902D01*
X0017083Y0018845D01*
X0017210Y0018785D01*
X0017336Y0018721D01*
X0017459Y0018653D01*
X0017581Y0018582D01*
X0017701Y0018508D01*
X0017818Y0018430D01*
X0017933Y0018349D01*
X0018046Y0018265D01*
X0018157Y0018178D01*
X0018265Y0018087D01*
X0018370Y0017994D01*
X0018473Y0017897D01*
X0018573Y0017798D01*
X0018670Y0017696D01*
X0018764Y0017591D01*
X0018855Y0017484D01*
X0018943Y0017374D01*
X0019028Y0017262D01*
X0019110Y0017147D01*
X0019189Y0017030D01*
X0019264Y0016911D01*
X0019336Y0016790D01*
X0019404Y0016667D01*
X0019469Y0016542D01*
X0019531Y0016415D01*
X0019588Y0016286D01*
X0019643Y0016156D01*
X0019693Y0016025D01*
X0019740Y0015892D01*
X0019783Y0015758D01*
X0019822Y0015622D01*
X0019857Y0015486D01*
X0019889Y0015349D01*
X0019916Y0015211D01*
X0019940Y0015072D01*
X0019960Y0014932D01*
X0019976Y0014792D01*
X0019988Y0014652D01*
X0019996Y0014511D01*
X0020000Y0014370D01*
X0020000Y0014230D01*
X0019996Y0014089D01*
X0019988Y0013948D01*
X0019976Y0013808D01*
X0019960Y0013668D01*
X0019940Y0013528D01*
X0019916Y0013389D01*
X0019889Y0013251D01*
X0019857Y0013114D01*
X0019822Y0012978D01*
X0019783Y0012842D01*
X0019740Y0012708D01*
X0019693Y0012575D01*
X0019643Y0012444D01*
X0019588Y0012314D01*
X0019531Y0012185D01*
X0019469Y0012058D01*
X0019404Y0011933D01*
X0019336Y0011810D01*
X0019264Y0011689D01*
X0019189Y0011570D01*
X0019110Y0011453D01*
X0019028Y0011338D01*
X0018943Y0011226D01*
X0018855Y0011116D01*
X0018764Y0011009D01*
X0018670Y0010904D01*
X0018573Y0010802D01*
X0018473Y0010703D01*
X0018370Y0010606D01*
X0018265Y0010513D01*
X0018157Y0010422D01*
X0018046Y0010335D01*
X0017933Y0010251D01*
X0017818Y0010170D01*
X0017701Y0010092D01*
X0017581Y0010018D01*
X0017459Y0009947D01*
X0017336Y0009879D01*
X0017210Y0009815D01*
X0017083Y0009755D01*
X0016954Y0009698D01*
X0016824Y0009644D01*
X0016692Y0009595D01*
X0016558Y0009549D01*
X0016424Y0009507D01*
X0016288Y0009469D01*
X0016152Y0009434D01*
X0016014Y0009404D01*
X0015876Y0009377D01*
X0015737Y0009355D01*
X0015597Y0009336D01*
X0015457Y0009321D01*
X0015317Y0009310D01*
X0015176Y0009303D01*
X0015035Y0009300D01*
X0014894Y0009301D01*
X0014754Y0009306D01*
X0014613Y0009315D01*
X0014473Y0009328D01*
X0014333Y0009345D01*
X0014193Y0009365D01*
X0014055Y0009390D01*
X0013917Y0009419D01*
X0013780Y0009451D01*
X0013644Y0009487D01*
X0013509Y0009528D01*
X0013375Y0009572D01*
X0013242Y0009619D01*
X0013111Y0009671D01*
X0012981Y0009726D01*
X0012853Y0009784D01*
X0012727Y0009847D01*
X0012602Y0009912D01*
X0012480Y0009982D01*
X0012359Y0010054D01*
X0012240Y0010130D01*
X0012124Y0010210D01*
X0012010Y0010293D01*
X0011898Y0010378D01*
X0011789Y0010467D01*
X0011682Y0010559D01*
X0011578Y0010654D01*
X0011477Y0010752D01*
X0011378Y0010853D01*
X0011283Y0010956D01*
X0011190Y0011062D01*
X0011100Y0011171D01*
X0011014Y0011282D01*
X0010930Y0011395D01*
X0010850Y0011511D01*
X0010773Y0011629D01*
X0010700Y0011749D01*
X0010629Y0011872D01*
X0010563Y0011996D01*
X0010500Y0012122D01*
X0010440Y0012249D01*
X0010384Y0012378D01*
X0010332Y0012509D01*
X0010283Y0012641D01*
X0010238Y0012775D01*
X0010197Y0012910D01*
X0010160Y0013046D01*
X0010126Y0013182D01*
X0010097Y0013320D01*
X0010071Y0013459D01*
X0010050Y0013598D01*
X0010032Y0013738D01*
X0010018Y0013878D01*
X0010008Y0014018D01*
X0010002Y0014159D01*
X0010000Y0014300D01*
X0005000Y0014300D02*
X0005003Y0014058D01*
X0005012Y0013817D01*
X0005026Y0013576D01*
X0005047Y0013335D01*
X0005073Y0013095D01*
X0005105Y0012855D01*
X0005143Y0012616D01*
X0005186Y0012379D01*
X0005236Y0012142D01*
X0005291Y0011907D01*
X0005351Y0011673D01*
X0005418Y0011441D01*
X0005489Y0011210D01*
X0005567Y0010981D01*
X0005650Y0010754D01*
X0005738Y0010529D01*
X0005832Y0010306D01*
X0005931Y0010086D01*
X0006036Y0009868D01*
X0006145Y0009653D01*
X0006260Y0009440D01*
X0006380Y0009230D01*
X0006505Y0009024D01*
X0006635Y0008820D01*
X0006770Y0008619D01*
X0006910Y0008422D01*
X0007054Y0008228D01*
X0007203Y0008038D01*
X0007357Y0007852D01*
X0007515Y0007669D01*
X0007677Y0007490D01*
X0007844Y0007315D01*
X0008015Y0007144D01*
X0008190Y0006977D01*
X0008369Y0006815D01*
X0008552Y0006657D01*
X0008738Y0006503D01*
X0008928Y0006354D01*
X0009122Y0006210D01*
X0009319Y0006070D01*
X0009520Y0005935D01*
X0009724Y0005805D01*
X0009930Y0005680D01*
X0010140Y0005560D01*
X0010353Y0005445D01*
X0010568Y0005336D01*
X0010786Y0005231D01*
X0011006Y0005132D01*
X0011229Y0005038D01*
X0011454Y0004950D01*
X0011681Y0004867D01*
X0011910Y0004789D01*
X0012141Y0004718D01*
X0012373Y0004651D01*
X0012607Y0004591D01*
X0012842Y0004536D01*
X0013079Y0004486D01*
X0013316Y0004443D01*
X0013555Y0004405D01*
X0013795Y0004373D01*
X0014035Y0004347D01*
X0014276Y0004326D01*
X0014517Y0004312D01*
X0014758Y0004303D01*
X0015000Y0004300D01*
D11*
X0040363Y0050937D02*
X0040363Y0054163D01*
X0040363Y0050937D02*
X0037137Y0050937D01*
X0037137Y0054163D01*
X0040363Y0054163D01*
X0040363Y0052011D02*
X0037137Y0052011D01*
X0037137Y0053085D02*
X0040363Y0053085D01*
X0040363Y0054159D02*
X0037137Y0054159D01*
X0040363Y0056937D02*
X0040363Y0060163D01*
X0040363Y0056937D02*
X0037137Y0056937D01*
X0037137Y0060163D01*
X0040363Y0060163D01*
X0040363Y0058011D02*
X0037137Y0058011D01*
X0037137Y0059085D02*
X0040363Y0059085D01*
X0040363Y0060159D02*
X0037137Y0060159D01*
X0045387Y0074562D02*
X0048613Y0074562D01*
X0045387Y0074562D02*
X0045387Y0077788D01*
X0048613Y0077788D01*
X0048613Y0074562D01*
X0048613Y0075636D02*
X0045387Y0075636D01*
X0045387Y0076710D02*
X0048613Y0076710D01*
X0048613Y0077784D02*
X0045387Y0077784D01*
X0051387Y0074562D02*
X0054613Y0074562D01*
X0051387Y0074562D02*
X0051387Y0077788D01*
X0054613Y0077788D01*
X0054613Y0074562D01*
X0054613Y0075636D02*
X0051387Y0075636D01*
X0051387Y0076710D02*
X0054613Y0076710D01*
X0054613Y0077784D02*
X0051387Y0077784D01*
X0062863Y0060163D02*
X0062863Y0056937D01*
X0059637Y0056937D01*
X0059637Y0060163D01*
X0062863Y0060163D01*
X0062863Y0058011D02*
X0059637Y0058011D01*
X0059637Y0059085D02*
X0062863Y0059085D01*
X0062863Y0060159D02*
X0059637Y0060159D01*
X0062863Y0054163D02*
X0062863Y0050937D01*
X0059637Y0050937D01*
X0059637Y0054163D01*
X0062863Y0054163D01*
X0062863Y0052011D02*
X0059637Y0052011D01*
X0059637Y0053085D02*
X0062863Y0053085D01*
X0062863Y0054159D02*
X0059637Y0054159D01*
X0054613Y0040913D02*
X0051387Y0040913D01*
X0054613Y0040913D02*
X0054613Y0037687D01*
X0051387Y0037687D01*
X0051387Y0040913D01*
X0051387Y0038761D02*
X0054613Y0038761D01*
X0054613Y0039835D02*
X0051387Y0039835D01*
X0051387Y0040909D02*
X0054613Y0040909D01*
X0054613Y0030913D02*
X0051387Y0030913D01*
X0054613Y0030913D02*
X0054613Y0027687D01*
X0051387Y0027687D01*
X0051387Y0030913D01*
X0051387Y0028761D02*
X0054613Y0028761D01*
X0054613Y0029835D02*
X0051387Y0029835D01*
X0051387Y0030909D02*
X0054613Y0030909D01*
X0048613Y0030913D02*
X0045387Y0030913D01*
X0048613Y0030913D02*
X0048613Y0027687D01*
X0045387Y0027687D01*
X0045387Y0030913D01*
X0045387Y0028761D02*
X0048613Y0028761D01*
X0048613Y0029835D02*
X0045387Y0029835D01*
X0045387Y0030909D02*
X0048613Y0030909D01*
X0048613Y0040913D02*
X0045387Y0040913D01*
X0048613Y0040913D02*
X0048613Y0037687D01*
X0045387Y0037687D01*
X0045387Y0040913D01*
X0045387Y0038761D02*
X0048613Y0038761D01*
X0048613Y0039835D02*
X0045387Y0039835D01*
X0045387Y0040909D02*
X0048613Y0040909D01*
X0034637Y0084687D02*
X0034637Y0087913D01*
X0037863Y0087913D01*
X0037863Y0084687D01*
X0034637Y0084687D01*
X0034637Y0085761D02*
X0037863Y0085761D01*
X0037863Y0086835D02*
X0034637Y0086835D01*
X0034637Y0087909D02*
X0037863Y0087909D01*
X0034637Y0090687D02*
X0034637Y0093913D01*
X0037863Y0093913D01*
X0037863Y0090687D01*
X0034637Y0090687D01*
X0034637Y0091761D02*
X0037863Y0091761D01*
X0037863Y0092835D02*
X0034637Y0092835D01*
X0034637Y0093909D02*
X0037863Y0093909D01*
X0064113Y0093913D02*
X0064113Y0090687D01*
X0060887Y0090687D01*
X0060887Y0093913D01*
X0064113Y0093913D01*
X0064113Y0091761D02*
X0060887Y0091761D01*
X0060887Y0092835D02*
X0064113Y0092835D01*
X0064113Y0093909D02*
X0060887Y0093909D01*
X0064113Y0087913D02*
X0064113Y0084687D01*
X0060887Y0084687D01*
X0060887Y0087913D01*
X0064113Y0087913D01*
X0064113Y0085761D02*
X0060887Y0085761D01*
X0060887Y0086835D02*
X0064113Y0086835D01*
X0064113Y0087909D02*
X0060887Y0087909D01*
X0054613Y0185913D02*
X0051387Y0185913D01*
X0054613Y0185913D02*
X0054613Y0182687D01*
X0051387Y0182687D01*
X0051387Y0185913D01*
X0051387Y0183761D02*
X0054613Y0183761D01*
X0054613Y0184835D02*
X0051387Y0184835D01*
X0051387Y0185909D02*
X0054613Y0185909D01*
X0048613Y0185913D02*
X0045387Y0185913D01*
X0048613Y0185913D02*
X0048613Y0182687D01*
X0045387Y0182687D01*
X0045387Y0185913D01*
X0045387Y0183761D02*
X0048613Y0183761D01*
X0048613Y0184835D02*
X0045387Y0184835D01*
X0045387Y0185909D02*
X0048613Y0185909D01*
D12*
X0050000Y0009300D03*
X0040000Y0009300D03*
X0060000Y0009300D03*
D13*
X0085000Y0014300D03*
X0015000Y0014300D03*
D14*
X0015000Y0194300D03*
X0085000Y0194300D03*
D15*
X0090000Y0139300D03*
X0090000Y0129300D03*
X0090000Y0119300D03*
X0090000Y0109300D03*
X0090000Y0099300D03*
X0090000Y0089300D03*
X0090000Y0079300D03*
X0090000Y0069300D03*
X0090000Y0059300D03*
X0090000Y0049300D03*
X0090000Y0039300D03*
X0090000Y0029300D03*
X0010000Y0029300D03*
X0010000Y0039300D03*
X0010000Y0049300D03*
X0010000Y0059300D03*
X0010000Y0069300D03*
X0010000Y0079300D03*
X0010000Y0089300D03*
X0010000Y0099300D03*
X0010000Y0109300D03*
X0010000Y0119300D03*
X0010000Y0129300D03*
X0010000Y0139300D03*
X0010000Y0149300D03*
X0010000Y0159300D03*
X0010000Y0169300D03*
X0010000Y0179300D03*
D16*
X0046161Y0059585D03*
X0048720Y0059585D03*
X0051280Y0059585D03*
X0053839Y0059585D03*
X0053839Y0051515D03*
X0051280Y0051515D03*
X0048720Y0051515D03*
X0046161Y0051515D03*
D17*
X0043307Y0194300D03*
X0056693Y0194300D03*
D18*
X0056299Y0093237D03*
X0056299Y0091662D03*
X0056299Y0090087D03*
X0056299Y0088513D03*
X0056299Y0086938D03*
X0056299Y0085363D03*
X0043701Y0085363D03*
X0043701Y0086938D03*
X0043701Y0088513D03*
X0043701Y0090087D03*
X0043701Y0091662D03*
X0043701Y0093237D03*
D19*
X0046063Y0095599D03*
X0047638Y0095599D03*
X0049213Y0095599D03*
X0050787Y0095599D03*
X0052362Y0095599D03*
X0053937Y0095599D03*
X0053937Y0083001D03*
X0052362Y0083001D03*
X0050787Y0083001D03*
X0049213Y0083001D03*
X0047638Y0083001D03*
X0046063Y0083001D03*
D20*
X0047969Y0087584D02*
X0052031Y0087584D01*
X0047969Y0087584D02*
X0047969Y0091016D01*
X0052031Y0091016D01*
X0052031Y0087584D01*
X0052031Y0091014D02*
X0047969Y0091014D01*
D21*
X0048701Y0101495D03*
X0053819Y0101529D03*
X0062500Y0098050D03*
X0053750Y0064300D03*
X0048750Y0064300D03*
X0058750Y0039300D03*
X0058750Y0029300D03*
M02*
