G75*
%MOIN*%
%OFA0B0*%
%FSLAX25Y25*%
%IPPOS*%
%LPD*%
%AMOC8*
5,1,8,0,0,1.08239X$1,22.5*
%
%ADD10C,0.00000*%
%ADD11C,0.00875*%
%ADD12C,0.07400*%
%ADD13C,0.15000*%
%ADD14C,0.07000*%
%ADD15R,0.01378X0.01969*%
%ADD16R,0.03150X0.06693*%
%ADD17R,0.02362X0.00787*%
%ADD18R,0.00787X0.02362*%
%ADD19C,0.03031*%
%ADD20C,0.01600*%
%ADD21C,0.01000*%
%ADD22C,0.03962*%
%ADD23C,0.02400*%
D10*
X0005000Y0004300D02*
X0005000Y0204261D01*
X0094951Y0204261D01*
X0094951Y0004300D01*
X0005000Y0004300D01*
X0005000Y0014300D02*
X0005000Y0194300D01*
X0005003Y0194542D01*
X0005012Y0194783D01*
X0005026Y0195024D01*
X0005047Y0195265D01*
X0005073Y0195505D01*
X0005105Y0195745D01*
X0005143Y0195984D01*
X0005186Y0196221D01*
X0005236Y0196458D01*
X0005291Y0196693D01*
X0005351Y0196927D01*
X0005418Y0197159D01*
X0005489Y0197390D01*
X0005567Y0197619D01*
X0005650Y0197846D01*
X0005738Y0198071D01*
X0005832Y0198294D01*
X0005931Y0198514D01*
X0006036Y0198732D01*
X0006145Y0198947D01*
X0006260Y0199160D01*
X0006380Y0199370D01*
X0006505Y0199576D01*
X0006635Y0199780D01*
X0006770Y0199981D01*
X0006910Y0200178D01*
X0007054Y0200372D01*
X0007203Y0200562D01*
X0007357Y0200748D01*
X0007515Y0200931D01*
X0007677Y0201110D01*
X0007844Y0201285D01*
X0008015Y0201456D01*
X0008190Y0201623D01*
X0008369Y0201785D01*
X0008552Y0201943D01*
X0008738Y0202097D01*
X0008928Y0202246D01*
X0009122Y0202390D01*
X0009319Y0202530D01*
X0009520Y0202665D01*
X0009724Y0202795D01*
X0009930Y0202920D01*
X0010140Y0203040D01*
X0010353Y0203155D01*
X0010568Y0203264D01*
X0010786Y0203369D01*
X0011006Y0203468D01*
X0011229Y0203562D01*
X0011454Y0203650D01*
X0011681Y0203733D01*
X0011910Y0203811D01*
X0012141Y0203882D01*
X0012373Y0203949D01*
X0012607Y0204009D01*
X0012842Y0204064D01*
X0013079Y0204114D01*
X0013316Y0204157D01*
X0013555Y0204195D01*
X0013795Y0204227D01*
X0014035Y0204253D01*
X0014276Y0204274D01*
X0014517Y0204288D01*
X0014758Y0204297D01*
X0015000Y0204300D01*
X0085000Y0204300D01*
X0085242Y0204297D01*
X0085483Y0204288D01*
X0085724Y0204274D01*
X0085965Y0204253D01*
X0086205Y0204227D01*
X0086445Y0204195D01*
X0086684Y0204157D01*
X0086921Y0204114D01*
X0087158Y0204064D01*
X0087393Y0204009D01*
X0087627Y0203949D01*
X0087859Y0203882D01*
X0088090Y0203811D01*
X0088319Y0203733D01*
X0088546Y0203650D01*
X0088771Y0203562D01*
X0088994Y0203468D01*
X0089214Y0203369D01*
X0089432Y0203264D01*
X0089647Y0203155D01*
X0089860Y0203040D01*
X0090070Y0202920D01*
X0090276Y0202795D01*
X0090480Y0202665D01*
X0090681Y0202530D01*
X0090878Y0202390D01*
X0091072Y0202246D01*
X0091262Y0202097D01*
X0091448Y0201943D01*
X0091631Y0201785D01*
X0091810Y0201623D01*
X0091985Y0201456D01*
X0092156Y0201285D01*
X0092323Y0201110D01*
X0092485Y0200931D01*
X0092643Y0200748D01*
X0092797Y0200562D01*
X0092946Y0200372D01*
X0093090Y0200178D01*
X0093230Y0199981D01*
X0093365Y0199780D01*
X0093495Y0199576D01*
X0093620Y0199370D01*
X0093740Y0199160D01*
X0093855Y0198947D01*
X0093964Y0198732D01*
X0094069Y0198514D01*
X0094168Y0198294D01*
X0094262Y0198071D01*
X0094350Y0197846D01*
X0094433Y0197619D01*
X0094511Y0197390D01*
X0094582Y0197159D01*
X0094649Y0196927D01*
X0094709Y0196693D01*
X0094764Y0196458D01*
X0094814Y0196221D01*
X0094857Y0195984D01*
X0094895Y0195745D01*
X0094927Y0195505D01*
X0094953Y0195265D01*
X0094974Y0195024D01*
X0094988Y0194783D01*
X0094997Y0194542D01*
X0095000Y0194300D01*
X0095000Y0014300D01*
X0080000Y0014300D02*
X0080002Y0014441D01*
X0080008Y0014582D01*
X0080018Y0014722D01*
X0080032Y0014862D01*
X0080050Y0015002D01*
X0080071Y0015141D01*
X0080097Y0015280D01*
X0080126Y0015418D01*
X0080160Y0015554D01*
X0080197Y0015690D01*
X0080238Y0015825D01*
X0080283Y0015959D01*
X0080332Y0016091D01*
X0080384Y0016222D01*
X0080440Y0016351D01*
X0080500Y0016478D01*
X0080563Y0016604D01*
X0080629Y0016728D01*
X0080700Y0016851D01*
X0080773Y0016971D01*
X0080850Y0017089D01*
X0080930Y0017205D01*
X0081014Y0017318D01*
X0081100Y0017429D01*
X0081190Y0017538D01*
X0081283Y0017644D01*
X0081378Y0017747D01*
X0081477Y0017848D01*
X0081578Y0017946D01*
X0081682Y0018041D01*
X0081789Y0018133D01*
X0081898Y0018222D01*
X0082010Y0018307D01*
X0082124Y0018390D01*
X0082240Y0018470D01*
X0082359Y0018546D01*
X0082480Y0018618D01*
X0082602Y0018688D01*
X0082727Y0018753D01*
X0082853Y0018816D01*
X0082981Y0018874D01*
X0083111Y0018929D01*
X0083242Y0018981D01*
X0083375Y0019028D01*
X0083509Y0019072D01*
X0083644Y0019113D01*
X0083780Y0019149D01*
X0083917Y0019181D01*
X0084055Y0019210D01*
X0084193Y0019235D01*
X0084333Y0019255D01*
X0084473Y0019272D01*
X0084613Y0019285D01*
X0084754Y0019294D01*
X0084894Y0019299D01*
X0085035Y0019300D01*
X0085176Y0019297D01*
X0085317Y0019290D01*
X0085457Y0019279D01*
X0085597Y0019264D01*
X0085737Y0019245D01*
X0085876Y0019223D01*
X0086014Y0019196D01*
X0086152Y0019166D01*
X0086288Y0019131D01*
X0086424Y0019093D01*
X0086558Y0019051D01*
X0086692Y0019005D01*
X0086824Y0018956D01*
X0086954Y0018902D01*
X0087083Y0018845D01*
X0087210Y0018785D01*
X0087336Y0018721D01*
X0087459Y0018653D01*
X0087581Y0018582D01*
X0087701Y0018508D01*
X0087818Y0018430D01*
X0087933Y0018349D01*
X0088046Y0018265D01*
X0088157Y0018178D01*
X0088265Y0018087D01*
X0088370Y0017994D01*
X0088473Y0017897D01*
X0088573Y0017798D01*
X0088670Y0017696D01*
X0088764Y0017591D01*
X0088855Y0017484D01*
X0088943Y0017374D01*
X0089028Y0017262D01*
X0089110Y0017147D01*
X0089189Y0017030D01*
X0089264Y0016911D01*
X0089336Y0016790D01*
X0089404Y0016667D01*
X0089469Y0016542D01*
X0089531Y0016415D01*
X0089588Y0016286D01*
X0089643Y0016156D01*
X0089693Y0016025D01*
X0089740Y0015892D01*
X0089783Y0015758D01*
X0089822Y0015622D01*
X0089857Y0015486D01*
X0089889Y0015349D01*
X0089916Y0015211D01*
X0089940Y0015072D01*
X0089960Y0014932D01*
X0089976Y0014792D01*
X0089988Y0014652D01*
X0089996Y0014511D01*
X0090000Y0014370D01*
X0090000Y0014230D01*
X0089996Y0014089D01*
X0089988Y0013948D01*
X0089976Y0013808D01*
X0089960Y0013668D01*
X0089940Y0013528D01*
X0089916Y0013389D01*
X0089889Y0013251D01*
X0089857Y0013114D01*
X0089822Y0012978D01*
X0089783Y0012842D01*
X0089740Y0012708D01*
X0089693Y0012575D01*
X0089643Y0012444D01*
X0089588Y0012314D01*
X0089531Y0012185D01*
X0089469Y0012058D01*
X0089404Y0011933D01*
X0089336Y0011810D01*
X0089264Y0011689D01*
X0089189Y0011570D01*
X0089110Y0011453D01*
X0089028Y0011338D01*
X0088943Y0011226D01*
X0088855Y0011116D01*
X0088764Y0011009D01*
X0088670Y0010904D01*
X0088573Y0010802D01*
X0088473Y0010703D01*
X0088370Y0010606D01*
X0088265Y0010513D01*
X0088157Y0010422D01*
X0088046Y0010335D01*
X0087933Y0010251D01*
X0087818Y0010170D01*
X0087701Y0010092D01*
X0087581Y0010018D01*
X0087459Y0009947D01*
X0087336Y0009879D01*
X0087210Y0009815D01*
X0087083Y0009755D01*
X0086954Y0009698D01*
X0086824Y0009644D01*
X0086692Y0009595D01*
X0086558Y0009549D01*
X0086424Y0009507D01*
X0086288Y0009469D01*
X0086152Y0009434D01*
X0086014Y0009404D01*
X0085876Y0009377D01*
X0085737Y0009355D01*
X0085597Y0009336D01*
X0085457Y0009321D01*
X0085317Y0009310D01*
X0085176Y0009303D01*
X0085035Y0009300D01*
X0084894Y0009301D01*
X0084754Y0009306D01*
X0084613Y0009315D01*
X0084473Y0009328D01*
X0084333Y0009345D01*
X0084193Y0009365D01*
X0084055Y0009390D01*
X0083917Y0009419D01*
X0083780Y0009451D01*
X0083644Y0009487D01*
X0083509Y0009528D01*
X0083375Y0009572D01*
X0083242Y0009619D01*
X0083111Y0009671D01*
X0082981Y0009726D01*
X0082853Y0009784D01*
X0082727Y0009847D01*
X0082602Y0009912D01*
X0082480Y0009982D01*
X0082359Y0010054D01*
X0082240Y0010130D01*
X0082124Y0010210D01*
X0082010Y0010293D01*
X0081898Y0010378D01*
X0081789Y0010467D01*
X0081682Y0010559D01*
X0081578Y0010654D01*
X0081477Y0010752D01*
X0081378Y0010853D01*
X0081283Y0010956D01*
X0081190Y0011062D01*
X0081100Y0011171D01*
X0081014Y0011282D01*
X0080930Y0011395D01*
X0080850Y0011511D01*
X0080773Y0011629D01*
X0080700Y0011749D01*
X0080629Y0011872D01*
X0080563Y0011996D01*
X0080500Y0012122D01*
X0080440Y0012249D01*
X0080384Y0012378D01*
X0080332Y0012509D01*
X0080283Y0012641D01*
X0080238Y0012775D01*
X0080197Y0012910D01*
X0080160Y0013046D01*
X0080126Y0013182D01*
X0080097Y0013320D01*
X0080071Y0013459D01*
X0080050Y0013598D01*
X0080032Y0013738D01*
X0080018Y0013878D01*
X0080008Y0014018D01*
X0080002Y0014159D01*
X0080000Y0014300D01*
X0085000Y0004300D02*
X0085242Y0004303D01*
X0085483Y0004312D01*
X0085724Y0004326D01*
X0085965Y0004347D01*
X0086205Y0004373D01*
X0086445Y0004405D01*
X0086684Y0004443D01*
X0086921Y0004486D01*
X0087158Y0004536D01*
X0087393Y0004591D01*
X0087627Y0004651D01*
X0087859Y0004718D01*
X0088090Y0004789D01*
X0088319Y0004867D01*
X0088546Y0004950D01*
X0088771Y0005038D01*
X0088994Y0005132D01*
X0089214Y0005231D01*
X0089432Y0005336D01*
X0089647Y0005445D01*
X0089860Y0005560D01*
X0090070Y0005680D01*
X0090276Y0005805D01*
X0090480Y0005935D01*
X0090681Y0006070D01*
X0090878Y0006210D01*
X0091072Y0006354D01*
X0091262Y0006503D01*
X0091448Y0006657D01*
X0091631Y0006815D01*
X0091810Y0006977D01*
X0091985Y0007144D01*
X0092156Y0007315D01*
X0092323Y0007490D01*
X0092485Y0007669D01*
X0092643Y0007852D01*
X0092797Y0008038D01*
X0092946Y0008228D01*
X0093090Y0008422D01*
X0093230Y0008619D01*
X0093365Y0008820D01*
X0093495Y0009024D01*
X0093620Y0009230D01*
X0093740Y0009440D01*
X0093855Y0009653D01*
X0093964Y0009868D01*
X0094069Y0010086D01*
X0094168Y0010306D01*
X0094262Y0010529D01*
X0094350Y0010754D01*
X0094433Y0010981D01*
X0094511Y0011210D01*
X0094582Y0011441D01*
X0094649Y0011673D01*
X0094709Y0011907D01*
X0094764Y0012142D01*
X0094814Y0012379D01*
X0094857Y0012616D01*
X0094895Y0012855D01*
X0094927Y0013095D01*
X0094953Y0013335D01*
X0094974Y0013576D01*
X0094988Y0013817D01*
X0094997Y0014058D01*
X0095000Y0014300D01*
X0085000Y0004300D02*
X0015000Y0004300D01*
X0010000Y0014300D02*
X0010002Y0014441D01*
X0010008Y0014582D01*
X0010018Y0014722D01*
X0010032Y0014862D01*
X0010050Y0015002D01*
X0010071Y0015141D01*
X0010097Y0015280D01*
X0010126Y0015418D01*
X0010160Y0015554D01*
X0010197Y0015690D01*
X0010238Y0015825D01*
X0010283Y0015959D01*
X0010332Y0016091D01*
X0010384Y0016222D01*
X0010440Y0016351D01*
X0010500Y0016478D01*
X0010563Y0016604D01*
X0010629Y0016728D01*
X0010700Y0016851D01*
X0010773Y0016971D01*
X0010850Y0017089D01*
X0010930Y0017205D01*
X0011014Y0017318D01*
X0011100Y0017429D01*
X0011190Y0017538D01*
X0011283Y0017644D01*
X0011378Y0017747D01*
X0011477Y0017848D01*
X0011578Y0017946D01*
X0011682Y0018041D01*
X0011789Y0018133D01*
X0011898Y0018222D01*
X0012010Y0018307D01*
X0012124Y0018390D01*
X0012240Y0018470D01*
X0012359Y0018546D01*
X0012480Y0018618D01*
X0012602Y0018688D01*
X0012727Y0018753D01*
X0012853Y0018816D01*
X0012981Y0018874D01*
X0013111Y0018929D01*
X0013242Y0018981D01*
X0013375Y0019028D01*
X0013509Y0019072D01*
X0013644Y0019113D01*
X0013780Y0019149D01*
X0013917Y0019181D01*
X0014055Y0019210D01*
X0014193Y0019235D01*
X0014333Y0019255D01*
X0014473Y0019272D01*
X0014613Y0019285D01*
X0014754Y0019294D01*
X0014894Y0019299D01*
X0015035Y0019300D01*
X0015176Y0019297D01*
X0015317Y0019290D01*
X0015457Y0019279D01*
X0015597Y0019264D01*
X0015737Y0019245D01*
X0015876Y0019223D01*
X0016014Y0019196D01*
X0016152Y0019166D01*
X0016288Y0019131D01*
X0016424Y0019093D01*
X0016558Y0019051D01*
X0016692Y0019005D01*
X0016824Y0018956D01*
X0016954Y0018902D01*
X0017083Y0018845D01*
X0017210Y0018785D01*
X0017336Y0018721D01*
X0017459Y0018653D01*
X0017581Y0018582D01*
X0017701Y0018508D01*
X0017818Y0018430D01*
X0017933Y0018349D01*
X0018046Y0018265D01*
X0018157Y0018178D01*
X0018265Y0018087D01*
X0018370Y0017994D01*
X0018473Y0017897D01*
X0018573Y0017798D01*
X0018670Y0017696D01*
X0018764Y0017591D01*
X0018855Y0017484D01*
X0018943Y0017374D01*
X0019028Y0017262D01*
X0019110Y0017147D01*
X0019189Y0017030D01*
X0019264Y0016911D01*
X0019336Y0016790D01*
X0019404Y0016667D01*
X0019469Y0016542D01*
X0019531Y0016415D01*
X0019588Y0016286D01*
X0019643Y0016156D01*
X0019693Y0016025D01*
X0019740Y0015892D01*
X0019783Y0015758D01*
X0019822Y0015622D01*
X0019857Y0015486D01*
X0019889Y0015349D01*
X0019916Y0015211D01*
X0019940Y0015072D01*
X0019960Y0014932D01*
X0019976Y0014792D01*
X0019988Y0014652D01*
X0019996Y0014511D01*
X0020000Y0014370D01*
X0020000Y0014230D01*
X0019996Y0014089D01*
X0019988Y0013948D01*
X0019976Y0013808D01*
X0019960Y0013668D01*
X0019940Y0013528D01*
X0019916Y0013389D01*
X0019889Y0013251D01*
X0019857Y0013114D01*
X0019822Y0012978D01*
X0019783Y0012842D01*
X0019740Y0012708D01*
X0019693Y0012575D01*
X0019643Y0012444D01*
X0019588Y0012314D01*
X0019531Y0012185D01*
X0019469Y0012058D01*
X0019404Y0011933D01*
X0019336Y0011810D01*
X0019264Y0011689D01*
X0019189Y0011570D01*
X0019110Y0011453D01*
X0019028Y0011338D01*
X0018943Y0011226D01*
X0018855Y0011116D01*
X0018764Y0011009D01*
X0018670Y0010904D01*
X0018573Y0010802D01*
X0018473Y0010703D01*
X0018370Y0010606D01*
X0018265Y0010513D01*
X0018157Y0010422D01*
X0018046Y0010335D01*
X0017933Y0010251D01*
X0017818Y0010170D01*
X0017701Y0010092D01*
X0017581Y0010018D01*
X0017459Y0009947D01*
X0017336Y0009879D01*
X0017210Y0009815D01*
X0017083Y0009755D01*
X0016954Y0009698D01*
X0016824Y0009644D01*
X0016692Y0009595D01*
X0016558Y0009549D01*
X0016424Y0009507D01*
X0016288Y0009469D01*
X0016152Y0009434D01*
X0016014Y0009404D01*
X0015876Y0009377D01*
X0015737Y0009355D01*
X0015597Y0009336D01*
X0015457Y0009321D01*
X0015317Y0009310D01*
X0015176Y0009303D01*
X0015035Y0009300D01*
X0014894Y0009301D01*
X0014754Y0009306D01*
X0014613Y0009315D01*
X0014473Y0009328D01*
X0014333Y0009345D01*
X0014193Y0009365D01*
X0014055Y0009390D01*
X0013917Y0009419D01*
X0013780Y0009451D01*
X0013644Y0009487D01*
X0013509Y0009528D01*
X0013375Y0009572D01*
X0013242Y0009619D01*
X0013111Y0009671D01*
X0012981Y0009726D01*
X0012853Y0009784D01*
X0012727Y0009847D01*
X0012602Y0009912D01*
X0012480Y0009982D01*
X0012359Y0010054D01*
X0012240Y0010130D01*
X0012124Y0010210D01*
X0012010Y0010293D01*
X0011898Y0010378D01*
X0011789Y0010467D01*
X0011682Y0010559D01*
X0011578Y0010654D01*
X0011477Y0010752D01*
X0011378Y0010853D01*
X0011283Y0010956D01*
X0011190Y0011062D01*
X0011100Y0011171D01*
X0011014Y0011282D01*
X0010930Y0011395D01*
X0010850Y0011511D01*
X0010773Y0011629D01*
X0010700Y0011749D01*
X0010629Y0011872D01*
X0010563Y0011996D01*
X0010500Y0012122D01*
X0010440Y0012249D01*
X0010384Y0012378D01*
X0010332Y0012509D01*
X0010283Y0012641D01*
X0010238Y0012775D01*
X0010197Y0012910D01*
X0010160Y0013046D01*
X0010126Y0013182D01*
X0010097Y0013320D01*
X0010071Y0013459D01*
X0010050Y0013598D01*
X0010032Y0013738D01*
X0010018Y0013878D01*
X0010008Y0014018D01*
X0010002Y0014159D01*
X0010000Y0014300D01*
X0005000Y0014300D02*
X0005003Y0014058D01*
X0005012Y0013817D01*
X0005026Y0013576D01*
X0005047Y0013335D01*
X0005073Y0013095D01*
X0005105Y0012855D01*
X0005143Y0012616D01*
X0005186Y0012379D01*
X0005236Y0012142D01*
X0005291Y0011907D01*
X0005351Y0011673D01*
X0005418Y0011441D01*
X0005489Y0011210D01*
X0005567Y0010981D01*
X0005650Y0010754D01*
X0005738Y0010529D01*
X0005832Y0010306D01*
X0005931Y0010086D01*
X0006036Y0009868D01*
X0006145Y0009653D01*
X0006260Y0009440D01*
X0006380Y0009230D01*
X0006505Y0009024D01*
X0006635Y0008820D01*
X0006770Y0008619D01*
X0006910Y0008422D01*
X0007054Y0008228D01*
X0007203Y0008038D01*
X0007357Y0007852D01*
X0007515Y0007669D01*
X0007677Y0007490D01*
X0007844Y0007315D01*
X0008015Y0007144D01*
X0008190Y0006977D01*
X0008369Y0006815D01*
X0008552Y0006657D01*
X0008738Y0006503D01*
X0008928Y0006354D01*
X0009122Y0006210D01*
X0009319Y0006070D01*
X0009520Y0005935D01*
X0009724Y0005805D01*
X0009930Y0005680D01*
X0010140Y0005560D01*
X0010353Y0005445D01*
X0010568Y0005336D01*
X0010786Y0005231D01*
X0011006Y0005132D01*
X0011229Y0005038D01*
X0011454Y0004950D01*
X0011681Y0004867D01*
X0011910Y0004789D01*
X0012141Y0004718D01*
X0012373Y0004651D01*
X0012607Y0004591D01*
X0012842Y0004536D01*
X0013079Y0004486D01*
X0013316Y0004443D01*
X0013555Y0004405D01*
X0013795Y0004373D01*
X0014035Y0004347D01*
X0014276Y0004326D01*
X0014517Y0004312D01*
X0014758Y0004303D01*
X0015000Y0004300D01*
D11*
X0040063Y0051237D02*
X0040063Y0053863D01*
X0040063Y0051237D02*
X0037437Y0051237D01*
X0037437Y0053863D01*
X0040063Y0053863D01*
X0040063Y0052111D02*
X0037437Y0052111D01*
X0037437Y0052985D02*
X0040063Y0052985D01*
X0040063Y0053859D02*
X0037437Y0053859D01*
X0040063Y0057237D02*
X0040063Y0059863D01*
X0040063Y0057237D02*
X0037437Y0057237D01*
X0037437Y0059863D01*
X0040063Y0059863D01*
X0040063Y0058111D02*
X0037437Y0058111D01*
X0037437Y0058985D02*
X0040063Y0058985D01*
X0040063Y0059859D02*
X0037437Y0059859D01*
X0045687Y0074862D02*
X0048313Y0074862D01*
X0045687Y0074862D02*
X0045687Y0077488D01*
X0048313Y0077488D01*
X0048313Y0074862D01*
X0048313Y0075736D02*
X0045687Y0075736D01*
X0045687Y0076610D02*
X0048313Y0076610D01*
X0048313Y0077484D02*
X0045687Y0077484D01*
X0051687Y0074862D02*
X0054313Y0074862D01*
X0051687Y0074862D02*
X0051687Y0077488D01*
X0054313Y0077488D01*
X0054313Y0074862D01*
X0054313Y0075736D02*
X0051687Y0075736D01*
X0051687Y0076610D02*
X0054313Y0076610D01*
X0054313Y0077484D02*
X0051687Y0077484D01*
X0062563Y0059863D02*
X0062563Y0057237D01*
X0059937Y0057237D01*
X0059937Y0059863D01*
X0062563Y0059863D01*
X0062563Y0058111D02*
X0059937Y0058111D01*
X0059937Y0058985D02*
X0062563Y0058985D01*
X0062563Y0059859D02*
X0059937Y0059859D01*
X0062563Y0053863D02*
X0062563Y0051237D01*
X0059937Y0051237D01*
X0059937Y0053863D01*
X0062563Y0053863D01*
X0062563Y0052111D02*
X0059937Y0052111D01*
X0059937Y0052985D02*
X0062563Y0052985D01*
X0062563Y0053859D02*
X0059937Y0053859D01*
X0054313Y0040613D02*
X0051687Y0040613D01*
X0054313Y0040613D02*
X0054313Y0037987D01*
X0051687Y0037987D01*
X0051687Y0040613D01*
X0051687Y0038861D02*
X0054313Y0038861D01*
X0054313Y0039735D02*
X0051687Y0039735D01*
X0051687Y0040609D02*
X0054313Y0040609D01*
X0054313Y0030613D02*
X0051687Y0030613D01*
X0054313Y0030613D02*
X0054313Y0027987D01*
X0051687Y0027987D01*
X0051687Y0030613D01*
X0051687Y0028861D02*
X0054313Y0028861D01*
X0054313Y0029735D02*
X0051687Y0029735D01*
X0051687Y0030609D02*
X0054313Y0030609D01*
X0048313Y0030613D02*
X0045687Y0030613D01*
X0048313Y0030613D02*
X0048313Y0027987D01*
X0045687Y0027987D01*
X0045687Y0030613D01*
X0045687Y0028861D02*
X0048313Y0028861D01*
X0048313Y0029735D02*
X0045687Y0029735D01*
X0045687Y0030609D02*
X0048313Y0030609D01*
X0048313Y0040613D02*
X0045687Y0040613D01*
X0048313Y0040613D02*
X0048313Y0037987D01*
X0045687Y0037987D01*
X0045687Y0040613D01*
X0045687Y0038861D02*
X0048313Y0038861D01*
X0048313Y0039735D02*
X0045687Y0039735D01*
X0045687Y0040609D02*
X0048313Y0040609D01*
X0034937Y0084987D02*
X0034937Y0087613D01*
X0037563Y0087613D01*
X0037563Y0084987D01*
X0034937Y0084987D01*
X0034937Y0085861D02*
X0037563Y0085861D01*
X0037563Y0086735D02*
X0034937Y0086735D01*
X0034937Y0087609D02*
X0037563Y0087609D01*
X0034937Y0090987D02*
X0034937Y0093613D01*
X0037563Y0093613D01*
X0037563Y0090987D01*
X0034937Y0090987D01*
X0034937Y0091861D02*
X0037563Y0091861D01*
X0037563Y0092735D02*
X0034937Y0092735D01*
X0034937Y0093609D02*
X0037563Y0093609D01*
X0063813Y0093613D02*
X0063813Y0090987D01*
X0061187Y0090987D01*
X0061187Y0093613D01*
X0063813Y0093613D01*
X0063813Y0091861D02*
X0061187Y0091861D01*
X0061187Y0092735D02*
X0063813Y0092735D01*
X0063813Y0093609D02*
X0061187Y0093609D01*
X0063813Y0087613D02*
X0063813Y0084987D01*
X0061187Y0084987D01*
X0061187Y0087613D01*
X0063813Y0087613D01*
X0063813Y0085861D02*
X0061187Y0085861D01*
X0061187Y0086735D02*
X0063813Y0086735D01*
X0063813Y0087609D02*
X0061187Y0087609D01*
X0054313Y0185613D02*
X0051687Y0185613D01*
X0054313Y0185613D02*
X0054313Y0182987D01*
X0051687Y0182987D01*
X0051687Y0185613D01*
X0051687Y0183861D02*
X0054313Y0183861D01*
X0054313Y0184735D02*
X0051687Y0184735D01*
X0051687Y0185609D02*
X0054313Y0185609D01*
X0048313Y0185613D02*
X0045687Y0185613D01*
X0048313Y0185613D02*
X0048313Y0182987D01*
X0045687Y0182987D01*
X0045687Y0185613D01*
X0045687Y0183861D02*
X0048313Y0183861D01*
X0048313Y0184735D02*
X0045687Y0184735D01*
X0045687Y0185609D02*
X0048313Y0185609D01*
D12*
X0050000Y0009300D03*
X0040000Y0009300D03*
X0060000Y0009300D03*
D13*
X0085000Y0194300D03*
X0015000Y0194300D03*
D14*
X0010000Y0179300D03*
X0010000Y0169300D03*
X0010000Y0159300D03*
X0010000Y0149300D03*
X0010000Y0139300D03*
X0010000Y0129300D03*
X0010000Y0119300D03*
X0010000Y0109300D03*
X0010000Y0099300D03*
X0010000Y0089300D03*
X0010000Y0079300D03*
X0010000Y0069300D03*
X0010000Y0059300D03*
X0010000Y0049300D03*
X0010000Y0039300D03*
X0010000Y0029300D03*
X0090000Y0029300D03*
X0090000Y0039300D03*
X0090000Y0049300D03*
X0090000Y0059300D03*
X0090000Y0069300D03*
X0090000Y0079300D03*
X0090000Y0089300D03*
X0090000Y0099300D03*
X0090000Y0109300D03*
X0090000Y0119300D03*
X0090000Y0129300D03*
X0090000Y0139300D03*
D15*
X0053839Y0059585D03*
X0051280Y0059585D03*
X0048720Y0059585D03*
X0046161Y0059585D03*
X0046161Y0051515D03*
X0048720Y0051515D03*
X0051280Y0051515D03*
X0053839Y0051515D03*
D16*
X0056693Y0194300D03*
X0043307Y0194300D03*
D17*
X0043701Y0093237D03*
X0043701Y0091662D03*
X0043701Y0090087D03*
X0043701Y0088513D03*
X0043701Y0086938D03*
X0043701Y0085363D03*
X0056299Y0085363D03*
X0056299Y0086938D03*
X0056299Y0088513D03*
X0056299Y0090087D03*
X0056299Y0091662D03*
X0056299Y0093237D03*
D18*
X0053937Y0095599D03*
X0052362Y0095599D03*
X0050787Y0095599D03*
X0049213Y0095599D03*
X0047638Y0095599D03*
X0046063Y0095599D03*
X0046063Y0083001D03*
X0047638Y0083001D03*
X0049213Y0083001D03*
X0050787Y0083001D03*
X0052362Y0083001D03*
X0053937Y0083001D03*
D19*
X0051831Y0087784D02*
X0048169Y0087784D01*
X0048169Y0090816D01*
X0051831Y0090816D01*
X0051831Y0087784D01*
X0051831Y0090814D02*
X0048169Y0090814D01*
D20*
X0043963Y0095337D02*
X0043963Y0100249D01*
X0045120Y0101405D01*
X0045120Y0102207D01*
X0045665Y0103523D01*
X0046672Y0104531D01*
X0047988Y0105076D01*
X0049413Y0105076D01*
X0050729Y0104531D01*
X0051243Y0104017D01*
X0051790Y0104565D01*
X0053107Y0105110D01*
X0054531Y0105110D01*
X0055847Y0104565D01*
X0056855Y0103558D01*
X0057400Y0102242D01*
X0057400Y0100817D01*
X0056855Y0099501D01*
X0055847Y0098493D01*
X0055164Y0098210D01*
X0055931Y0097443D01*
X0055931Y0095431D01*
X0056299Y0095431D01*
X0056299Y0093656D01*
X0056299Y0093656D01*
X0056299Y0095431D01*
X0057717Y0095431D01*
X0058175Y0095308D01*
X0058586Y0095071D01*
X0058921Y0094736D01*
X0059092Y0094438D01*
X0059102Y0094476D01*
X0059397Y0094986D01*
X0059814Y0095403D01*
X0060324Y0095698D01*
X0060893Y0095850D01*
X0062425Y0095850D01*
X0062425Y0092375D01*
X0062575Y0092375D01*
X0062575Y0095850D01*
X0064107Y0095850D01*
X0064676Y0095698D01*
X0065186Y0095403D01*
X0065603Y0094986D01*
X0065898Y0094476D01*
X0066050Y0093907D01*
X0066050Y0092375D01*
X0062575Y0092375D01*
X0062575Y0092225D01*
X0066050Y0092225D01*
X0066050Y0090693D01*
X0065898Y0090124D01*
X0065603Y0089614D01*
X0065186Y0089197D01*
X0065138Y0089169D01*
X0065850Y0088456D01*
X0065850Y0085795D01*
X0069150Y0082495D01*
X0069150Y0134680D01*
X0039600Y0164230D01*
X0039600Y0095337D01*
X0043963Y0095337D01*
X0043963Y0095415D02*
X0039600Y0095415D01*
X0039600Y0097014D02*
X0043963Y0097014D01*
X0043963Y0098612D02*
X0039600Y0098612D01*
X0039600Y0100211D02*
X0043963Y0100211D01*
X0045120Y0101809D02*
X0039600Y0101809D01*
X0039600Y0103408D02*
X0045617Y0103408D01*
X0047820Y0105006D02*
X0039600Y0105006D01*
X0039600Y0106605D02*
X0069150Y0106605D01*
X0069150Y0108203D02*
X0039600Y0108203D01*
X0039600Y0109802D02*
X0069150Y0109802D01*
X0069150Y0111400D02*
X0039600Y0111400D01*
X0039600Y0112999D02*
X0069150Y0112999D01*
X0069150Y0114597D02*
X0039600Y0114597D01*
X0039600Y0116196D02*
X0069150Y0116196D01*
X0069150Y0117794D02*
X0039600Y0117794D01*
X0039600Y0119393D02*
X0069150Y0119393D01*
X0069150Y0120991D02*
X0039600Y0120991D01*
X0039600Y0122590D02*
X0069150Y0122590D01*
X0069150Y0124188D02*
X0039600Y0124188D01*
X0039600Y0125787D02*
X0069150Y0125787D01*
X0069150Y0127385D02*
X0039600Y0127385D01*
X0039600Y0128984D02*
X0069150Y0128984D01*
X0069150Y0130582D02*
X0039600Y0130582D01*
X0039600Y0132181D02*
X0069150Y0132181D01*
X0069150Y0133779D02*
X0039600Y0133779D01*
X0039600Y0135378D02*
X0068452Y0135378D01*
X0066854Y0136976D02*
X0039600Y0136976D01*
X0039600Y0138575D02*
X0065255Y0138575D01*
X0063657Y0140173D02*
X0039600Y0140173D01*
X0039600Y0141772D02*
X0062058Y0141772D01*
X0060460Y0143370D02*
X0039600Y0143370D01*
X0039600Y0144969D02*
X0058861Y0144969D01*
X0057263Y0146568D02*
X0039600Y0146568D01*
X0039600Y0148166D02*
X0055664Y0148166D01*
X0054066Y0149765D02*
X0039600Y0149765D01*
X0039600Y0151363D02*
X0052467Y0151363D01*
X0050869Y0152962D02*
X0039600Y0152962D01*
X0039600Y0154560D02*
X0049270Y0154560D01*
X0047672Y0156159D02*
X0039600Y0156159D01*
X0039600Y0157757D02*
X0046073Y0157757D01*
X0044475Y0159356D02*
X0039600Y0159356D01*
X0039600Y0160954D02*
X0042876Y0160954D01*
X0041278Y0162553D02*
X0039600Y0162553D01*
X0039600Y0164151D02*
X0039679Y0164151D01*
X0040823Y0168947D02*
X0090151Y0168947D01*
X0090151Y0170545D02*
X0042215Y0170545D01*
X0040720Y0169050D02*
X0052620Y0180950D01*
X0055156Y0180950D01*
X0056350Y0182144D01*
X0056350Y0186456D01*
X0055156Y0187650D01*
X0050844Y0187650D01*
X0050000Y0186806D01*
X0049156Y0187650D01*
X0049100Y0187650D01*
X0049100Y0191477D01*
X0046482Y0194095D01*
X0046482Y0198309D01*
X0045545Y0199246D01*
X0041070Y0199246D01*
X0040132Y0198309D01*
X0040132Y0194095D01*
X0027437Y0181400D01*
X0014650Y0181400D01*
X0014324Y0182189D01*
X0012889Y0183624D01*
X0011014Y0184400D01*
X0009800Y0184400D01*
X0009800Y0186631D01*
X0009845Y0186585D01*
X0013190Y0185200D01*
X0016810Y0185200D01*
X0020155Y0186585D01*
X0022715Y0189145D01*
X0024100Y0192490D01*
X0024100Y0196110D01*
X0022715Y0199455D01*
X0022709Y0199461D01*
X0077291Y0199461D01*
X0077285Y0199455D01*
X0075900Y0196110D01*
X0075900Y0192490D01*
X0077285Y0189145D01*
X0079845Y0186585D01*
X0083190Y0185200D01*
X0086810Y0185200D01*
X0090151Y0186584D01*
X0090151Y0144400D01*
X0088986Y0144400D01*
X0087111Y0143624D01*
X0085676Y0142189D01*
X0084900Y0140314D01*
X0084900Y0138286D01*
X0084937Y0138197D01*
X0079664Y0132924D01*
X0078876Y0132136D01*
X0078450Y0131107D01*
X0078450Y0041710D01*
X0051256Y0014516D01*
X0051054Y0014600D01*
X0048946Y0014600D01*
X0046998Y0013793D01*
X0045507Y0012302D01*
X0045115Y0011356D01*
X0045097Y0011411D01*
X0044704Y0012183D01*
X0044195Y0012883D01*
X0043583Y0013495D01*
X0042883Y0014004D01*
X0042111Y0014397D01*
X0041288Y0014665D01*
X0040433Y0014800D01*
X0040200Y0014800D01*
X0040200Y0009500D01*
X0039800Y0009500D01*
X0039800Y0014800D01*
X0039567Y0014800D01*
X0038712Y0014665D01*
X0037889Y0014397D01*
X0037117Y0014004D01*
X0036417Y0013495D01*
X0035805Y0012883D01*
X0035296Y0012183D01*
X0034903Y0011411D01*
X0034635Y0010588D01*
X0034500Y0009733D01*
X0034500Y0009500D01*
X0039800Y0009500D01*
X0039800Y0009100D01*
X0023454Y0009100D01*
X0024800Y0012351D01*
X0024800Y0016249D01*
X0023308Y0019851D01*
X0020551Y0022608D01*
X0016949Y0024100D01*
X0013051Y0024100D01*
X0009800Y0022754D01*
X0009800Y0024200D01*
X0011014Y0024200D01*
X0012889Y0024976D01*
X0014324Y0026411D01*
X0015100Y0028286D01*
X0015100Y0030314D01*
X0014324Y0032189D01*
X0012889Y0033624D01*
X0011256Y0034300D01*
X0012889Y0034976D01*
X0014324Y0036411D01*
X0015100Y0038286D01*
X0015100Y0040314D01*
X0014324Y0042189D01*
X0012889Y0043624D01*
X0011256Y0044300D01*
X0012889Y0044976D01*
X0014324Y0046411D01*
X0015100Y0048286D01*
X0015100Y0050314D01*
X0014324Y0052189D01*
X0012889Y0053624D01*
X0011256Y0054300D01*
X0012889Y0054976D01*
X0014324Y0056411D01*
X0015100Y0058286D01*
X0015100Y0060314D01*
X0014324Y0062189D01*
X0012889Y0063624D01*
X0011256Y0064300D01*
X0012889Y0064976D01*
X0014324Y0066411D01*
X0015100Y0068286D01*
X0015100Y0070314D01*
X0014324Y0072189D01*
X0012889Y0073624D01*
X0011256Y0074300D01*
X0012889Y0074976D01*
X0014324Y0076411D01*
X0015100Y0078286D01*
X0015100Y0080314D01*
X0014324Y0082189D01*
X0012889Y0083624D01*
X0011256Y0084300D01*
X0012889Y0084976D01*
X0014324Y0086411D01*
X0015100Y0088286D01*
X0015100Y0090314D01*
X0014324Y0092189D01*
X0012889Y0093624D01*
X0011256Y0094300D01*
X0012889Y0094976D01*
X0014324Y0096411D01*
X0015100Y0098286D01*
X0015100Y0100314D01*
X0014324Y0102189D01*
X0012889Y0103624D01*
X0011256Y0104300D01*
X0012889Y0104976D01*
X0014324Y0106411D01*
X0015100Y0108286D01*
X0015100Y0110314D01*
X0014324Y0112189D01*
X0012889Y0113624D01*
X0011256Y0114300D01*
X0012889Y0114976D01*
X0014324Y0116411D01*
X0015100Y0118286D01*
X0015100Y0120314D01*
X0014324Y0122189D01*
X0012889Y0123624D01*
X0011256Y0124300D01*
X0012889Y0124976D01*
X0014324Y0126411D01*
X0015100Y0128286D01*
X0015100Y0130314D01*
X0014324Y0132189D01*
X0012889Y0133624D01*
X0011256Y0134300D01*
X0012889Y0134976D01*
X0014324Y0136411D01*
X0015100Y0138286D01*
X0015100Y0140314D01*
X0014324Y0142189D01*
X0012889Y0143624D01*
X0011479Y0144208D01*
X0012034Y0144388D01*
X0012778Y0144767D01*
X0013453Y0145257D01*
X0014043Y0145847D01*
X0014533Y0146522D01*
X0014912Y0147266D01*
X0015169Y0148059D01*
X0015300Y0148883D01*
X0015300Y0149116D01*
X0010184Y0149116D01*
X0010184Y0149484D01*
X0015300Y0149484D01*
X0015300Y0149717D01*
X0015169Y0150541D01*
X0014912Y0151334D01*
X0014533Y0152078D01*
X0014043Y0152753D01*
X0013453Y0153343D01*
X0012778Y0153833D01*
X0012034Y0154212D01*
X0011479Y0154392D01*
X0012889Y0154976D01*
X0014324Y0156411D01*
X0015100Y0158286D01*
X0015100Y0160314D01*
X0014324Y0162189D01*
X0012889Y0163624D01*
X0011256Y0164300D01*
X0012889Y0164976D01*
X0014324Y0166411D01*
X0014650Y0167200D01*
X0035400Y0167200D01*
X0035400Y0095650D01*
X0034094Y0095650D01*
X0032900Y0094456D01*
X0032900Y0090144D01*
X0033612Y0089431D01*
X0033564Y0089403D01*
X0033147Y0088986D01*
X0032852Y0088476D01*
X0032700Y0087907D01*
X0032700Y0086375D01*
X0036175Y0086375D01*
X0036175Y0086225D01*
X0036325Y0086225D01*
X0036325Y0082750D01*
X0037857Y0082750D01*
X0038426Y0082902D01*
X0038525Y0082960D01*
X0038525Y0082180D01*
X0041025Y0079680D01*
X0042255Y0078450D01*
X0043769Y0078450D01*
X0043650Y0078331D01*
X0043650Y0074019D01*
X0044844Y0072825D01*
X0049156Y0072825D01*
X0049869Y0073537D01*
X0049897Y0073489D01*
X0050314Y0073072D01*
X0050824Y0072777D01*
X0051393Y0072625D01*
X0052925Y0072625D01*
X0052925Y0076100D01*
X0053075Y0076100D01*
X0053075Y0076250D01*
X0052925Y0076250D01*
X0052925Y0079725D01*
X0052283Y0079725D01*
X0052577Y0080020D01*
X0052993Y0080020D01*
X0053451Y0080142D01*
X0053585Y0080220D01*
X0054993Y0080220D01*
X0055931Y0081157D01*
X0055931Y0082762D01*
X0056492Y0082200D01*
X0062120Y0082200D01*
X0062812Y0082893D01*
X0069150Y0076555D01*
X0069150Y0063420D01*
X0064800Y0059070D01*
X0064800Y0060157D01*
X0064648Y0060726D01*
X0064353Y0061236D01*
X0063936Y0061653D01*
X0063426Y0061948D01*
X0062857Y0062100D01*
X0061325Y0062100D01*
X0061325Y0058625D01*
X0061175Y0058625D01*
X0061175Y0062100D01*
X0059643Y0062100D01*
X0059074Y0061948D01*
X0058564Y0061653D01*
X0058147Y0061236D01*
X0057852Y0060726D01*
X0057700Y0060157D01*
X0057700Y0058625D01*
X0061175Y0058625D01*
X0061175Y0058475D01*
X0057700Y0058475D01*
X0057700Y0056943D01*
X0057852Y0056374D01*
X0058147Y0055864D01*
X0058564Y0055447D01*
X0058612Y0055419D01*
X0057900Y0054706D01*
X0057900Y0050394D01*
X0058012Y0050282D01*
X0057880Y0050150D01*
X0056289Y0050150D01*
X0056328Y0050293D01*
X0056328Y0051514D01*
X0053839Y0051514D01*
X0053839Y0051515D01*
X0053839Y0051515D01*
X0053839Y0054299D01*
X0054765Y0054299D01*
X0055222Y0054176D01*
X0055633Y0053939D01*
X0055968Y0053604D01*
X0056205Y0053194D01*
X0056328Y0052736D01*
X0056328Y0051515D01*
X0053839Y0051515D01*
X0053839Y0054299D01*
X0053360Y0054299D01*
X0053360Y0055160D01*
X0051519Y0057001D01*
X0055190Y0057001D01*
X0056128Y0057938D01*
X0056128Y0061232D01*
X0055939Y0061421D01*
X0055939Y0061424D01*
X0056786Y0062271D01*
X0057331Y0063588D01*
X0057331Y0065012D01*
X0056786Y0066329D01*
X0055779Y0067336D01*
X0054462Y0067881D01*
X0053038Y0067881D01*
X0051721Y0067336D01*
X0051250Y0066864D01*
X0050779Y0067336D01*
X0049462Y0067881D01*
X0048038Y0067881D01*
X0046721Y0067336D01*
X0045714Y0066329D01*
X0045169Y0065012D01*
X0045169Y0063588D01*
X0045673Y0062370D01*
X0045235Y0062370D01*
X0044778Y0062247D01*
X0044367Y0062010D01*
X0044032Y0061675D01*
X0043795Y0061264D01*
X0043672Y0060807D01*
X0043672Y0059585D01*
X0043672Y0058364D01*
X0043795Y0057906D01*
X0044032Y0057496D01*
X0044367Y0057161D01*
X0044778Y0056924D01*
X0045235Y0056801D01*
X0046161Y0056801D01*
X0046161Y0059585D01*
X0046161Y0059585D01*
X0043672Y0059585D01*
X0046161Y0059585D01*
X0046161Y0059585D01*
X0046161Y0056801D01*
X0046620Y0056801D01*
X0046620Y0055960D01*
X0047851Y0054730D01*
X0048281Y0054299D01*
X0047795Y0054299D01*
X0047337Y0054176D01*
X0047203Y0054099D01*
X0044810Y0054099D01*
X0044325Y0053615D01*
X0042100Y0053615D01*
X0042100Y0054706D01*
X0041388Y0055419D01*
X0041436Y0055447D01*
X0041853Y0055864D01*
X0042148Y0056374D01*
X0042300Y0056943D01*
X0042300Y0058475D01*
X0038825Y0058475D01*
X0038825Y0058625D01*
X0038675Y0058625D01*
X0038675Y0062100D01*
X0037143Y0062100D01*
X0036574Y0061948D01*
X0036064Y0061653D01*
X0035647Y0061236D01*
X0035352Y0060726D01*
X0035200Y0060157D01*
X0035200Y0058625D01*
X0038675Y0058625D01*
X0038675Y0058475D01*
X0035200Y0058475D01*
X0035200Y0056943D01*
X0035352Y0056374D01*
X0035647Y0055864D01*
X0036064Y0055447D01*
X0036112Y0055419D01*
X0035400Y0054706D01*
X0035400Y0050394D01*
X0036594Y0049200D01*
X0040906Y0049200D01*
X0041121Y0049415D01*
X0044061Y0049415D01*
X0044061Y0048519D01*
X0045292Y0047289D01*
X0045400Y0047180D01*
X0045400Y0042650D01*
X0044844Y0042650D01*
X0043650Y0041456D01*
X0043650Y0037144D01*
X0044844Y0035950D01*
X0045400Y0035950D01*
X0045400Y0032650D01*
X0044844Y0032650D01*
X0043650Y0031456D01*
X0043650Y0027144D01*
X0044844Y0025950D01*
X0049156Y0025950D01*
X0050000Y0026794D01*
X0050844Y0025950D01*
X0055156Y0025950D01*
X0056096Y0026890D01*
X0056721Y0026264D01*
X0058038Y0025719D01*
X0059462Y0025719D01*
X0060779Y0026264D01*
X0061786Y0027271D01*
X0062331Y0028588D01*
X0062331Y0030012D01*
X0061786Y0031329D01*
X0060779Y0032336D01*
X0059462Y0032881D01*
X0058038Y0032881D01*
X0056721Y0032336D01*
X0056096Y0031710D01*
X0055156Y0032650D01*
X0050844Y0032650D01*
X0050000Y0031806D01*
X0049600Y0032206D01*
X0049600Y0036394D01*
X0050000Y0036794D01*
X0050844Y0035950D01*
X0055156Y0035950D01*
X0056096Y0036890D01*
X0056721Y0036264D01*
X0058038Y0035719D01*
X0059462Y0035719D01*
X0060779Y0036264D01*
X0061786Y0037271D01*
X0062331Y0038588D01*
X0062331Y0040012D01*
X0061786Y0041329D01*
X0060779Y0042336D01*
X0059462Y0042881D01*
X0058038Y0042881D01*
X0056721Y0042336D01*
X0056096Y0041710D01*
X0055156Y0042650D01*
X0050844Y0042650D01*
X0050000Y0041806D01*
X0049600Y0042206D01*
X0049600Y0045950D01*
X0050870Y0045950D01*
X0051250Y0046330D01*
X0051630Y0045950D01*
X0059620Y0045950D01*
X0062120Y0048450D01*
X0062870Y0049200D01*
X0063406Y0049200D01*
X0064600Y0050394D01*
X0064600Y0052930D01*
X0072120Y0060450D01*
X0073350Y0061680D01*
X0073350Y0136420D01*
X0040720Y0169050D01*
X0042422Y0167348D02*
X0090151Y0167348D01*
X0090151Y0165750D02*
X0044020Y0165750D01*
X0045619Y0164151D02*
X0090151Y0164151D01*
X0090151Y0162553D02*
X0047217Y0162553D01*
X0048816Y0160954D02*
X0090151Y0160954D01*
X0090151Y0159356D02*
X0050414Y0159356D01*
X0052013Y0157757D02*
X0090151Y0157757D01*
X0090151Y0156159D02*
X0053611Y0156159D01*
X0055210Y0154560D02*
X0090151Y0154560D01*
X0090151Y0152962D02*
X0056808Y0152962D01*
X0058407Y0151363D02*
X0090151Y0151363D01*
X0090151Y0149765D02*
X0060005Y0149765D01*
X0061604Y0148166D02*
X0090151Y0148166D01*
X0090151Y0146568D02*
X0063202Y0146568D01*
X0064801Y0144969D02*
X0090151Y0144969D01*
X0086858Y0143370D02*
X0066399Y0143370D01*
X0067998Y0141772D02*
X0085504Y0141772D01*
X0084900Y0140173D02*
X0069596Y0140173D01*
X0071195Y0138575D02*
X0084900Y0138575D01*
X0083717Y0136976D02*
X0072793Y0136976D01*
X0073350Y0135378D02*
X0082118Y0135378D01*
X0080520Y0133779D02*
X0073350Y0133779D01*
X0073350Y0132181D02*
X0078921Y0132181D01*
X0078450Y0130582D02*
X0073350Y0130582D01*
X0073350Y0128984D02*
X0078450Y0128984D01*
X0078450Y0127385D02*
X0073350Y0127385D01*
X0073350Y0125787D02*
X0078450Y0125787D01*
X0078450Y0124188D02*
X0073350Y0124188D01*
X0073350Y0122590D02*
X0078450Y0122590D01*
X0078450Y0120991D02*
X0073350Y0120991D01*
X0073350Y0119393D02*
X0078450Y0119393D01*
X0078450Y0117794D02*
X0073350Y0117794D01*
X0073350Y0116196D02*
X0078450Y0116196D01*
X0078450Y0114597D02*
X0073350Y0114597D01*
X0073350Y0112999D02*
X0078450Y0112999D01*
X0078450Y0111400D02*
X0073350Y0111400D01*
X0073350Y0109802D02*
X0078450Y0109802D01*
X0078450Y0108203D02*
X0073350Y0108203D01*
X0073350Y0106605D02*
X0078450Y0106605D01*
X0078450Y0105006D02*
X0073350Y0105006D01*
X0073350Y0103408D02*
X0078450Y0103408D01*
X0078450Y0101809D02*
X0073350Y0101809D01*
X0073350Y0100211D02*
X0078450Y0100211D01*
X0078450Y0098612D02*
X0073350Y0098612D01*
X0073350Y0097014D02*
X0078450Y0097014D01*
X0078450Y0095415D02*
X0073350Y0095415D01*
X0073350Y0093817D02*
X0078450Y0093817D01*
X0078450Y0092218D02*
X0073350Y0092218D01*
X0073350Y0090620D02*
X0078450Y0090620D01*
X0078450Y0089021D02*
X0073350Y0089021D01*
X0073350Y0087423D02*
X0078450Y0087423D01*
X0078450Y0085824D02*
X0073350Y0085824D01*
X0073350Y0084226D02*
X0078450Y0084226D01*
X0078450Y0082627D02*
X0073350Y0082627D01*
X0073350Y0081029D02*
X0078450Y0081029D01*
X0078450Y0079430D02*
X0073350Y0079430D01*
X0073350Y0077832D02*
X0078450Y0077832D01*
X0078450Y0076233D02*
X0073350Y0076233D01*
X0073350Y0074634D02*
X0078450Y0074634D01*
X0078450Y0073036D02*
X0073350Y0073036D01*
X0073350Y0071437D02*
X0078450Y0071437D01*
X0078450Y0069839D02*
X0073350Y0069839D01*
X0073350Y0068240D02*
X0078450Y0068240D01*
X0078450Y0066642D02*
X0073350Y0066642D01*
X0073350Y0065043D02*
X0078450Y0065043D01*
X0078450Y0063445D02*
X0073350Y0063445D01*
X0073350Y0061846D02*
X0078450Y0061846D01*
X0078450Y0060248D02*
X0071918Y0060248D01*
X0070319Y0058649D02*
X0078450Y0058649D01*
X0078450Y0057051D02*
X0068721Y0057051D01*
X0067122Y0055452D02*
X0078450Y0055452D01*
X0078450Y0053854D02*
X0065524Y0053854D01*
X0064600Y0052255D02*
X0078450Y0052255D01*
X0078450Y0050657D02*
X0064600Y0050657D01*
X0062728Y0049058D02*
X0078450Y0049058D01*
X0078450Y0047460D02*
X0061130Y0047460D01*
X0059986Y0042664D02*
X0078450Y0042664D01*
X0078450Y0044263D02*
X0049600Y0044263D01*
X0049600Y0045861D02*
X0078450Y0045861D01*
X0077806Y0041066D02*
X0061895Y0041066D01*
X0062331Y0039467D02*
X0076207Y0039467D01*
X0074609Y0037869D02*
X0062033Y0037869D01*
X0060785Y0036270D02*
X0073010Y0036270D01*
X0071412Y0034672D02*
X0049600Y0034672D01*
X0049600Y0036270D02*
X0050523Y0036270D01*
X0049600Y0033073D02*
X0069813Y0033073D01*
X0068215Y0031475D02*
X0061640Y0031475D01*
X0062331Y0029876D02*
X0066616Y0029876D01*
X0065018Y0028278D02*
X0062203Y0028278D01*
X0061194Y0026679D02*
X0063419Y0026679D01*
X0061821Y0025081D02*
X0012993Y0025081D01*
X0011559Y0023482D02*
X0009800Y0023482D01*
X0013439Y0033073D02*
X0045400Y0033073D01*
X0045400Y0034672D02*
X0012153Y0034672D01*
X0014183Y0036270D02*
X0044523Y0036270D01*
X0043650Y0037869D02*
X0014927Y0037869D01*
X0015100Y0039467D02*
X0043650Y0039467D01*
X0043650Y0041066D02*
X0014789Y0041066D01*
X0013848Y0042664D02*
X0045400Y0042664D01*
X0045400Y0044263D02*
X0011346Y0044263D01*
X0013774Y0045861D02*
X0045400Y0045861D01*
X0045120Y0047460D02*
X0014758Y0047460D01*
X0015100Y0049058D02*
X0044061Y0049058D01*
X0044565Y0053854D02*
X0042100Y0053854D01*
X0041442Y0055452D02*
X0047128Y0055452D01*
X0046161Y0057051D02*
X0046161Y0057051D01*
X0046161Y0058649D02*
X0046161Y0058649D01*
X0044558Y0057051D02*
X0042300Y0057051D01*
X0042300Y0058625D02*
X0042300Y0060157D01*
X0042148Y0060726D01*
X0041853Y0061236D01*
X0041436Y0061653D01*
X0040926Y0061948D01*
X0040357Y0062100D01*
X0038825Y0062100D01*
X0038825Y0058625D01*
X0042300Y0058625D01*
X0042300Y0058649D02*
X0043672Y0058649D01*
X0043672Y0060248D02*
X0042276Y0060248D01*
X0041101Y0061846D02*
X0044204Y0061846D01*
X0045228Y0063445D02*
X0013068Y0063445D01*
X0012956Y0065043D02*
X0045182Y0065043D01*
X0046028Y0066642D02*
X0014419Y0066642D01*
X0015081Y0068240D02*
X0069150Y0068240D01*
X0069150Y0066642D02*
X0056472Y0066642D01*
X0057318Y0065043D02*
X0069150Y0065043D01*
X0069150Y0063445D02*
X0057272Y0063445D01*
X0056361Y0061846D02*
X0058899Y0061846D01*
X0057724Y0060248D02*
X0056128Y0060248D01*
X0056128Y0058649D02*
X0057700Y0058649D01*
X0057700Y0057051D02*
X0055240Y0057051D01*
X0053067Y0055452D02*
X0058558Y0055452D01*
X0057900Y0053854D02*
X0055718Y0053854D01*
X0056328Y0052255D02*
X0057900Y0052255D01*
X0057900Y0050657D02*
X0056328Y0050657D01*
X0053839Y0052255D02*
X0053839Y0052255D01*
X0053839Y0053854D02*
X0053839Y0053854D01*
X0057514Y0042664D02*
X0049600Y0042664D01*
X0055477Y0036270D02*
X0056715Y0036270D01*
X0056306Y0026679D02*
X0055886Y0026679D01*
X0058624Y0021884D02*
X0021276Y0021884D01*
X0022874Y0020285D02*
X0057025Y0020285D01*
X0055427Y0018687D02*
X0023790Y0018687D01*
X0024453Y0017088D02*
X0053828Y0017088D01*
X0052230Y0015490D02*
X0024800Y0015490D01*
X0024800Y0013891D02*
X0036962Y0013891D01*
X0035376Y0012293D02*
X0024776Y0012293D01*
X0024114Y0010694D02*
X0034670Y0010694D01*
X0039800Y0010694D02*
X0040200Y0010694D01*
X0040200Y0012293D02*
X0039800Y0012293D01*
X0039800Y0013891D02*
X0040200Y0013891D01*
X0043038Y0013891D02*
X0047234Y0013891D01*
X0045503Y0012293D02*
X0044624Y0012293D01*
X0044114Y0026679D02*
X0014435Y0026679D01*
X0015097Y0028278D02*
X0043650Y0028278D01*
X0043650Y0029876D02*
X0015100Y0029876D01*
X0014619Y0031475D02*
X0043668Y0031475D01*
X0049886Y0026679D02*
X0050114Y0026679D01*
X0060222Y0023482D02*
X0018441Y0023482D01*
X0014958Y0050657D02*
X0035400Y0050657D01*
X0035400Y0052255D02*
X0014257Y0052255D01*
X0012333Y0053854D02*
X0035400Y0053854D01*
X0036058Y0055452D02*
X0013365Y0055452D01*
X0014589Y0057051D02*
X0035200Y0057051D01*
X0035200Y0058649D02*
X0015100Y0058649D01*
X0015100Y0060248D02*
X0035224Y0060248D01*
X0036399Y0061846D02*
X0014465Y0061846D01*
X0015100Y0069839D02*
X0069150Y0069839D01*
X0069150Y0071437D02*
X0014635Y0071437D01*
X0013476Y0073036D02*
X0044633Y0073036D01*
X0043650Y0074634D02*
X0012063Y0074634D01*
X0014145Y0076233D02*
X0043650Y0076233D01*
X0043650Y0077832D02*
X0014912Y0077832D01*
X0015100Y0079430D02*
X0041275Y0079430D01*
X0039677Y0081029D02*
X0014804Y0081029D01*
X0013885Y0082627D02*
X0038525Y0082627D01*
X0036325Y0084226D02*
X0036175Y0084226D01*
X0036175Y0082750D02*
X0034643Y0082750D01*
X0034074Y0082902D01*
X0033564Y0083197D01*
X0033147Y0083614D01*
X0032852Y0084124D01*
X0032700Y0084693D01*
X0032700Y0086225D01*
X0036175Y0086225D01*
X0036175Y0082750D01*
X0036175Y0085824D02*
X0036325Y0085824D01*
X0033182Y0089021D02*
X0015100Y0089021D01*
X0014974Y0090620D02*
X0032900Y0090620D01*
X0032900Y0092218D02*
X0014294Y0092218D01*
X0013328Y0095415D02*
X0033859Y0095415D01*
X0032900Y0093817D02*
X0012423Y0093817D01*
X0014573Y0097014D02*
X0035400Y0097014D01*
X0035400Y0098612D02*
X0015100Y0098612D01*
X0015100Y0100211D02*
X0035400Y0100211D01*
X0035400Y0101809D02*
X0014481Y0101809D01*
X0013105Y0103408D02*
X0035400Y0103408D01*
X0035400Y0105006D02*
X0012919Y0105006D01*
X0014404Y0106605D02*
X0035400Y0106605D01*
X0035400Y0108203D02*
X0015066Y0108203D01*
X0015100Y0109802D02*
X0035400Y0109802D01*
X0035400Y0111400D02*
X0014650Y0111400D01*
X0013514Y0112999D02*
X0035400Y0112999D01*
X0035400Y0114597D02*
X0011974Y0114597D01*
X0014108Y0116196D02*
X0035400Y0116196D01*
X0035400Y0117794D02*
X0014897Y0117794D01*
X0015100Y0119393D02*
X0035400Y0119393D01*
X0035400Y0120991D02*
X0014820Y0120991D01*
X0013923Y0122590D02*
X0035400Y0122590D01*
X0035400Y0124188D02*
X0011525Y0124188D01*
X0013699Y0125787D02*
X0035400Y0125787D01*
X0035400Y0127385D02*
X0014727Y0127385D01*
X0015100Y0128984D02*
X0035400Y0128984D01*
X0035400Y0130582D02*
X0014989Y0130582D01*
X0014327Y0132181D02*
X0035400Y0132181D01*
X0035400Y0133779D02*
X0012513Y0133779D01*
X0013290Y0135378D02*
X0035400Y0135378D01*
X0035400Y0136976D02*
X0014558Y0136976D01*
X0015100Y0138575D02*
X0035400Y0138575D01*
X0035400Y0140173D02*
X0015100Y0140173D01*
X0014496Y0141772D02*
X0035400Y0141772D01*
X0035400Y0143370D02*
X0013142Y0143370D01*
X0013056Y0144969D02*
X0035400Y0144969D01*
X0035400Y0146568D02*
X0014556Y0146568D01*
X0015186Y0148166D02*
X0035400Y0148166D01*
X0035400Y0149765D02*
X0015292Y0149765D01*
X0014897Y0151363D02*
X0035400Y0151363D01*
X0035400Y0152962D02*
X0013834Y0152962D01*
X0014071Y0156159D02*
X0035400Y0156159D01*
X0035400Y0157757D02*
X0014881Y0157757D01*
X0015100Y0159356D02*
X0035400Y0159356D01*
X0035400Y0160954D02*
X0014835Y0160954D01*
X0013960Y0162553D02*
X0035400Y0162553D01*
X0035400Y0164151D02*
X0011615Y0164151D01*
X0013662Y0165750D02*
X0035400Y0165750D01*
X0035400Y0154560D02*
X0011884Y0154560D01*
X0014512Y0181735D02*
X0027772Y0181735D01*
X0029371Y0183333D02*
X0013179Y0183333D01*
X0009800Y0184932D02*
X0030969Y0184932D01*
X0032568Y0186530D02*
X0020022Y0186530D01*
X0021698Y0188129D02*
X0034166Y0188129D01*
X0035765Y0189727D02*
X0022956Y0189727D01*
X0023618Y0191326D02*
X0037363Y0191326D01*
X0038962Y0192924D02*
X0024100Y0192924D01*
X0024100Y0194523D02*
X0040132Y0194523D01*
X0040132Y0196121D02*
X0024095Y0196121D01*
X0023433Y0197720D02*
X0040132Y0197720D01*
X0046482Y0197720D02*
X0053318Y0197720D01*
X0053318Y0197883D02*
X0053318Y0194300D01*
X0056693Y0194300D01*
X0060068Y0194300D01*
X0060068Y0190717D01*
X0059945Y0190259D01*
X0059708Y0189848D01*
X0059373Y0189513D01*
X0058962Y0189276D01*
X0058505Y0189154D01*
X0056693Y0189154D01*
X0056693Y0194300D01*
X0056693Y0194300D01*
X0060068Y0194300D01*
X0060068Y0197883D01*
X0059945Y0198341D01*
X0059708Y0198752D01*
X0059373Y0199087D01*
X0058962Y0199324D01*
X0058505Y0199446D01*
X0056693Y0199446D01*
X0056693Y0194300D01*
X0056693Y0194300D01*
X0056693Y0194300D01*
X0056693Y0199446D01*
X0054881Y0199446D01*
X0054423Y0199324D01*
X0054013Y0199087D01*
X0053678Y0198752D01*
X0053441Y0198341D01*
X0053318Y0197883D01*
X0053318Y0196121D02*
X0046482Y0196121D01*
X0046482Y0194523D02*
X0053318Y0194523D01*
X0053318Y0194300D02*
X0053318Y0190717D01*
X0053441Y0190259D01*
X0053678Y0189848D01*
X0054013Y0189513D01*
X0054423Y0189276D01*
X0054881Y0189154D01*
X0056693Y0189154D01*
X0056693Y0194300D01*
X0053318Y0194300D01*
X0053318Y0192924D02*
X0047653Y0192924D01*
X0049100Y0191326D02*
X0053318Y0191326D01*
X0053799Y0189727D02*
X0049100Y0189727D01*
X0049100Y0188129D02*
X0078302Y0188129D01*
X0077044Y0189727D02*
X0059587Y0189727D01*
X0060068Y0191326D02*
X0076382Y0191326D01*
X0075900Y0192924D02*
X0060068Y0192924D01*
X0060068Y0194523D02*
X0075900Y0194523D01*
X0075905Y0196121D02*
X0060068Y0196121D01*
X0060068Y0197720D02*
X0076567Y0197720D01*
X0077229Y0199318D02*
X0058972Y0199318D01*
X0056693Y0199318D02*
X0056693Y0199318D01*
X0056693Y0197720D02*
X0056693Y0197720D01*
X0056693Y0196121D02*
X0056693Y0196121D01*
X0056693Y0194523D02*
X0056693Y0194523D01*
X0056693Y0194300D02*
X0056693Y0194300D01*
X0056693Y0192924D02*
X0056693Y0192924D01*
X0056693Y0191326D02*
X0056693Y0191326D01*
X0056693Y0189727D02*
X0056693Y0189727D01*
X0056276Y0186530D02*
X0079978Y0186530D01*
X0090022Y0186530D02*
X0090151Y0186530D01*
X0090151Y0184932D02*
X0056350Y0184932D01*
X0056350Y0183333D02*
X0090151Y0183333D01*
X0090151Y0181735D02*
X0055941Y0181735D01*
X0051806Y0180136D02*
X0090151Y0180136D01*
X0090151Y0178538D02*
X0050208Y0178538D01*
X0048609Y0176939D02*
X0090151Y0176939D01*
X0090151Y0175341D02*
X0047011Y0175341D01*
X0045412Y0173742D02*
X0090151Y0173742D01*
X0090151Y0172144D02*
X0043814Y0172144D01*
X0054414Y0199318D02*
X0022771Y0199318D01*
X0009978Y0186530D02*
X0009800Y0186530D01*
X0049582Y0105006D02*
X0052855Y0105006D01*
X0054783Y0105006D02*
X0069150Y0105006D01*
X0069150Y0103408D02*
X0056917Y0103408D01*
X0057400Y0101809D02*
X0069150Y0101809D01*
X0069150Y0100211D02*
X0057149Y0100211D01*
X0055966Y0098612D02*
X0069150Y0098612D01*
X0069150Y0097014D02*
X0055931Y0097014D01*
X0056299Y0095415D02*
X0056299Y0095415D01*
X0056299Y0093817D02*
X0056299Y0093817D01*
X0057775Y0095415D02*
X0059835Y0095415D01*
X0062425Y0095415D02*
X0062575Y0095415D01*
X0062575Y0093817D02*
X0062425Y0093817D01*
X0065165Y0095415D02*
X0069150Y0095415D01*
X0069150Y0093817D02*
X0066050Y0093817D01*
X0066050Y0092218D02*
X0069150Y0092218D01*
X0069150Y0090620D02*
X0066030Y0090620D01*
X0065285Y0089021D02*
X0069150Y0089021D01*
X0069150Y0087423D02*
X0065850Y0087423D01*
X0065850Y0085824D02*
X0069150Y0085824D01*
X0069150Y0084226D02*
X0067419Y0084226D01*
X0069018Y0082627D02*
X0069150Y0082627D01*
X0067874Y0077832D02*
X0056537Y0077832D01*
X0056550Y0077782D02*
X0056398Y0078351D01*
X0056103Y0078861D01*
X0055686Y0079278D01*
X0055176Y0079573D01*
X0054607Y0079725D01*
X0053075Y0079725D01*
X0053075Y0076250D01*
X0056550Y0076250D01*
X0056550Y0077782D01*
X0056550Y0076100D02*
X0053075Y0076100D01*
X0053075Y0072625D01*
X0054607Y0072625D01*
X0055176Y0072777D01*
X0055686Y0073072D01*
X0056103Y0073489D01*
X0056398Y0073999D01*
X0056550Y0074568D01*
X0056550Y0076100D01*
X0056550Y0074634D02*
X0069150Y0074634D01*
X0069150Y0073036D02*
X0055624Y0073036D01*
X0053075Y0073036D02*
X0052925Y0073036D01*
X0052925Y0074634D02*
X0053075Y0074634D01*
X0053075Y0076233D02*
X0069150Y0076233D01*
X0066275Y0079430D02*
X0055423Y0079430D01*
X0055802Y0081029D02*
X0064677Y0081029D01*
X0063078Y0082627D02*
X0062547Y0082627D01*
X0056065Y0082627D02*
X0055931Y0082627D01*
X0053075Y0079430D02*
X0052925Y0079430D01*
X0052925Y0077832D02*
X0053075Y0077832D01*
X0050376Y0073036D02*
X0049367Y0073036D01*
X0038825Y0061846D02*
X0038675Y0061846D01*
X0038675Y0060248D02*
X0038825Y0060248D01*
X0038825Y0058649D02*
X0038675Y0058649D01*
X0032825Y0084226D02*
X0011436Y0084226D01*
X0013737Y0085824D02*
X0032700Y0085824D01*
X0032700Y0087423D02*
X0014743Y0087423D01*
X0061175Y0061846D02*
X0061325Y0061846D01*
X0061325Y0060248D02*
X0061175Y0060248D01*
X0061175Y0058649D02*
X0061325Y0058649D01*
X0063601Y0061846D02*
X0067577Y0061846D01*
X0065978Y0060248D02*
X0064776Y0060248D01*
D21*
X0061220Y0058896D02*
X0061250Y0058550D01*
X0061220Y0058896D02*
X0053839Y0051515D01*
X0053839Y0051711D01*
X0053750Y0051800D01*
X0051280Y0049270D02*
X0052500Y0048050D01*
X0058750Y0048050D01*
X0061250Y0050550D01*
X0061250Y0052550D01*
X0071250Y0062550D01*
X0071250Y0077425D01*
X0062500Y0086175D01*
X0062500Y0086300D01*
X0062500Y0085550D01*
X0061250Y0084300D01*
X0057362Y0084300D01*
X0056299Y0085363D01*
X0052362Y0084507D02*
X0052362Y0083001D01*
X0052362Y0077438D01*
X0053000Y0076175D01*
X0050669Y0081081D02*
X0046654Y0077066D01*
X0047000Y0076175D01*
X0046875Y0080550D02*
X0047500Y0081175D01*
X0047500Y0082863D01*
X0047638Y0083001D01*
X0049213Y0083001D02*
X0049291Y0083080D01*
X0049291Y0084428D01*
X0050079Y0085215D01*
X0051654Y0085215D01*
X0052362Y0084507D01*
X0050787Y0083001D02*
X0050669Y0082883D01*
X0050669Y0081081D01*
X0046875Y0080550D02*
X0043125Y0080550D01*
X0040625Y0083050D01*
X0040625Y0091800D01*
X0042062Y0093237D01*
X0043701Y0093237D01*
X0037313Y0093237D01*
X0037500Y0093050D01*
X0037500Y0169300D01*
X0071250Y0135550D01*
X0071250Y0077425D01*
X0062500Y0092300D02*
X0062500Y0093050D01*
X0061250Y0094300D01*
X0057362Y0094300D01*
X0056299Y0093237D01*
X0050300Y0098011D02*
X0053819Y0101529D01*
X0050300Y0098011D02*
X0048701Y0098011D01*
X0047638Y0096948D01*
X0047638Y0095599D01*
X0046063Y0095599D02*
X0046063Y0099379D01*
X0048179Y0101495D01*
X0048701Y0101495D01*
X0037313Y0093237D02*
X0037187Y0093237D01*
X0036250Y0092300D01*
X0048750Y0064300D02*
X0051250Y0061800D01*
X0051250Y0059615D01*
X0051280Y0059585D01*
X0048720Y0059585D02*
X0048720Y0056830D01*
X0051260Y0054290D01*
X0051260Y0051534D01*
X0051280Y0051515D01*
X0051250Y0051485D01*
X0051250Y0049300D01*
X0050000Y0048050D01*
X0047500Y0048050D01*
X0047500Y0040146D01*
X0047000Y0039300D01*
X0047500Y0038454D01*
X0047500Y0030550D01*
X0046654Y0029704D01*
X0047000Y0029300D01*
X0053000Y0029300D02*
X0058750Y0029300D01*
X0058750Y0039300D02*
X0053000Y0039300D01*
X0053750Y0039704D01*
X0051280Y0049270D02*
X0051280Y0051515D01*
X0048720Y0051515D02*
X0048720Y0054330D01*
X0046250Y0056800D01*
X0046250Y0059497D01*
X0046161Y0059585D01*
X0038189Y0059585D01*
X0038750Y0058550D01*
X0038750Y0052550D02*
X0038189Y0051515D01*
X0046161Y0051515D01*
X0046161Y0049389D01*
X0047500Y0048050D01*
X0053839Y0059585D02*
X0053839Y0064211D01*
X0053750Y0064300D01*
X0085000Y0034300D02*
X0060000Y0009300D01*
X0085000Y0034300D02*
X0085000Y0054300D01*
X0090000Y0059300D01*
X0038000Y0169300D02*
X0053000Y0184300D01*
X0047000Y0184300D02*
X0047000Y0190607D01*
X0043307Y0194300D01*
X0028307Y0179300D01*
X0010000Y0179300D01*
X0010000Y0169300D02*
X0037500Y0169300D01*
X0038000Y0169300D01*
D22*
X0048701Y0101495D03*
X0053819Y0101529D03*
X0062500Y0098050D03*
X0053750Y0064300D03*
X0048750Y0064300D03*
X0058750Y0039300D03*
X0058750Y0029300D03*
D23*
X0050000Y0009300D02*
X0081250Y0040550D01*
X0081250Y0130550D01*
X0090000Y0139300D01*
M02*
