G75*
%MOIN*%
%OFA0B0*%
%FSLAX25Y25*%
%IPPOS*%
%LPD*%
%AMOC8*
5,1,8,0,0,1.08239X$1,22.5*
%
%ADD10C,0.00000*%
%ADD11C,0.00400*%
%ADD12C,0.00200*%
%ADD13C,0.01500*%
%ADD14C,0.00100*%
%ADD15C,0.00800*%
%ADD16C,0.00591*%
%ADD17R,0.01500X0.03000*%
%ADD18C,0.00500*%
%ADD19C,0.00300*%
%ADD20C,0.01000*%
%ADD21C,0.02500*%
%ADD22C,0.00700*%
D10*
X0005000Y0004300D02*
X0005000Y0204261D01*
X0094951Y0204261D01*
X0094951Y0004300D01*
X0005000Y0004300D01*
X0005000Y0014300D02*
X0005000Y0194300D01*
X0005003Y0194542D01*
X0005012Y0194783D01*
X0005026Y0195024D01*
X0005047Y0195265D01*
X0005073Y0195505D01*
X0005105Y0195745D01*
X0005143Y0195984D01*
X0005186Y0196221D01*
X0005236Y0196458D01*
X0005291Y0196693D01*
X0005351Y0196927D01*
X0005418Y0197159D01*
X0005489Y0197390D01*
X0005567Y0197619D01*
X0005650Y0197846D01*
X0005738Y0198071D01*
X0005832Y0198294D01*
X0005931Y0198514D01*
X0006036Y0198732D01*
X0006145Y0198947D01*
X0006260Y0199160D01*
X0006380Y0199370D01*
X0006505Y0199576D01*
X0006635Y0199780D01*
X0006770Y0199981D01*
X0006910Y0200178D01*
X0007054Y0200372D01*
X0007203Y0200562D01*
X0007357Y0200748D01*
X0007515Y0200931D01*
X0007677Y0201110D01*
X0007844Y0201285D01*
X0008015Y0201456D01*
X0008190Y0201623D01*
X0008369Y0201785D01*
X0008552Y0201943D01*
X0008738Y0202097D01*
X0008928Y0202246D01*
X0009122Y0202390D01*
X0009319Y0202530D01*
X0009520Y0202665D01*
X0009724Y0202795D01*
X0009930Y0202920D01*
X0010140Y0203040D01*
X0010353Y0203155D01*
X0010568Y0203264D01*
X0010786Y0203369D01*
X0011006Y0203468D01*
X0011229Y0203562D01*
X0011454Y0203650D01*
X0011681Y0203733D01*
X0011910Y0203811D01*
X0012141Y0203882D01*
X0012373Y0203949D01*
X0012607Y0204009D01*
X0012842Y0204064D01*
X0013079Y0204114D01*
X0013316Y0204157D01*
X0013555Y0204195D01*
X0013795Y0204227D01*
X0014035Y0204253D01*
X0014276Y0204274D01*
X0014517Y0204288D01*
X0014758Y0204297D01*
X0015000Y0204300D01*
X0085000Y0204300D01*
X0085242Y0204297D01*
X0085483Y0204288D01*
X0085724Y0204274D01*
X0085965Y0204253D01*
X0086205Y0204227D01*
X0086445Y0204195D01*
X0086684Y0204157D01*
X0086921Y0204114D01*
X0087158Y0204064D01*
X0087393Y0204009D01*
X0087627Y0203949D01*
X0087859Y0203882D01*
X0088090Y0203811D01*
X0088319Y0203733D01*
X0088546Y0203650D01*
X0088771Y0203562D01*
X0088994Y0203468D01*
X0089214Y0203369D01*
X0089432Y0203264D01*
X0089647Y0203155D01*
X0089860Y0203040D01*
X0090070Y0202920D01*
X0090276Y0202795D01*
X0090480Y0202665D01*
X0090681Y0202530D01*
X0090878Y0202390D01*
X0091072Y0202246D01*
X0091262Y0202097D01*
X0091448Y0201943D01*
X0091631Y0201785D01*
X0091810Y0201623D01*
X0091985Y0201456D01*
X0092156Y0201285D01*
X0092323Y0201110D01*
X0092485Y0200931D01*
X0092643Y0200748D01*
X0092797Y0200562D01*
X0092946Y0200372D01*
X0093090Y0200178D01*
X0093230Y0199981D01*
X0093365Y0199780D01*
X0093495Y0199576D01*
X0093620Y0199370D01*
X0093740Y0199160D01*
X0093855Y0198947D01*
X0093964Y0198732D01*
X0094069Y0198514D01*
X0094168Y0198294D01*
X0094262Y0198071D01*
X0094350Y0197846D01*
X0094433Y0197619D01*
X0094511Y0197390D01*
X0094582Y0197159D01*
X0094649Y0196927D01*
X0094709Y0196693D01*
X0094764Y0196458D01*
X0094814Y0196221D01*
X0094857Y0195984D01*
X0094895Y0195745D01*
X0094927Y0195505D01*
X0094953Y0195265D01*
X0094974Y0195024D01*
X0094988Y0194783D01*
X0094997Y0194542D01*
X0095000Y0194300D01*
X0095000Y0014300D01*
X0080000Y0014300D02*
X0080002Y0014441D01*
X0080008Y0014582D01*
X0080018Y0014722D01*
X0080032Y0014862D01*
X0080050Y0015002D01*
X0080071Y0015141D01*
X0080097Y0015280D01*
X0080126Y0015418D01*
X0080160Y0015554D01*
X0080197Y0015690D01*
X0080238Y0015825D01*
X0080283Y0015959D01*
X0080332Y0016091D01*
X0080384Y0016222D01*
X0080440Y0016351D01*
X0080500Y0016478D01*
X0080563Y0016604D01*
X0080629Y0016728D01*
X0080700Y0016851D01*
X0080773Y0016971D01*
X0080850Y0017089D01*
X0080930Y0017205D01*
X0081014Y0017318D01*
X0081100Y0017429D01*
X0081190Y0017538D01*
X0081283Y0017644D01*
X0081378Y0017747D01*
X0081477Y0017848D01*
X0081578Y0017946D01*
X0081682Y0018041D01*
X0081789Y0018133D01*
X0081898Y0018222D01*
X0082010Y0018307D01*
X0082124Y0018390D01*
X0082240Y0018470D01*
X0082359Y0018546D01*
X0082480Y0018618D01*
X0082602Y0018688D01*
X0082727Y0018753D01*
X0082853Y0018816D01*
X0082981Y0018874D01*
X0083111Y0018929D01*
X0083242Y0018981D01*
X0083375Y0019028D01*
X0083509Y0019072D01*
X0083644Y0019113D01*
X0083780Y0019149D01*
X0083917Y0019181D01*
X0084055Y0019210D01*
X0084193Y0019235D01*
X0084333Y0019255D01*
X0084473Y0019272D01*
X0084613Y0019285D01*
X0084754Y0019294D01*
X0084894Y0019299D01*
X0085035Y0019300D01*
X0085176Y0019297D01*
X0085317Y0019290D01*
X0085457Y0019279D01*
X0085597Y0019264D01*
X0085737Y0019245D01*
X0085876Y0019223D01*
X0086014Y0019196D01*
X0086152Y0019166D01*
X0086288Y0019131D01*
X0086424Y0019093D01*
X0086558Y0019051D01*
X0086692Y0019005D01*
X0086824Y0018956D01*
X0086954Y0018902D01*
X0087083Y0018845D01*
X0087210Y0018785D01*
X0087336Y0018721D01*
X0087459Y0018653D01*
X0087581Y0018582D01*
X0087701Y0018508D01*
X0087818Y0018430D01*
X0087933Y0018349D01*
X0088046Y0018265D01*
X0088157Y0018178D01*
X0088265Y0018087D01*
X0088370Y0017994D01*
X0088473Y0017897D01*
X0088573Y0017798D01*
X0088670Y0017696D01*
X0088764Y0017591D01*
X0088855Y0017484D01*
X0088943Y0017374D01*
X0089028Y0017262D01*
X0089110Y0017147D01*
X0089189Y0017030D01*
X0089264Y0016911D01*
X0089336Y0016790D01*
X0089404Y0016667D01*
X0089469Y0016542D01*
X0089531Y0016415D01*
X0089588Y0016286D01*
X0089643Y0016156D01*
X0089693Y0016025D01*
X0089740Y0015892D01*
X0089783Y0015758D01*
X0089822Y0015622D01*
X0089857Y0015486D01*
X0089889Y0015349D01*
X0089916Y0015211D01*
X0089940Y0015072D01*
X0089960Y0014932D01*
X0089976Y0014792D01*
X0089988Y0014652D01*
X0089996Y0014511D01*
X0090000Y0014370D01*
X0090000Y0014230D01*
X0089996Y0014089D01*
X0089988Y0013948D01*
X0089976Y0013808D01*
X0089960Y0013668D01*
X0089940Y0013528D01*
X0089916Y0013389D01*
X0089889Y0013251D01*
X0089857Y0013114D01*
X0089822Y0012978D01*
X0089783Y0012842D01*
X0089740Y0012708D01*
X0089693Y0012575D01*
X0089643Y0012444D01*
X0089588Y0012314D01*
X0089531Y0012185D01*
X0089469Y0012058D01*
X0089404Y0011933D01*
X0089336Y0011810D01*
X0089264Y0011689D01*
X0089189Y0011570D01*
X0089110Y0011453D01*
X0089028Y0011338D01*
X0088943Y0011226D01*
X0088855Y0011116D01*
X0088764Y0011009D01*
X0088670Y0010904D01*
X0088573Y0010802D01*
X0088473Y0010703D01*
X0088370Y0010606D01*
X0088265Y0010513D01*
X0088157Y0010422D01*
X0088046Y0010335D01*
X0087933Y0010251D01*
X0087818Y0010170D01*
X0087701Y0010092D01*
X0087581Y0010018D01*
X0087459Y0009947D01*
X0087336Y0009879D01*
X0087210Y0009815D01*
X0087083Y0009755D01*
X0086954Y0009698D01*
X0086824Y0009644D01*
X0086692Y0009595D01*
X0086558Y0009549D01*
X0086424Y0009507D01*
X0086288Y0009469D01*
X0086152Y0009434D01*
X0086014Y0009404D01*
X0085876Y0009377D01*
X0085737Y0009355D01*
X0085597Y0009336D01*
X0085457Y0009321D01*
X0085317Y0009310D01*
X0085176Y0009303D01*
X0085035Y0009300D01*
X0084894Y0009301D01*
X0084754Y0009306D01*
X0084613Y0009315D01*
X0084473Y0009328D01*
X0084333Y0009345D01*
X0084193Y0009365D01*
X0084055Y0009390D01*
X0083917Y0009419D01*
X0083780Y0009451D01*
X0083644Y0009487D01*
X0083509Y0009528D01*
X0083375Y0009572D01*
X0083242Y0009619D01*
X0083111Y0009671D01*
X0082981Y0009726D01*
X0082853Y0009784D01*
X0082727Y0009847D01*
X0082602Y0009912D01*
X0082480Y0009982D01*
X0082359Y0010054D01*
X0082240Y0010130D01*
X0082124Y0010210D01*
X0082010Y0010293D01*
X0081898Y0010378D01*
X0081789Y0010467D01*
X0081682Y0010559D01*
X0081578Y0010654D01*
X0081477Y0010752D01*
X0081378Y0010853D01*
X0081283Y0010956D01*
X0081190Y0011062D01*
X0081100Y0011171D01*
X0081014Y0011282D01*
X0080930Y0011395D01*
X0080850Y0011511D01*
X0080773Y0011629D01*
X0080700Y0011749D01*
X0080629Y0011872D01*
X0080563Y0011996D01*
X0080500Y0012122D01*
X0080440Y0012249D01*
X0080384Y0012378D01*
X0080332Y0012509D01*
X0080283Y0012641D01*
X0080238Y0012775D01*
X0080197Y0012910D01*
X0080160Y0013046D01*
X0080126Y0013182D01*
X0080097Y0013320D01*
X0080071Y0013459D01*
X0080050Y0013598D01*
X0080032Y0013738D01*
X0080018Y0013878D01*
X0080008Y0014018D01*
X0080002Y0014159D01*
X0080000Y0014300D01*
X0085000Y0004300D02*
X0085242Y0004303D01*
X0085483Y0004312D01*
X0085724Y0004326D01*
X0085965Y0004347D01*
X0086205Y0004373D01*
X0086445Y0004405D01*
X0086684Y0004443D01*
X0086921Y0004486D01*
X0087158Y0004536D01*
X0087393Y0004591D01*
X0087627Y0004651D01*
X0087859Y0004718D01*
X0088090Y0004789D01*
X0088319Y0004867D01*
X0088546Y0004950D01*
X0088771Y0005038D01*
X0088994Y0005132D01*
X0089214Y0005231D01*
X0089432Y0005336D01*
X0089647Y0005445D01*
X0089860Y0005560D01*
X0090070Y0005680D01*
X0090276Y0005805D01*
X0090480Y0005935D01*
X0090681Y0006070D01*
X0090878Y0006210D01*
X0091072Y0006354D01*
X0091262Y0006503D01*
X0091448Y0006657D01*
X0091631Y0006815D01*
X0091810Y0006977D01*
X0091985Y0007144D01*
X0092156Y0007315D01*
X0092323Y0007490D01*
X0092485Y0007669D01*
X0092643Y0007852D01*
X0092797Y0008038D01*
X0092946Y0008228D01*
X0093090Y0008422D01*
X0093230Y0008619D01*
X0093365Y0008820D01*
X0093495Y0009024D01*
X0093620Y0009230D01*
X0093740Y0009440D01*
X0093855Y0009653D01*
X0093964Y0009868D01*
X0094069Y0010086D01*
X0094168Y0010306D01*
X0094262Y0010529D01*
X0094350Y0010754D01*
X0094433Y0010981D01*
X0094511Y0011210D01*
X0094582Y0011441D01*
X0094649Y0011673D01*
X0094709Y0011907D01*
X0094764Y0012142D01*
X0094814Y0012379D01*
X0094857Y0012616D01*
X0094895Y0012855D01*
X0094927Y0013095D01*
X0094953Y0013335D01*
X0094974Y0013576D01*
X0094988Y0013817D01*
X0094997Y0014058D01*
X0095000Y0014300D01*
X0085000Y0004300D02*
X0015000Y0004300D01*
X0010000Y0014300D02*
X0010002Y0014441D01*
X0010008Y0014582D01*
X0010018Y0014722D01*
X0010032Y0014862D01*
X0010050Y0015002D01*
X0010071Y0015141D01*
X0010097Y0015280D01*
X0010126Y0015418D01*
X0010160Y0015554D01*
X0010197Y0015690D01*
X0010238Y0015825D01*
X0010283Y0015959D01*
X0010332Y0016091D01*
X0010384Y0016222D01*
X0010440Y0016351D01*
X0010500Y0016478D01*
X0010563Y0016604D01*
X0010629Y0016728D01*
X0010700Y0016851D01*
X0010773Y0016971D01*
X0010850Y0017089D01*
X0010930Y0017205D01*
X0011014Y0017318D01*
X0011100Y0017429D01*
X0011190Y0017538D01*
X0011283Y0017644D01*
X0011378Y0017747D01*
X0011477Y0017848D01*
X0011578Y0017946D01*
X0011682Y0018041D01*
X0011789Y0018133D01*
X0011898Y0018222D01*
X0012010Y0018307D01*
X0012124Y0018390D01*
X0012240Y0018470D01*
X0012359Y0018546D01*
X0012480Y0018618D01*
X0012602Y0018688D01*
X0012727Y0018753D01*
X0012853Y0018816D01*
X0012981Y0018874D01*
X0013111Y0018929D01*
X0013242Y0018981D01*
X0013375Y0019028D01*
X0013509Y0019072D01*
X0013644Y0019113D01*
X0013780Y0019149D01*
X0013917Y0019181D01*
X0014055Y0019210D01*
X0014193Y0019235D01*
X0014333Y0019255D01*
X0014473Y0019272D01*
X0014613Y0019285D01*
X0014754Y0019294D01*
X0014894Y0019299D01*
X0015035Y0019300D01*
X0015176Y0019297D01*
X0015317Y0019290D01*
X0015457Y0019279D01*
X0015597Y0019264D01*
X0015737Y0019245D01*
X0015876Y0019223D01*
X0016014Y0019196D01*
X0016152Y0019166D01*
X0016288Y0019131D01*
X0016424Y0019093D01*
X0016558Y0019051D01*
X0016692Y0019005D01*
X0016824Y0018956D01*
X0016954Y0018902D01*
X0017083Y0018845D01*
X0017210Y0018785D01*
X0017336Y0018721D01*
X0017459Y0018653D01*
X0017581Y0018582D01*
X0017701Y0018508D01*
X0017818Y0018430D01*
X0017933Y0018349D01*
X0018046Y0018265D01*
X0018157Y0018178D01*
X0018265Y0018087D01*
X0018370Y0017994D01*
X0018473Y0017897D01*
X0018573Y0017798D01*
X0018670Y0017696D01*
X0018764Y0017591D01*
X0018855Y0017484D01*
X0018943Y0017374D01*
X0019028Y0017262D01*
X0019110Y0017147D01*
X0019189Y0017030D01*
X0019264Y0016911D01*
X0019336Y0016790D01*
X0019404Y0016667D01*
X0019469Y0016542D01*
X0019531Y0016415D01*
X0019588Y0016286D01*
X0019643Y0016156D01*
X0019693Y0016025D01*
X0019740Y0015892D01*
X0019783Y0015758D01*
X0019822Y0015622D01*
X0019857Y0015486D01*
X0019889Y0015349D01*
X0019916Y0015211D01*
X0019940Y0015072D01*
X0019960Y0014932D01*
X0019976Y0014792D01*
X0019988Y0014652D01*
X0019996Y0014511D01*
X0020000Y0014370D01*
X0020000Y0014230D01*
X0019996Y0014089D01*
X0019988Y0013948D01*
X0019976Y0013808D01*
X0019960Y0013668D01*
X0019940Y0013528D01*
X0019916Y0013389D01*
X0019889Y0013251D01*
X0019857Y0013114D01*
X0019822Y0012978D01*
X0019783Y0012842D01*
X0019740Y0012708D01*
X0019693Y0012575D01*
X0019643Y0012444D01*
X0019588Y0012314D01*
X0019531Y0012185D01*
X0019469Y0012058D01*
X0019404Y0011933D01*
X0019336Y0011810D01*
X0019264Y0011689D01*
X0019189Y0011570D01*
X0019110Y0011453D01*
X0019028Y0011338D01*
X0018943Y0011226D01*
X0018855Y0011116D01*
X0018764Y0011009D01*
X0018670Y0010904D01*
X0018573Y0010802D01*
X0018473Y0010703D01*
X0018370Y0010606D01*
X0018265Y0010513D01*
X0018157Y0010422D01*
X0018046Y0010335D01*
X0017933Y0010251D01*
X0017818Y0010170D01*
X0017701Y0010092D01*
X0017581Y0010018D01*
X0017459Y0009947D01*
X0017336Y0009879D01*
X0017210Y0009815D01*
X0017083Y0009755D01*
X0016954Y0009698D01*
X0016824Y0009644D01*
X0016692Y0009595D01*
X0016558Y0009549D01*
X0016424Y0009507D01*
X0016288Y0009469D01*
X0016152Y0009434D01*
X0016014Y0009404D01*
X0015876Y0009377D01*
X0015737Y0009355D01*
X0015597Y0009336D01*
X0015457Y0009321D01*
X0015317Y0009310D01*
X0015176Y0009303D01*
X0015035Y0009300D01*
X0014894Y0009301D01*
X0014754Y0009306D01*
X0014613Y0009315D01*
X0014473Y0009328D01*
X0014333Y0009345D01*
X0014193Y0009365D01*
X0014055Y0009390D01*
X0013917Y0009419D01*
X0013780Y0009451D01*
X0013644Y0009487D01*
X0013509Y0009528D01*
X0013375Y0009572D01*
X0013242Y0009619D01*
X0013111Y0009671D01*
X0012981Y0009726D01*
X0012853Y0009784D01*
X0012727Y0009847D01*
X0012602Y0009912D01*
X0012480Y0009982D01*
X0012359Y0010054D01*
X0012240Y0010130D01*
X0012124Y0010210D01*
X0012010Y0010293D01*
X0011898Y0010378D01*
X0011789Y0010467D01*
X0011682Y0010559D01*
X0011578Y0010654D01*
X0011477Y0010752D01*
X0011378Y0010853D01*
X0011283Y0010956D01*
X0011190Y0011062D01*
X0011100Y0011171D01*
X0011014Y0011282D01*
X0010930Y0011395D01*
X0010850Y0011511D01*
X0010773Y0011629D01*
X0010700Y0011749D01*
X0010629Y0011872D01*
X0010563Y0011996D01*
X0010500Y0012122D01*
X0010440Y0012249D01*
X0010384Y0012378D01*
X0010332Y0012509D01*
X0010283Y0012641D01*
X0010238Y0012775D01*
X0010197Y0012910D01*
X0010160Y0013046D01*
X0010126Y0013182D01*
X0010097Y0013320D01*
X0010071Y0013459D01*
X0010050Y0013598D01*
X0010032Y0013738D01*
X0010018Y0013878D01*
X0010008Y0014018D01*
X0010002Y0014159D01*
X0010000Y0014300D01*
X0005000Y0014300D02*
X0005003Y0014058D01*
X0005012Y0013817D01*
X0005026Y0013576D01*
X0005047Y0013335D01*
X0005073Y0013095D01*
X0005105Y0012855D01*
X0005143Y0012616D01*
X0005186Y0012379D01*
X0005236Y0012142D01*
X0005291Y0011907D01*
X0005351Y0011673D01*
X0005418Y0011441D01*
X0005489Y0011210D01*
X0005567Y0010981D01*
X0005650Y0010754D01*
X0005738Y0010529D01*
X0005832Y0010306D01*
X0005931Y0010086D01*
X0006036Y0009868D01*
X0006145Y0009653D01*
X0006260Y0009440D01*
X0006380Y0009230D01*
X0006505Y0009024D01*
X0006635Y0008820D01*
X0006770Y0008619D01*
X0006910Y0008422D01*
X0007054Y0008228D01*
X0007203Y0008038D01*
X0007357Y0007852D01*
X0007515Y0007669D01*
X0007677Y0007490D01*
X0007844Y0007315D01*
X0008015Y0007144D01*
X0008190Y0006977D01*
X0008369Y0006815D01*
X0008552Y0006657D01*
X0008738Y0006503D01*
X0008928Y0006354D01*
X0009122Y0006210D01*
X0009319Y0006070D01*
X0009520Y0005935D01*
X0009724Y0005805D01*
X0009930Y0005680D01*
X0010140Y0005560D01*
X0010353Y0005445D01*
X0010568Y0005336D01*
X0010786Y0005231D01*
X0011006Y0005132D01*
X0011229Y0005038D01*
X0011454Y0004950D01*
X0011681Y0004867D01*
X0011910Y0004789D01*
X0012141Y0004718D01*
X0012373Y0004651D01*
X0012607Y0004591D01*
X0012842Y0004536D01*
X0013079Y0004486D01*
X0013316Y0004443D01*
X0013555Y0004405D01*
X0013795Y0004373D01*
X0014035Y0004347D01*
X0014276Y0004326D01*
X0014517Y0004312D01*
X0014758Y0004303D01*
X0015000Y0004300D01*
D11*
X0015349Y0158250D02*
X0014582Y0159017D01*
X0014582Y0162087D01*
X0015349Y0162854D01*
X0016883Y0162854D01*
X0017651Y0162087D01*
X0017651Y0160552D01*
X0016883Y0159785D01*
X0016883Y0161319D01*
X0015349Y0161319D01*
X0015349Y0159785D01*
X0016883Y0159785D01*
X0017651Y0159017D02*
X0016883Y0158250D01*
X0015349Y0158250D01*
X0019953Y0159017D02*
X0020720Y0158250D01*
X0019953Y0159017D02*
X0019953Y0162087D01*
X0020720Y0161319D02*
X0019185Y0161319D01*
X0019953Y0165750D02*
X0019185Y0166517D01*
X0022255Y0169587D01*
X0022255Y0166517D01*
X0021487Y0165750D01*
X0019953Y0165750D01*
X0019185Y0166517D02*
X0019185Y0169587D01*
X0019953Y0170354D01*
X0021487Y0170354D01*
X0022255Y0169587D01*
X0023789Y0168052D02*
X0026859Y0168052D01*
X0028393Y0170354D02*
X0028393Y0165750D01*
X0030695Y0165750D01*
X0031463Y0166517D01*
X0031463Y0169587D01*
X0030695Y0170354D01*
X0028393Y0170354D01*
X0032997Y0169587D02*
X0032997Y0166517D01*
X0033765Y0165750D01*
X0035299Y0165750D01*
X0036067Y0166517D01*
X0036067Y0169587D01*
X0035299Y0170354D01*
X0033765Y0170354D01*
X0032997Y0169587D01*
X0036066Y0163621D02*
X0036066Y0162854D01*
X0036066Y0161319D02*
X0036066Y0158250D01*
X0035299Y0158250D02*
X0036834Y0158250D01*
X0038368Y0158250D02*
X0038368Y0161319D01*
X0040670Y0161319D01*
X0041438Y0160552D01*
X0041438Y0158250D01*
X0042972Y0159017D02*
X0042972Y0160552D01*
X0043740Y0161319D01*
X0045274Y0161319D01*
X0046042Y0160552D01*
X0046042Y0159785D01*
X0042972Y0159785D01*
X0042972Y0159017D02*
X0043740Y0158250D01*
X0045274Y0158250D01*
X0047576Y0158250D02*
X0047576Y0161319D01*
X0049878Y0161319D01*
X0050646Y0160552D01*
X0050646Y0158250D01*
X0052180Y0158250D02*
X0052180Y0161319D01*
X0052180Y0159785D02*
X0053715Y0161319D01*
X0054482Y0161319D01*
X0056017Y0160552D02*
X0056784Y0161319D01*
X0058319Y0161319D01*
X0059086Y0160552D01*
X0059086Y0159785D01*
X0056017Y0159785D01*
X0056017Y0160552D02*
X0056017Y0159017D01*
X0056784Y0158250D01*
X0058319Y0158250D01*
X0060621Y0158250D02*
X0062155Y0158250D01*
X0061388Y0158250D02*
X0061388Y0161319D01*
X0060621Y0161319D01*
X0061388Y0162854D02*
X0061388Y0163621D01*
X0061388Y0165750D02*
X0062155Y0166517D01*
X0062155Y0168052D01*
X0060621Y0168052D01*
X0062155Y0169587D02*
X0061388Y0170354D01*
X0059853Y0170354D01*
X0059086Y0169587D01*
X0059086Y0166517D01*
X0059853Y0165750D01*
X0061388Y0165750D01*
X0063690Y0161319D02*
X0065225Y0161319D01*
X0064457Y0162087D02*
X0064457Y0159017D01*
X0065225Y0158250D01*
X0066759Y0159017D02*
X0066759Y0160552D01*
X0067527Y0161319D01*
X0069061Y0161319D01*
X0069829Y0160552D01*
X0069829Y0159785D01*
X0066759Y0159785D01*
X0066759Y0159017D02*
X0067527Y0158250D01*
X0069061Y0158250D01*
X0071363Y0158250D02*
X0071363Y0161319D01*
X0071363Y0159785D02*
X0072898Y0161319D01*
X0073665Y0161319D01*
X0057551Y0165750D02*
X0057551Y0170354D01*
X0054482Y0170354D02*
X0057551Y0165750D01*
X0054482Y0165750D02*
X0054482Y0170354D01*
X0052948Y0170354D02*
X0051413Y0170354D01*
X0052180Y0170354D02*
X0052180Y0165750D01*
X0051413Y0165750D02*
X0052948Y0165750D01*
X0049878Y0165750D02*
X0049878Y0170354D01*
X0048344Y0167285D02*
X0049878Y0165750D01*
X0048344Y0167285D02*
X0046809Y0165750D01*
X0046809Y0170354D01*
X0040670Y0170354D02*
X0037601Y0170354D01*
X0037601Y0165750D01*
X0037601Y0168052D02*
X0039136Y0168052D01*
X0036066Y0161319D02*
X0035299Y0161319D01*
X0033765Y0160552D02*
X0033765Y0159017D01*
X0032997Y0158250D01*
X0030695Y0158250D01*
X0030695Y0162854D01*
X0030695Y0161319D02*
X0032997Y0161319D01*
X0033765Y0160552D01*
X0029161Y0161319D02*
X0028393Y0161319D01*
X0026859Y0159785D01*
X0026859Y0161319D02*
X0026859Y0158250D01*
X0025324Y0158250D02*
X0025324Y0161319D01*
X0025324Y0158250D02*
X0023022Y0158250D01*
X0022255Y0159017D01*
X0022255Y0161319D01*
X0017651Y0165750D02*
X0014582Y0165750D01*
X0014582Y0168819D02*
X0016116Y0170354D01*
X0016116Y0165750D01*
D12*
X0036717Y0019102D02*
X0036350Y0018735D01*
X0036350Y0017267D01*
X0036717Y0016900D01*
X0037451Y0016900D01*
X0037818Y0017267D01*
X0037818Y0018001D01*
X0037084Y0018001D01*
X0037818Y0018735D02*
X0037451Y0019102D01*
X0036717Y0019102D01*
X0038560Y0019102D02*
X0038560Y0016900D01*
X0040028Y0016900D02*
X0038560Y0019102D01*
X0040028Y0019102D02*
X0040028Y0016900D01*
X0040770Y0016900D02*
X0040770Y0019102D01*
X0041871Y0019102D01*
X0042238Y0018735D01*
X0042238Y0017267D01*
X0041871Y0016900D01*
X0040770Y0016900D01*
X0046350Y0016900D02*
X0046350Y0019102D01*
X0047451Y0019102D01*
X0047818Y0018735D01*
X0047818Y0018001D01*
X0047451Y0017634D01*
X0046350Y0017634D01*
X0048560Y0016900D02*
X0049294Y0017634D01*
X0050028Y0016900D01*
X0050028Y0019102D01*
X0050770Y0019102D02*
X0050770Y0016900D01*
X0050770Y0017634D02*
X0051871Y0017634D01*
X0052238Y0018001D01*
X0052238Y0018735D01*
X0051871Y0019102D01*
X0050770Y0019102D01*
X0051504Y0017634D02*
X0052238Y0016900D01*
X0048560Y0016900D02*
X0048560Y0019102D01*
X0057600Y0018368D02*
X0058701Y0018368D01*
X0059068Y0018368D01*
X0059068Y0017634D02*
X0057600Y0017634D01*
X0057967Y0016900D02*
X0057967Y0019102D01*
X0058701Y0019102D02*
X0058701Y0016900D01*
X0059810Y0016900D02*
X0061278Y0016900D01*
X0060544Y0016900D02*
X0060544Y0019102D01*
X0059810Y0018368D01*
X0062020Y0018001D02*
X0063121Y0018001D01*
X0063488Y0017634D01*
X0063488Y0017267D01*
X0063121Y0016900D01*
X0062387Y0016900D01*
X0062020Y0017267D01*
X0062020Y0018001D01*
X0062754Y0018735D01*
X0063488Y0019102D01*
D13*
X0063640Y0059300D02*
X0063860Y0059300D01*
X0062610Y0085550D02*
X0062390Y0085550D01*
X0037610Y0085550D02*
X0037390Y0085550D01*
X0037390Y0059300D02*
X0037610Y0059300D01*
X0050000Y0137940D02*
X0050000Y0138160D01*
D14*
X0050131Y0135001D02*
X0049130Y0135001D01*
X0049130Y0133500D01*
X0049130Y0134251D02*
X0049631Y0134251D01*
X0050603Y0134751D02*
X0050603Y0133750D01*
X0050854Y0133500D01*
X0051354Y0133500D01*
X0051604Y0133750D01*
X0052077Y0133750D02*
X0052327Y0133500D01*
X0052827Y0133500D01*
X0053078Y0133750D01*
X0053078Y0134251D01*
X0052827Y0134501D01*
X0052577Y0134501D01*
X0052077Y0134251D01*
X0052077Y0135001D01*
X0053078Y0135001D01*
X0051604Y0134751D02*
X0051354Y0135001D01*
X0050854Y0135001D01*
X0050603Y0134751D01*
X0050131Y0173250D02*
X0049130Y0173250D01*
X0048658Y0173500D02*
X0048157Y0174000D01*
X0048408Y0174000D02*
X0047657Y0174000D01*
X0047657Y0173500D02*
X0047657Y0175001D01*
X0048408Y0175001D01*
X0048658Y0174751D01*
X0048658Y0174251D01*
X0048408Y0174000D01*
X0050603Y0173750D02*
X0050854Y0173500D01*
X0051354Y0173500D01*
X0051604Y0173750D01*
X0051604Y0174000D01*
X0051354Y0174251D01*
X0050854Y0174251D01*
X0050603Y0174501D01*
X0050603Y0174751D01*
X0050854Y0175001D01*
X0051354Y0175001D01*
X0051604Y0174751D01*
X0052077Y0175001D02*
X0052077Y0173500D01*
X0052577Y0174000D01*
X0053078Y0173500D01*
X0053078Y0175001D01*
X0049024Y0200100D02*
X0048023Y0200100D01*
X0048524Y0200100D02*
X0048524Y0201601D01*
X0048023Y0201101D01*
X0047551Y0201351D02*
X0047301Y0201601D01*
X0046800Y0201601D01*
X0046550Y0201351D01*
X0046550Y0201101D01*
X0046800Y0200851D01*
X0047301Y0200851D01*
X0047551Y0200600D01*
X0047551Y0200350D01*
X0047301Y0200100D01*
X0046800Y0200100D01*
X0046550Y0200350D01*
X0065799Y0088628D02*
X0065549Y0088377D01*
X0065549Y0087877D01*
X0065799Y0087627D01*
X0065799Y0087154D02*
X0065549Y0086904D01*
X0065549Y0086404D01*
X0065799Y0086153D01*
X0066800Y0086153D01*
X0067050Y0086404D01*
X0067050Y0086904D01*
X0066800Y0087154D01*
X0067050Y0087627D02*
X0066049Y0088628D01*
X0065799Y0088628D01*
X0067050Y0088628D02*
X0067050Y0087627D01*
X0067050Y0085681D02*
X0065549Y0084680D01*
X0065549Y0085681D02*
X0067050Y0084680D01*
X0059949Y0059797D02*
X0059949Y0058797D01*
X0059199Y0059547D01*
X0060700Y0059547D01*
X0060450Y0058324D02*
X0060700Y0058074D01*
X0060700Y0057573D01*
X0060450Y0057323D01*
X0059449Y0057323D01*
X0059199Y0057573D01*
X0059199Y0058074D01*
X0059449Y0058324D01*
X0059199Y0056851D02*
X0059199Y0055850D01*
X0060700Y0055850D01*
X0060700Y0056851D01*
X0059949Y0056350D02*
X0059949Y0055850D01*
X0052077Y0036251D02*
X0052077Y0034750D01*
X0053078Y0034750D01*
X0051604Y0035000D02*
X0051354Y0034750D01*
X0050854Y0034750D01*
X0050603Y0035000D01*
X0050603Y0036001D01*
X0050854Y0036251D01*
X0051354Y0036251D01*
X0051604Y0036001D01*
X0050131Y0036001D02*
X0049881Y0036251D01*
X0049380Y0036251D01*
X0049130Y0036001D01*
X0049130Y0035751D01*
X0049380Y0035501D01*
X0049881Y0035501D01*
X0050131Y0035250D01*
X0050131Y0035000D01*
X0049881Y0034750D01*
X0049380Y0034750D01*
X0049130Y0035000D01*
X0048658Y0034500D02*
X0047657Y0034500D01*
X0047185Y0034750D02*
X0046684Y0035250D01*
X0046934Y0035250D02*
X0046184Y0035250D01*
X0046184Y0034750D02*
X0046184Y0036251D01*
X0046934Y0036251D01*
X0047185Y0036001D01*
X0047185Y0035501D01*
X0046934Y0035250D01*
X0046934Y0026251D02*
X0046184Y0026251D01*
X0046184Y0024750D01*
X0046184Y0025250D02*
X0046934Y0025250D01*
X0047185Y0025501D01*
X0047185Y0026001D01*
X0046934Y0026251D01*
X0046684Y0025250D02*
X0047185Y0024750D01*
X0047657Y0024500D02*
X0048658Y0024500D01*
X0049130Y0025000D02*
X0049380Y0024750D01*
X0049881Y0024750D01*
X0050131Y0025000D01*
X0050131Y0025250D01*
X0049881Y0025501D01*
X0049380Y0025501D01*
X0049130Y0025751D01*
X0049130Y0026001D01*
X0049380Y0026251D01*
X0049881Y0026251D01*
X0050131Y0026001D01*
X0050603Y0026251D02*
X0050603Y0024750D01*
X0051354Y0024750D01*
X0051604Y0025000D01*
X0051604Y0026001D01*
X0051354Y0026251D01*
X0050603Y0026251D01*
X0052077Y0025751D02*
X0052077Y0024750D01*
X0052077Y0025501D02*
X0053078Y0025501D01*
X0053078Y0025751D02*
X0053078Y0024750D01*
X0053078Y0025751D02*
X0052577Y0026251D01*
X0052077Y0025751D01*
X0034450Y0055850D02*
X0034450Y0056851D01*
X0034200Y0057323D02*
X0034450Y0057573D01*
X0034450Y0058074D01*
X0034200Y0058324D01*
X0034200Y0058797D02*
X0034450Y0059047D01*
X0034450Y0059547D01*
X0034200Y0059797D01*
X0033950Y0059797D01*
X0033699Y0059547D01*
X0033699Y0059297D01*
X0033699Y0059547D02*
X0033449Y0059797D01*
X0033199Y0059797D01*
X0032949Y0059547D01*
X0032949Y0059047D01*
X0033199Y0058797D01*
X0033199Y0058324D02*
X0032949Y0058074D01*
X0032949Y0057573D01*
X0033199Y0057323D01*
X0034200Y0057323D01*
X0033699Y0056350D02*
X0033699Y0055850D01*
X0032949Y0055850D02*
X0032949Y0056851D01*
X0032949Y0055850D02*
X0034450Y0055850D01*
X0034450Y0082100D02*
X0032949Y0083101D01*
X0033199Y0083573D02*
X0032949Y0083823D01*
X0032949Y0084324D01*
X0033199Y0084574D01*
X0033449Y0085047D02*
X0032949Y0085547D01*
X0034450Y0085547D01*
X0034450Y0085047D02*
X0034450Y0086047D01*
X0034200Y0084574D02*
X0034450Y0084324D01*
X0034450Y0083823D01*
X0034200Y0083573D01*
X0033199Y0083573D01*
X0034450Y0083101D02*
X0032949Y0082100D01*
D15*
X0042520Y0105137D02*
X0042520Y0126003D01*
X0057480Y0126003D01*
X0057480Y0105137D01*
X0042520Y0105137D01*
X0043937Y0183050D02*
X0056063Y0183050D01*
X0060000Y0188168D02*
X0060000Y0197932D01*
X0056063Y0203050D02*
X0043937Y0203050D01*
X0040000Y0198050D02*
X0040000Y0188168D01*
X0045000Y0193050D02*
X0045002Y0193191D01*
X0045008Y0193332D01*
X0045018Y0193472D01*
X0045032Y0193612D01*
X0045050Y0193752D01*
X0045071Y0193891D01*
X0045097Y0194030D01*
X0045126Y0194168D01*
X0045160Y0194304D01*
X0045197Y0194440D01*
X0045238Y0194575D01*
X0045283Y0194709D01*
X0045332Y0194841D01*
X0045384Y0194972D01*
X0045440Y0195101D01*
X0045500Y0195228D01*
X0045563Y0195354D01*
X0045629Y0195478D01*
X0045700Y0195601D01*
X0045773Y0195721D01*
X0045850Y0195839D01*
X0045930Y0195955D01*
X0046014Y0196068D01*
X0046100Y0196179D01*
X0046190Y0196288D01*
X0046283Y0196394D01*
X0046378Y0196497D01*
X0046477Y0196598D01*
X0046578Y0196696D01*
X0046682Y0196791D01*
X0046789Y0196883D01*
X0046898Y0196972D01*
X0047010Y0197057D01*
X0047124Y0197140D01*
X0047240Y0197220D01*
X0047359Y0197296D01*
X0047480Y0197368D01*
X0047602Y0197438D01*
X0047727Y0197503D01*
X0047853Y0197566D01*
X0047981Y0197624D01*
X0048111Y0197679D01*
X0048242Y0197731D01*
X0048375Y0197778D01*
X0048509Y0197822D01*
X0048644Y0197863D01*
X0048780Y0197899D01*
X0048917Y0197931D01*
X0049055Y0197960D01*
X0049193Y0197985D01*
X0049333Y0198005D01*
X0049473Y0198022D01*
X0049613Y0198035D01*
X0049754Y0198044D01*
X0049894Y0198049D01*
X0050035Y0198050D01*
X0050176Y0198047D01*
X0050317Y0198040D01*
X0050457Y0198029D01*
X0050597Y0198014D01*
X0050737Y0197995D01*
X0050876Y0197973D01*
X0051014Y0197946D01*
X0051152Y0197916D01*
X0051288Y0197881D01*
X0051424Y0197843D01*
X0051558Y0197801D01*
X0051692Y0197755D01*
X0051824Y0197706D01*
X0051954Y0197652D01*
X0052083Y0197595D01*
X0052210Y0197535D01*
X0052336Y0197471D01*
X0052459Y0197403D01*
X0052581Y0197332D01*
X0052701Y0197258D01*
X0052818Y0197180D01*
X0052933Y0197099D01*
X0053046Y0197015D01*
X0053157Y0196928D01*
X0053265Y0196837D01*
X0053370Y0196744D01*
X0053473Y0196647D01*
X0053573Y0196548D01*
X0053670Y0196446D01*
X0053764Y0196341D01*
X0053855Y0196234D01*
X0053943Y0196124D01*
X0054028Y0196012D01*
X0054110Y0195897D01*
X0054189Y0195780D01*
X0054264Y0195661D01*
X0054336Y0195540D01*
X0054404Y0195417D01*
X0054469Y0195292D01*
X0054531Y0195165D01*
X0054588Y0195036D01*
X0054643Y0194906D01*
X0054693Y0194775D01*
X0054740Y0194642D01*
X0054783Y0194508D01*
X0054822Y0194372D01*
X0054857Y0194236D01*
X0054889Y0194099D01*
X0054916Y0193961D01*
X0054940Y0193822D01*
X0054960Y0193682D01*
X0054976Y0193542D01*
X0054988Y0193402D01*
X0054996Y0193261D01*
X0055000Y0193120D01*
X0055000Y0192980D01*
X0054996Y0192839D01*
X0054988Y0192698D01*
X0054976Y0192558D01*
X0054960Y0192418D01*
X0054940Y0192278D01*
X0054916Y0192139D01*
X0054889Y0192001D01*
X0054857Y0191864D01*
X0054822Y0191728D01*
X0054783Y0191592D01*
X0054740Y0191458D01*
X0054693Y0191325D01*
X0054643Y0191194D01*
X0054588Y0191064D01*
X0054531Y0190935D01*
X0054469Y0190808D01*
X0054404Y0190683D01*
X0054336Y0190560D01*
X0054264Y0190439D01*
X0054189Y0190320D01*
X0054110Y0190203D01*
X0054028Y0190088D01*
X0053943Y0189976D01*
X0053855Y0189866D01*
X0053764Y0189759D01*
X0053670Y0189654D01*
X0053573Y0189552D01*
X0053473Y0189453D01*
X0053370Y0189356D01*
X0053265Y0189263D01*
X0053157Y0189172D01*
X0053046Y0189085D01*
X0052933Y0189001D01*
X0052818Y0188920D01*
X0052701Y0188842D01*
X0052581Y0188768D01*
X0052459Y0188697D01*
X0052336Y0188629D01*
X0052210Y0188565D01*
X0052083Y0188505D01*
X0051954Y0188448D01*
X0051824Y0188394D01*
X0051692Y0188345D01*
X0051558Y0188299D01*
X0051424Y0188257D01*
X0051288Y0188219D01*
X0051152Y0188184D01*
X0051014Y0188154D01*
X0050876Y0188127D01*
X0050737Y0188105D01*
X0050597Y0188086D01*
X0050457Y0188071D01*
X0050317Y0188060D01*
X0050176Y0188053D01*
X0050035Y0188050D01*
X0049894Y0188051D01*
X0049754Y0188056D01*
X0049613Y0188065D01*
X0049473Y0188078D01*
X0049333Y0188095D01*
X0049193Y0188115D01*
X0049055Y0188140D01*
X0048917Y0188169D01*
X0048780Y0188201D01*
X0048644Y0188237D01*
X0048509Y0188278D01*
X0048375Y0188322D01*
X0048242Y0188369D01*
X0048111Y0188421D01*
X0047981Y0188476D01*
X0047853Y0188534D01*
X0047727Y0188597D01*
X0047602Y0188662D01*
X0047480Y0188732D01*
X0047359Y0188804D01*
X0047240Y0188880D01*
X0047124Y0188960D01*
X0047010Y0189043D01*
X0046898Y0189128D01*
X0046789Y0189217D01*
X0046682Y0189309D01*
X0046578Y0189404D01*
X0046477Y0189502D01*
X0046378Y0189603D01*
X0046283Y0189706D01*
X0046190Y0189812D01*
X0046100Y0189921D01*
X0046014Y0190032D01*
X0045930Y0190145D01*
X0045850Y0190261D01*
X0045773Y0190379D01*
X0045700Y0190499D01*
X0045629Y0190622D01*
X0045563Y0190746D01*
X0045500Y0190872D01*
X0045440Y0190999D01*
X0045384Y0191128D01*
X0045332Y0191259D01*
X0045283Y0191391D01*
X0045238Y0191525D01*
X0045197Y0191660D01*
X0045160Y0191796D01*
X0045126Y0191932D01*
X0045097Y0192070D01*
X0045071Y0192209D01*
X0045050Y0192348D01*
X0045032Y0192488D01*
X0045018Y0192628D01*
X0045008Y0192768D01*
X0045002Y0192909D01*
X0045000Y0193050D01*
X0042500Y0014300D02*
X0037500Y0014300D01*
X0035000Y0011800D01*
X0035000Y0006800D01*
X0037500Y0004300D01*
X0042500Y0004300D01*
X0045000Y0006800D01*
X0047500Y0004300D01*
X0052500Y0004300D01*
X0055000Y0006800D01*
X0057500Y0004300D01*
X0062500Y0004300D01*
X0065000Y0006800D01*
X0065000Y0011800D01*
X0062500Y0014300D01*
X0057500Y0014300D01*
X0055000Y0011800D01*
X0052500Y0014300D01*
X0047500Y0014300D01*
X0045000Y0011800D01*
X0042500Y0014300D01*
D16*
X0046364Y0144646D02*
X0045346Y0145664D01*
X0046557Y0147148D01*
X0046249Y0147746D01*
X0046044Y0148387D01*
X0044139Y0148580D01*
X0044139Y0150020D01*
X0046044Y0150213D01*
X0046249Y0150854D01*
X0046557Y0151452D01*
X0045346Y0152936D01*
X0046364Y0153954D01*
X0047848Y0152743D01*
X0048446Y0153051D01*
X0049087Y0153256D01*
X0049280Y0155161D01*
X0050720Y0155161D01*
X0050913Y0153256D01*
X0051554Y0153051D01*
X0052152Y0152743D01*
X0053636Y0153954D01*
X0054654Y0152936D01*
X0053443Y0151452D01*
X0053751Y0150854D01*
X0053956Y0150213D01*
X0055861Y0150020D01*
X0055861Y0148580D01*
X0053956Y0148387D01*
X0053751Y0147746D01*
X0053443Y0147148D01*
X0054654Y0145664D01*
X0053636Y0144646D01*
X0052152Y0145857D01*
X0051554Y0145549D01*
X0050706Y0147595D01*
X0051091Y0147812D01*
X0051414Y0148114D01*
X0051655Y0148484D01*
X0051801Y0148900D01*
X0051845Y0149340D01*
X0051782Y0149777D01*
X0051618Y0150187D01*
X0051360Y0150546D01*
X0051025Y0150834D01*
X0050631Y0151034D01*
X0050201Y0151134D01*
X0049759Y0151129D01*
X0049331Y0151020D01*
X0048941Y0150811D01*
X0048612Y0150517D01*
X0048363Y0150152D01*
X0048207Y0149739D01*
X0048154Y0149300D01*
X0048205Y0148869D01*
X0048355Y0148462D01*
X0048597Y0148101D01*
X0048915Y0147807D01*
X0049294Y0147595D01*
X0048446Y0145549D01*
X0047848Y0145857D01*
X0046364Y0144646D01*
X0045925Y0145086D02*
X0046903Y0145086D01*
X0047626Y0145675D02*
X0045355Y0145675D01*
X0045836Y0146264D02*
X0048742Y0146264D01*
X0048498Y0145675D02*
X0048201Y0145675D01*
X0048986Y0146853D02*
X0046316Y0146853D01*
X0046405Y0147442D02*
X0049230Y0147442D01*
X0048672Y0148031D02*
X0046157Y0148031D01*
X0046099Y0150388D02*
X0048524Y0150388D01*
X0048230Y0149798D02*
X0044139Y0149798D01*
X0044139Y0149209D02*
X0048165Y0149209D01*
X0048297Y0148620D02*
X0044139Y0148620D01*
X0045983Y0152155D02*
X0054017Y0152155D01*
X0054497Y0152744D02*
X0052152Y0152744D01*
X0052151Y0152744D02*
X0047849Y0152744D01*
X0047848Y0152744D02*
X0045503Y0152744D01*
X0045743Y0153333D02*
X0047125Y0153333D01*
X0046403Y0153922D02*
X0046333Y0153922D01*
X0046464Y0151566D02*
X0053536Y0151566D01*
X0053688Y0150977D02*
X0050744Y0150977D01*
X0051474Y0150388D02*
X0053901Y0150388D01*
X0053843Y0148031D02*
X0051326Y0148031D01*
X0051703Y0148620D02*
X0055861Y0148620D01*
X0055861Y0149209D02*
X0051832Y0149209D01*
X0051774Y0149798D02*
X0055861Y0149798D01*
X0053595Y0147442D02*
X0050770Y0147442D01*
X0051014Y0146853D02*
X0053684Y0146853D01*
X0054164Y0146264D02*
X0051258Y0146264D01*
X0051502Y0145675D02*
X0051799Y0145675D01*
X0052374Y0145675D02*
X0054645Y0145675D01*
X0054075Y0145086D02*
X0053097Y0145086D01*
X0049251Y0150977D02*
X0046312Y0150977D01*
X0049094Y0153333D02*
X0050906Y0153333D01*
X0050846Y0153922D02*
X0049154Y0153922D01*
X0049214Y0154511D02*
X0050786Y0154511D01*
X0050726Y0155100D02*
X0049274Y0155100D01*
X0052875Y0153333D02*
X0054257Y0153333D01*
X0053667Y0153922D02*
X0053597Y0153922D01*
D17*
X0050000Y0178050D03*
X0050000Y0039300D03*
X0050000Y0029300D03*
D18*
X0042975Y0066175D02*
X0042977Y0066199D01*
X0042983Y0066223D01*
X0042992Y0066245D01*
X0043005Y0066265D01*
X0043021Y0066283D01*
X0043040Y0066298D01*
X0043061Y0066311D01*
X0043083Y0066319D01*
X0043107Y0066324D01*
X0043131Y0066325D01*
X0043155Y0066322D01*
X0043178Y0066315D01*
X0043200Y0066305D01*
X0043220Y0066291D01*
X0043237Y0066274D01*
X0043252Y0066255D01*
X0043263Y0066234D01*
X0043271Y0066211D01*
X0043275Y0066187D01*
X0043275Y0066163D01*
X0043271Y0066139D01*
X0043263Y0066116D01*
X0043252Y0066095D01*
X0043237Y0066076D01*
X0043220Y0066059D01*
X0043200Y0066045D01*
X0043178Y0066035D01*
X0043155Y0066028D01*
X0043131Y0066025D01*
X0043107Y0066026D01*
X0043083Y0066031D01*
X0043061Y0066039D01*
X0043040Y0066052D01*
X0043021Y0066067D01*
X0043005Y0066085D01*
X0042992Y0066105D01*
X0042983Y0066127D01*
X0042977Y0066151D01*
X0042975Y0066175D01*
X0042812Y0066175D02*
X0042814Y0066210D01*
X0042820Y0066245D01*
X0042830Y0066278D01*
X0042843Y0066311D01*
X0042860Y0066342D01*
X0042880Y0066370D01*
X0042904Y0066396D01*
X0042930Y0066420D01*
X0042958Y0066440D01*
X0042989Y0066457D01*
X0043022Y0066470D01*
X0043055Y0066480D01*
X0043090Y0066486D01*
X0043125Y0066488D01*
X0043160Y0066486D01*
X0043195Y0066480D01*
X0043228Y0066470D01*
X0043261Y0066457D01*
X0043292Y0066440D01*
X0043320Y0066420D01*
X0043346Y0066396D01*
X0043370Y0066370D01*
X0043390Y0066342D01*
X0043407Y0066311D01*
X0043420Y0066278D01*
X0043430Y0066245D01*
X0043436Y0066210D01*
X0043438Y0066175D01*
X0043436Y0066140D01*
X0043430Y0066105D01*
X0043420Y0066072D01*
X0043407Y0066039D01*
X0043390Y0066008D01*
X0043370Y0065980D01*
X0043346Y0065954D01*
X0043320Y0065930D01*
X0043292Y0065910D01*
X0043261Y0065893D01*
X0043228Y0065880D01*
X0043195Y0065870D01*
X0043160Y0065864D01*
X0043125Y0065862D01*
X0043090Y0065864D01*
X0043055Y0065870D01*
X0043022Y0065880D01*
X0042989Y0065893D01*
X0042958Y0065910D01*
X0042930Y0065930D01*
X0042904Y0065954D01*
X0042880Y0065980D01*
X0042860Y0066008D01*
X0042843Y0066039D01*
X0042830Y0066072D01*
X0042820Y0066105D01*
X0042814Y0066140D01*
X0042812Y0066175D01*
X0042500Y0066175D02*
X0042502Y0066225D01*
X0042508Y0066274D01*
X0042518Y0066323D01*
X0042531Y0066370D01*
X0042549Y0066417D01*
X0042570Y0066462D01*
X0042594Y0066505D01*
X0042622Y0066546D01*
X0042653Y0066585D01*
X0042687Y0066621D01*
X0042724Y0066655D01*
X0042764Y0066685D01*
X0042805Y0066712D01*
X0042849Y0066736D01*
X0042894Y0066756D01*
X0042941Y0066772D01*
X0042989Y0066785D01*
X0043038Y0066794D01*
X0043088Y0066799D01*
X0043137Y0066800D01*
X0043187Y0066797D01*
X0043236Y0066790D01*
X0043285Y0066779D01*
X0043332Y0066765D01*
X0043378Y0066746D01*
X0043423Y0066724D01*
X0043466Y0066699D01*
X0043506Y0066670D01*
X0043544Y0066638D01*
X0043580Y0066604D01*
X0043613Y0066566D01*
X0043642Y0066526D01*
X0043668Y0066484D01*
X0043691Y0066440D01*
X0043710Y0066394D01*
X0043726Y0066347D01*
X0043738Y0066298D01*
X0043746Y0066249D01*
X0043750Y0066200D01*
X0043750Y0066150D01*
X0043746Y0066101D01*
X0043738Y0066052D01*
X0043726Y0066003D01*
X0043710Y0065956D01*
X0043691Y0065910D01*
X0043668Y0065866D01*
X0043642Y0065824D01*
X0043613Y0065784D01*
X0043580Y0065746D01*
X0043544Y0065712D01*
X0043506Y0065680D01*
X0043466Y0065651D01*
X0043423Y0065626D01*
X0043378Y0065604D01*
X0043332Y0065585D01*
X0043285Y0065571D01*
X0043236Y0065560D01*
X0043187Y0065553D01*
X0043137Y0065550D01*
X0043088Y0065551D01*
X0043038Y0065556D01*
X0042989Y0065565D01*
X0042941Y0065578D01*
X0042894Y0065594D01*
X0042849Y0065614D01*
X0042805Y0065638D01*
X0042764Y0065665D01*
X0042724Y0065695D01*
X0042687Y0065729D01*
X0042653Y0065765D01*
X0042622Y0065804D01*
X0042594Y0065845D01*
X0042570Y0065888D01*
X0042549Y0065933D01*
X0042531Y0065980D01*
X0042518Y0066027D01*
X0042508Y0066076D01*
X0042502Y0066125D01*
X0042500Y0066175D01*
X0044094Y0076692D02*
X0046555Y0076692D01*
X0044094Y0076692D02*
X0044094Y0078168D01*
X0044094Y0092932D02*
X0044094Y0094408D01*
X0046555Y0094408D01*
X0053445Y0094408D02*
X0055906Y0094408D01*
X0055906Y0092932D01*
X0054921Y0092932D02*
X0054429Y0092932D01*
X0054429Y0093424D01*
X0054921Y0093424D01*
X0054921Y0092932D01*
X0055906Y0078168D02*
X0055906Y0076692D01*
X0053445Y0076692D01*
D19*
X0053208Y0074152D02*
X0053692Y0073669D01*
X0053692Y0073185D01*
X0053208Y0072701D01*
X0052241Y0072701D01*
X0051757Y0073185D01*
X0051757Y0073669D01*
X0052241Y0074152D01*
X0053208Y0074152D01*
X0053208Y0072701D02*
X0053692Y0072217D01*
X0053692Y0071734D01*
X0053208Y0071250D01*
X0052241Y0071250D01*
X0051757Y0071734D01*
X0051757Y0072217D01*
X0052241Y0072701D01*
X0050745Y0073185D02*
X0050745Y0073669D01*
X0050262Y0074152D01*
X0049294Y0074152D01*
X0048810Y0073669D01*
X0047799Y0074152D02*
X0045864Y0074152D01*
X0045864Y0071250D01*
X0047799Y0071250D01*
X0048810Y0071250D02*
X0050745Y0073185D01*
X0050745Y0071250D02*
X0048810Y0071250D01*
X0046831Y0072701D02*
X0045864Y0072701D01*
X0044852Y0074152D02*
X0044852Y0071250D01*
X0043885Y0073185D02*
X0044852Y0074152D01*
X0043885Y0073185D02*
X0042917Y0074152D01*
X0042917Y0071250D01*
X0041906Y0071734D02*
X0041422Y0071250D01*
X0039971Y0071250D01*
X0039971Y0074152D01*
X0041422Y0074152D01*
X0041906Y0073669D01*
X0041906Y0073185D01*
X0041422Y0072701D01*
X0039971Y0072701D01*
X0041422Y0072701D02*
X0041906Y0072217D01*
X0041906Y0071734D01*
X0043900Y0096950D02*
X0045351Y0096950D01*
X0045835Y0097434D01*
X0045835Y0097917D01*
X0045351Y0098401D01*
X0043900Y0098401D01*
X0043900Y0096950D02*
X0043900Y0099852D01*
X0045351Y0099852D01*
X0045835Y0099369D01*
X0045835Y0098885D01*
X0045351Y0098401D01*
X0046847Y0096950D02*
X0046847Y0099852D01*
X0047814Y0098885D01*
X0048781Y0099852D01*
X0048781Y0096950D01*
X0049793Y0096950D02*
X0051728Y0099852D01*
X0052740Y0099369D02*
X0052740Y0097434D01*
X0054675Y0099369D01*
X0054675Y0097434D01*
X0054191Y0096950D01*
X0053223Y0096950D01*
X0052740Y0097434D01*
X0051728Y0096950D02*
X0049793Y0099852D01*
X0052740Y0099369D02*
X0053223Y0099852D01*
X0054191Y0099852D01*
X0054675Y0099369D01*
X0055686Y0099852D02*
X0055686Y0098401D01*
X0056654Y0098885D01*
X0057137Y0098885D01*
X0057621Y0098401D01*
X0057621Y0097434D01*
X0057137Y0096950D01*
X0056170Y0096950D01*
X0055686Y0097434D01*
X0055686Y0099852D02*
X0057621Y0099852D01*
X0058633Y0099852D02*
X0058633Y0098401D01*
X0059600Y0098885D01*
X0060084Y0098885D01*
X0060568Y0098401D01*
X0060568Y0097434D01*
X0060084Y0096950D01*
X0059116Y0096950D01*
X0058633Y0097434D01*
X0058633Y0099852D02*
X0060568Y0099852D01*
X0056155Y0074152D02*
X0055187Y0074152D01*
X0054703Y0073669D01*
X0054703Y0071734D01*
X0056638Y0073669D01*
X0056638Y0071734D01*
X0056155Y0071250D01*
X0055187Y0071250D01*
X0054703Y0071734D01*
X0056638Y0073669D02*
X0056155Y0074152D01*
D20*
X0055625Y0064925D02*
X0055625Y0053675D01*
X0044375Y0053675D01*
X0044375Y0064925D01*
X0055625Y0064925D01*
D21*
X0044985Y0123050D03*
D22*
X0044985Y0128400D02*
X0042783Y0128400D01*
X0042783Y0131703D01*
X0041302Y0131703D02*
X0039100Y0131703D01*
X0039100Y0128400D01*
X0039100Y0130051D02*
X0040201Y0130051D01*
X0046466Y0130051D02*
X0048668Y0130051D01*
X0048668Y0130602D02*
X0048668Y0128400D01*
X0050149Y0128950D02*
X0050700Y0128400D01*
X0051801Y0128400D01*
X0052351Y0128950D01*
X0052351Y0129501D01*
X0051801Y0130051D01*
X0050700Y0130051D01*
X0050149Y0130602D01*
X0050149Y0131152D01*
X0050700Y0131703D01*
X0051801Y0131703D01*
X0052351Y0131152D01*
X0053833Y0131703D02*
X0053833Y0128400D01*
X0053833Y0130051D02*
X0056034Y0130051D01*
X0056034Y0128400D02*
X0056034Y0131703D01*
X0048668Y0130602D02*
X0047567Y0131703D01*
X0046466Y0130602D01*
X0046466Y0128400D01*
M02*
