G75*
%MOIN*%
%OFA0B0*%
%FSLAX25Y25*%
%IPPOS*%
%LPD*%
%AMOC8*
5,1,8,0,0,1.08239X$1,22.5*
%
%ADD10C,0.08200*%
%ADD11C,0.10800*%
%ADD12C,0.15800*%
%ADD13C,0.07800*%
%ADD14C,0.04762*%
D10*
X0040000Y0009300D03*
X0050000Y0009300D03*
X0060000Y0009300D03*
D11*
X0085000Y0014300D03*
X0015000Y0014300D03*
D12*
X0015000Y0194300D03*
X0085000Y0194300D03*
D13*
X0010000Y0029300D03*
X0010000Y0039300D03*
X0010000Y0049300D03*
X0010000Y0059300D03*
X0010000Y0069300D03*
X0010000Y0079300D03*
X0010000Y0089300D03*
X0010000Y0099300D03*
X0010000Y0109300D03*
X0010000Y0119300D03*
X0010000Y0129300D03*
X0010000Y0139300D03*
X0010000Y0149300D03*
X0010000Y0159300D03*
X0010000Y0169300D03*
X0010000Y0179300D03*
X0090000Y0139300D03*
X0090000Y0129300D03*
X0090000Y0119300D03*
X0090000Y0109300D03*
X0090000Y0099300D03*
X0090000Y0089300D03*
X0090000Y0079300D03*
X0090000Y0069300D03*
X0090000Y0059300D03*
X0090000Y0049300D03*
X0090000Y0039300D03*
X0090000Y0029300D03*
D14*
X0053750Y0034300D03*
X0053750Y0044300D03*
X0053750Y0068050D03*
X0048750Y0068050D03*
X0026250Y0100550D03*
X0016250Y0084300D03*
X0050000Y0123050D03*
M02*
