G75*
%MOIN*%
%OFA0B0*%
%FSLAX25Y25*%
%IPPOS*%
%LPD*%
%AMOC8*
5,1,8,0,0,1.08239X$1,22.5*
%
%ADD10R,0.04737X0.05131*%
%ADD11C,0.08200*%
%ADD12C,0.10800*%
%ADD13C,0.15800*%
%ADD14C,0.07800*%
%ADD15R,0.05131X0.04737*%
%ADD16R,0.03457X0.01784*%
%ADD17R,0.01784X0.03457*%
%ADD18R,0.02178X0.02769*%
%ADD19R,0.06800X0.03800*%
%ADD20R,0.09461X0.03162*%
%ADD21C,0.04762*%
D10*
X0037500Y0055954D03*
X0037500Y0062646D03*
X0037500Y0082204D03*
X0037500Y0088896D03*
X0062500Y0088896D03*
X0062500Y0082204D03*
X0063750Y0062646D03*
X0063750Y0055954D03*
D11*
X0060000Y0009300D03*
X0050000Y0009300D03*
X0040000Y0009300D03*
D12*
X0015000Y0014300D03*
X0085000Y0014300D03*
D13*
X0085000Y0194300D03*
X0015000Y0194300D03*
D14*
X0010000Y0029300D03*
X0010000Y0039300D03*
X0010000Y0049300D03*
X0010000Y0059300D03*
X0010000Y0069300D03*
X0010000Y0079300D03*
X0010000Y0089300D03*
X0010000Y0099300D03*
X0010000Y0109300D03*
X0010000Y0119300D03*
X0010000Y0129300D03*
X0010000Y0139300D03*
X0010000Y0149300D03*
X0010000Y0159300D03*
X0010000Y0169300D03*
X0010000Y0179300D03*
X0090000Y0139300D03*
X0090000Y0129300D03*
X0090000Y0119300D03*
X0090000Y0109300D03*
X0090000Y0099300D03*
X0090000Y0089300D03*
X0090000Y0079300D03*
X0090000Y0069300D03*
X0090000Y0059300D03*
X0090000Y0049300D03*
X0090000Y0039300D03*
X0090000Y0029300D03*
D15*
X0053346Y0029300D03*
X0053346Y0039300D03*
X0046654Y0039300D03*
X0046654Y0029300D03*
X0046654Y0138050D03*
X0053346Y0138050D03*
X0053346Y0178050D03*
X0046654Y0178050D03*
D16*
X0045030Y0091456D03*
X0045030Y0089487D03*
X0045030Y0087519D03*
X0045030Y0085550D03*
X0045030Y0083581D03*
X0045030Y0081613D03*
X0045030Y0079644D03*
X0054970Y0079644D03*
X0054970Y0081613D03*
X0054970Y0083581D03*
X0054970Y0085550D03*
X0054970Y0087519D03*
X0054970Y0089487D03*
X0054970Y0091456D03*
D17*
X0051969Y0093473D03*
X0050000Y0093473D03*
X0048031Y0093473D03*
X0048031Y0077627D03*
X0050000Y0077627D03*
X0051969Y0077627D03*
D18*
X0051280Y0063335D03*
X0048720Y0063335D03*
X0046161Y0063335D03*
X0046161Y0055265D03*
X0048720Y0055265D03*
X0051280Y0055265D03*
X0053839Y0055265D03*
X0053839Y0063335D03*
D19*
X0061000Y0185550D03*
X0061000Y0200550D03*
X0039000Y0200550D03*
X0039000Y0185550D03*
D20*
X0036890Y0123050D03*
X0036890Y0118050D03*
X0036890Y0113050D03*
X0036890Y0108050D03*
X0063110Y0108050D03*
X0063110Y0113050D03*
X0063110Y0118050D03*
X0063110Y0123050D03*
D21*
X0050000Y0123050D03*
X0026250Y0100550D03*
X0016250Y0084300D03*
X0048750Y0068050D03*
X0053750Y0068050D03*
X0053750Y0044300D03*
X0053750Y0034300D03*
M02*
