G75*
%MOIN*%
%OFA0B0*%
%FSLAX25Y25*%
%IPPOS*%
%LPD*%
%AMOC8*
5,1,8,0,0,1.08239X$1,22.5*
%
%ADD10C,0.07400*%
%ADD11C,0.15000*%
%ADD12C,0.07000*%
%ADD13C,0.01600*%
%ADD14C,0.03962*%
%ADD15C,0.01000*%
D10*
X0040000Y0009300D03*
X0050000Y0009300D03*
X0060000Y0009300D03*
D11*
X0085000Y0194300D03*
X0015000Y0194300D03*
D12*
X0010000Y0179300D03*
X0010000Y0169300D03*
X0010000Y0159300D03*
X0010000Y0149300D03*
X0010000Y0139300D03*
X0010000Y0129300D03*
X0010000Y0119300D03*
X0010000Y0109300D03*
X0010000Y0099300D03*
X0010000Y0089300D03*
X0010000Y0079300D03*
X0010000Y0069300D03*
X0010000Y0059300D03*
X0010000Y0049300D03*
X0010000Y0039300D03*
X0010000Y0029300D03*
X0090000Y0029300D03*
X0090000Y0039300D03*
X0090000Y0049300D03*
X0090000Y0059300D03*
X0090000Y0069300D03*
X0090000Y0079300D03*
X0090000Y0089300D03*
X0090000Y0099300D03*
X0090000Y0109300D03*
X0090000Y0119300D03*
X0090000Y0129300D03*
X0090000Y0139300D03*
D13*
X0009800Y0024200D02*
X0009800Y0022754D01*
X0013051Y0024100D01*
X0016949Y0024100D01*
X0020551Y0022608D01*
X0023308Y0019851D01*
X0024800Y0016249D01*
X0024800Y0012351D01*
X0023454Y0009100D01*
X0039800Y0009100D01*
X0039800Y0009500D01*
X0039800Y0014800D01*
X0039567Y0014800D01*
X0038712Y0014665D01*
X0037889Y0014397D01*
X0037117Y0014004D01*
X0036417Y0013495D01*
X0035805Y0012883D01*
X0035296Y0012183D01*
X0034903Y0011411D01*
X0034635Y0010588D01*
X0034500Y0009733D01*
X0034500Y0009500D01*
X0039800Y0009500D01*
X0040200Y0009500D01*
X0040200Y0014800D01*
X0040433Y0014800D01*
X0041288Y0014665D01*
X0042111Y0014397D01*
X0042883Y0014004D01*
X0043583Y0013495D01*
X0044195Y0012883D01*
X0044704Y0012183D01*
X0045097Y0011411D01*
X0045115Y0011356D01*
X0045507Y0012302D01*
X0046998Y0013793D01*
X0048946Y0014600D01*
X0051054Y0014600D01*
X0053002Y0013793D01*
X0054493Y0012302D01*
X0055000Y0011078D01*
X0055507Y0012302D01*
X0056998Y0013793D01*
X0058946Y0014600D01*
X0061054Y0014600D01*
X0063002Y0013793D01*
X0064493Y0012302D01*
X0065300Y0010354D01*
X0065300Y0009100D01*
X0076546Y0009100D01*
X0075200Y0012351D01*
X0075200Y0016249D01*
X0076692Y0019851D01*
X0079449Y0022608D01*
X0083051Y0024100D01*
X0086949Y0024100D01*
X0090151Y0022774D01*
X0090151Y0024200D01*
X0088986Y0024200D01*
X0087111Y0024976D01*
X0085676Y0026411D01*
X0085350Y0027200D01*
X0057880Y0027200D01*
X0054361Y0030719D01*
X0053038Y0030719D01*
X0051721Y0031264D01*
X0050714Y0032271D01*
X0050169Y0033588D01*
X0050169Y0034911D01*
X0046650Y0038430D01*
X0046650Y0065086D01*
X0045714Y0066021D01*
X0045169Y0067338D01*
X0045169Y0068762D01*
X0045714Y0070079D01*
X0046721Y0071086D01*
X0048038Y0071631D01*
X0049462Y0071631D01*
X0050779Y0071086D01*
X0051250Y0070614D01*
X0051721Y0071086D01*
X0053038Y0071631D01*
X0054462Y0071631D01*
X0055779Y0071086D01*
X0056786Y0070079D01*
X0057331Y0068762D01*
X0057331Y0067338D01*
X0056786Y0066021D01*
X0055850Y0065086D01*
X0055850Y0047264D01*
X0056786Y0046329D01*
X0057331Y0045012D01*
X0057331Y0043689D01*
X0059620Y0041400D01*
X0085350Y0041400D01*
X0085676Y0042189D01*
X0087111Y0043624D01*
X0088744Y0044300D01*
X0087111Y0044976D01*
X0085676Y0046411D01*
X0084900Y0048286D01*
X0084900Y0050314D01*
X0085676Y0052189D01*
X0087111Y0053624D01*
X0088744Y0054300D01*
X0087111Y0054976D01*
X0085676Y0056411D01*
X0084900Y0058286D01*
X0084900Y0060314D01*
X0085676Y0062189D01*
X0087111Y0063624D01*
X0088744Y0064300D01*
X0087111Y0064976D01*
X0085676Y0066411D01*
X0084900Y0068286D01*
X0084900Y0070314D01*
X0085676Y0072189D01*
X0087111Y0073624D01*
X0088744Y0074300D01*
X0087111Y0074976D01*
X0085676Y0076411D01*
X0084900Y0078286D01*
X0084900Y0080314D01*
X0085227Y0081103D01*
X0047900Y0118430D01*
X0047900Y0120086D01*
X0046964Y0121021D01*
X0046419Y0122338D01*
X0046419Y0123762D01*
X0046964Y0125079D01*
X0047971Y0126086D01*
X0049288Y0126631D01*
X0050712Y0126631D01*
X0052029Y0126086D01*
X0053036Y0125079D01*
X0053581Y0123762D01*
X0053581Y0122338D01*
X0053036Y0121021D01*
X0052142Y0120128D01*
X0085548Y0086722D01*
X0084900Y0088286D01*
X0084900Y0090314D01*
X0085676Y0092189D01*
X0087111Y0093624D01*
X0088744Y0094300D01*
X0087111Y0094976D01*
X0085676Y0096411D01*
X0084900Y0098286D01*
X0084900Y0100314D01*
X0085676Y0102189D01*
X0087111Y0103624D01*
X0088744Y0104300D01*
X0087111Y0104976D01*
X0085676Y0106411D01*
X0084900Y0108286D01*
X0084900Y0110314D01*
X0085676Y0112189D01*
X0087111Y0113624D01*
X0088744Y0114300D01*
X0087111Y0114976D01*
X0085676Y0116411D01*
X0084900Y0118286D01*
X0084900Y0120314D01*
X0085676Y0122189D01*
X0087111Y0123624D01*
X0088744Y0124300D01*
X0087111Y0124976D01*
X0085676Y0126411D01*
X0084900Y0128286D01*
X0084900Y0130314D01*
X0085676Y0132189D01*
X0087111Y0133624D01*
X0088744Y0134300D01*
X0087111Y0134976D01*
X0085676Y0136411D01*
X0084900Y0138286D01*
X0084900Y0140314D01*
X0085676Y0142189D01*
X0087111Y0143624D01*
X0088986Y0144400D01*
X0090151Y0144400D01*
X0090151Y0186584D01*
X0086810Y0185200D01*
X0083190Y0185200D01*
X0079845Y0186585D01*
X0077285Y0189145D01*
X0075900Y0192490D01*
X0075900Y0196110D01*
X0077285Y0199455D01*
X0077291Y0199461D01*
X0022709Y0199461D01*
X0022715Y0199455D01*
X0024100Y0196110D01*
X0024100Y0192490D01*
X0022715Y0189145D01*
X0020155Y0186585D01*
X0016810Y0185200D01*
X0013190Y0185200D01*
X0009845Y0186585D01*
X0009800Y0186631D01*
X0009800Y0184400D01*
X0011014Y0184400D01*
X0012889Y0183624D01*
X0014324Y0182189D01*
X0015100Y0180314D01*
X0015100Y0178286D01*
X0014324Y0176411D01*
X0012889Y0174976D01*
X0011256Y0174300D01*
X0012889Y0173624D01*
X0014324Y0172189D01*
X0015100Y0170314D01*
X0015100Y0168286D01*
X0014324Y0166411D01*
X0012889Y0164976D01*
X0011256Y0164300D01*
X0012889Y0163624D01*
X0014324Y0162189D01*
X0015100Y0160314D01*
X0015100Y0158286D01*
X0014324Y0156411D01*
X0012889Y0154976D01*
X0011479Y0154392D01*
X0012034Y0154212D01*
X0012778Y0153833D01*
X0013453Y0153343D01*
X0014043Y0152753D01*
X0014533Y0152078D01*
X0014912Y0151334D01*
X0015169Y0150541D01*
X0015300Y0149717D01*
X0015300Y0149484D01*
X0010184Y0149484D01*
X0010184Y0149116D01*
X0015300Y0149116D01*
X0015300Y0148883D01*
X0015169Y0148059D01*
X0014912Y0147266D01*
X0014533Y0146522D01*
X0014043Y0145847D01*
X0013453Y0145257D01*
X0012778Y0144767D01*
X0012034Y0144388D01*
X0011479Y0144208D01*
X0012889Y0143624D01*
X0014324Y0142189D01*
X0015100Y0140314D01*
X0015100Y0138286D01*
X0014324Y0136411D01*
X0012889Y0134976D01*
X0011256Y0134300D01*
X0012889Y0133624D01*
X0014324Y0132189D01*
X0015100Y0130314D01*
X0015100Y0128286D01*
X0014324Y0126411D01*
X0012889Y0124976D01*
X0011256Y0124300D01*
X0012889Y0123624D01*
X0014324Y0122189D01*
X0015100Y0120314D01*
X0015100Y0118286D01*
X0014324Y0116411D01*
X0012889Y0114976D01*
X0011256Y0114300D01*
X0012889Y0113624D01*
X0014324Y0112189D01*
X0015100Y0110314D01*
X0015100Y0108286D01*
X0014324Y0106411D01*
X0012889Y0104976D01*
X0011256Y0104300D01*
X0012889Y0103624D01*
X0014324Y0102189D01*
X0015100Y0100314D01*
X0015100Y0098286D01*
X0014324Y0096411D01*
X0012889Y0094976D01*
X0011256Y0094300D01*
X0012889Y0093624D01*
X0014324Y0092189D01*
X0015100Y0090314D01*
X0015100Y0088286D01*
X0014807Y0087578D01*
X0015538Y0087881D01*
X0016962Y0087881D01*
X0018279Y0087336D01*
X0019286Y0086329D01*
X0019831Y0085012D01*
X0019831Y0083588D01*
X0019286Y0082271D01*
X0018350Y0081336D01*
X0018350Y0064680D01*
X0017120Y0063450D01*
X0014773Y0061103D01*
X0015100Y0060314D01*
X0015100Y0058286D01*
X0014324Y0056411D01*
X0012889Y0054976D01*
X0011256Y0054300D01*
X0012889Y0053624D01*
X0014324Y0052189D01*
X0015100Y0050314D01*
X0015100Y0048286D01*
X0014324Y0046411D01*
X0012889Y0044976D01*
X0011256Y0044300D01*
X0012889Y0043624D01*
X0014324Y0042189D01*
X0015100Y0040314D01*
X0015100Y0038286D01*
X0014324Y0036411D01*
X0012889Y0034976D01*
X0011256Y0034300D01*
X0012889Y0033624D01*
X0014324Y0032189D01*
X0015100Y0030314D01*
X0015100Y0028286D01*
X0014324Y0026411D01*
X0012889Y0024976D01*
X0011014Y0024200D01*
X0009800Y0024200D01*
X0009800Y0023482D02*
X0011559Y0023482D01*
X0012993Y0025081D02*
X0087007Y0025081D01*
X0088441Y0023482D02*
X0090151Y0023482D01*
X0085565Y0026679D02*
X0014435Y0026679D01*
X0015097Y0028278D02*
X0056802Y0028278D01*
X0055204Y0029876D02*
X0015100Y0029876D01*
X0014619Y0031475D02*
X0051511Y0031475D01*
X0050382Y0033073D02*
X0013439Y0033073D01*
X0012153Y0034672D02*
X0050169Y0034672D01*
X0048810Y0036270D02*
X0014183Y0036270D01*
X0014927Y0037869D02*
X0047211Y0037869D01*
X0046650Y0039467D02*
X0015100Y0039467D01*
X0014789Y0041066D02*
X0046650Y0041066D01*
X0046650Y0042664D02*
X0013848Y0042664D01*
X0013774Y0045861D02*
X0046650Y0045861D01*
X0046650Y0044263D02*
X0011346Y0044263D01*
X0014758Y0047460D02*
X0046650Y0047460D01*
X0046650Y0049058D02*
X0015100Y0049058D01*
X0014958Y0050657D02*
X0046650Y0050657D01*
X0046650Y0052255D02*
X0014257Y0052255D01*
X0012333Y0053854D02*
X0046650Y0053854D01*
X0046650Y0055452D02*
X0013365Y0055452D01*
X0014589Y0057051D02*
X0046650Y0057051D01*
X0046650Y0058649D02*
X0015100Y0058649D01*
X0015100Y0060248D02*
X0046650Y0060248D01*
X0046650Y0061846D02*
X0015516Y0061846D01*
X0017115Y0063445D02*
X0046650Y0063445D01*
X0046650Y0065043D02*
X0018350Y0065043D01*
X0018350Y0066642D02*
X0045457Y0066642D01*
X0045169Y0068240D02*
X0018350Y0068240D01*
X0018350Y0069839D02*
X0045615Y0069839D01*
X0047570Y0071437D02*
X0018350Y0071437D01*
X0018350Y0073036D02*
X0086523Y0073036D01*
X0087937Y0074634D02*
X0018350Y0074634D01*
X0018350Y0076233D02*
X0085854Y0076233D01*
X0085088Y0077832D02*
X0018350Y0077832D01*
X0018350Y0079430D02*
X0084900Y0079430D01*
X0085196Y0081029D02*
X0018350Y0081029D01*
X0019433Y0082627D02*
X0083703Y0082627D01*
X0082105Y0084226D02*
X0019831Y0084226D01*
X0019495Y0085824D02*
X0080506Y0085824D01*
X0078908Y0087423D02*
X0018069Y0087423D01*
X0015100Y0089021D02*
X0077309Y0089021D01*
X0075711Y0090620D02*
X0014974Y0090620D01*
X0014294Y0092218D02*
X0074112Y0092218D01*
X0072514Y0093817D02*
X0012423Y0093817D01*
X0013328Y0095415D02*
X0070915Y0095415D01*
X0069316Y0097014D02*
X0014573Y0097014D01*
X0015100Y0098612D02*
X0067718Y0098612D01*
X0066119Y0100211D02*
X0015100Y0100211D01*
X0014481Y0101809D02*
X0064521Y0101809D01*
X0062922Y0103408D02*
X0013105Y0103408D01*
X0012919Y0105006D02*
X0061324Y0105006D01*
X0059725Y0106605D02*
X0014404Y0106605D01*
X0015066Y0108203D02*
X0058127Y0108203D01*
X0056528Y0109802D02*
X0015100Y0109802D01*
X0014650Y0111400D02*
X0054930Y0111400D01*
X0053331Y0112999D02*
X0013514Y0112999D01*
X0011974Y0114597D02*
X0051733Y0114597D01*
X0050134Y0116196D02*
X0014108Y0116196D01*
X0014897Y0117794D02*
X0048536Y0117794D01*
X0047900Y0119393D02*
X0015100Y0119393D01*
X0014820Y0120991D02*
X0046994Y0120991D01*
X0046419Y0122590D02*
X0013923Y0122590D01*
X0011525Y0124188D02*
X0046595Y0124188D01*
X0047672Y0125787D02*
X0013699Y0125787D01*
X0014727Y0127385D02*
X0085273Y0127385D01*
X0084900Y0128984D02*
X0015100Y0128984D01*
X0014989Y0130582D02*
X0085011Y0130582D01*
X0085673Y0132181D02*
X0014327Y0132181D01*
X0013290Y0135378D02*
X0086710Y0135378D01*
X0087487Y0133779D02*
X0012513Y0133779D01*
X0014558Y0136976D02*
X0085442Y0136976D01*
X0084900Y0138575D02*
X0015100Y0138575D01*
X0015100Y0140173D02*
X0084900Y0140173D01*
X0085504Y0141772D02*
X0014496Y0141772D01*
X0013142Y0143370D02*
X0086858Y0143370D01*
X0090151Y0144969D02*
X0013056Y0144969D01*
X0014556Y0146568D02*
X0090151Y0146568D01*
X0090151Y0148166D02*
X0015186Y0148166D01*
X0015292Y0149765D02*
X0090151Y0149765D01*
X0090151Y0151363D02*
X0014897Y0151363D01*
X0013834Y0152962D02*
X0090151Y0152962D01*
X0090151Y0154560D02*
X0011884Y0154560D01*
X0014071Y0156159D02*
X0090151Y0156159D01*
X0090151Y0157757D02*
X0014881Y0157757D01*
X0015100Y0159356D02*
X0090151Y0159356D01*
X0090151Y0160954D02*
X0014835Y0160954D01*
X0013960Y0162553D02*
X0090151Y0162553D01*
X0090151Y0164151D02*
X0011615Y0164151D01*
X0013662Y0165750D02*
X0090151Y0165750D01*
X0090151Y0167348D02*
X0014712Y0167348D01*
X0015100Y0168947D02*
X0090151Y0168947D01*
X0090151Y0170545D02*
X0015004Y0170545D01*
X0014342Y0172144D02*
X0090151Y0172144D01*
X0090151Y0173742D02*
X0012602Y0173742D01*
X0013253Y0175341D02*
X0090151Y0175341D01*
X0090151Y0176939D02*
X0014542Y0176939D01*
X0015100Y0178538D02*
X0090151Y0178538D01*
X0090151Y0180136D02*
X0015100Y0180136D01*
X0014512Y0181735D02*
X0090151Y0181735D01*
X0090151Y0183333D02*
X0013179Y0183333D01*
X0009800Y0184932D02*
X0090151Y0184932D01*
X0090151Y0186530D02*
X0090022Y0186530D01*
X0079978Y0186530D02*
X0020022Y0186530D01*
X0021698Y0188129D02*
X0078302Y0188129D01*
X0077044Y0189727D02*
X0022956Y0189727D01*
X0023618Y0191326D02*
X0076382Y0191326D01*
X0075900Y0192924D02*
X0024100Y0192924D01*
X0024100Y0194523D02*
X0075900Y0194523D01*
X0075905Y0196121D02*
X0024095Y0196121D01*
X0023433Y0197720D02*
X0076567Y0197720D01*
X0077229Y0199318D02*
X0022771Y0199318D01*
X0009978Y0186530D02*
X0009800Y0186530D01*
X0052328Y0125787D02*
X0086301Y0125787D01*
X0088475Y0124188D02*
X0053405Y0124188D01*
X0053581Y0122590D02*
X0086077Y0122590D01*
X0085180Y0120991D02*
X0053006Y0120991D01*
X0052877Y0119393D02*
X0084900Y0119393D01*
X0085103Y0117794D02*
X0054476Y0117794D01*
X0056074Y0116196D02*
X0085892Y0116196D01*
X0088026Y0114597D02*
X0057673Y0114597D01*
X0059271Y0112999D02*
X0086486Y0112999D01*
X0085350Y0111400D02*
X0060870Y0111400D01*
X0062468Y0109802D02*
X0084900Y0109802D01*
X0084934Y0108203D02*
X0064067Y0108203D01*
X0065665Y0106605D02*
X0085596Y0106605D01*
X0087081Y0105006D02*
X0067264Y0105006D01*
X0068862Y0103408D02*
X0086895Y0103408D01*
X0085519Y0101809D02*
X0070461Y0101809D01*
X0072059Y0100211D02*
X0084900Y0100211D01*
X0084900Y0098612D02*
X0073658Y0098612D01*
X0075256Y0097014D02*
X0085427Y0097014D01*
X0086672Y0095415D02*
X0076855Y0095415D01*
X0078453Y0093817D02*
X0087577Y0093817D01*
X0085706Y0092218D02*
X0080052Y0092218D01*
X0081650Y0090620D02*
X0085026Y0090620D01*
X0084900Y0089021D02*
X0083249Y0089021D01*
X0084847Y0087423D02*
X0085257Y0087423D01*
X0085365Y0071437D02*
X0054930Y0071437D01*
X0052570Y0071437D02*
X0049930Y0071437D01*
X0055850Y0065043D02*
X0087044Y0065043D01*
X0086932Y0063445D02*
X0055850Y0063445D01*
X0055850Y0061846D02*
X0085535Y0061846D01*
X0084900Y0060248D02*
X0055850Y0060248D01*
X0055850Y0058649D02*
X0084900Y0058649D01*
X0085411Y0057051D02*
X0055850Y0057051D01*
X0055850Y0055452D02*
X0086635Y0055452D01*
X0087667Y0053854D02*
X0055850Y0053854D01*
X0055850Y0052255D02*
X0085743Y0052255D01*
X0085042Y0050657D02*
X0055850Y0050657D01*
X0055850Y0049058D02*
X0084900Y0049058D01*
X0085242Y0047460D02*
X0055850Y0047460D01*
X0056979Y0045861D02*
X0086226Y0045861D01*
X0086152Y0042664D02*
X0058356Y0042664D01*
X0057331Y0044263D02*
X0088654Y0044263D01*
X0081559Y0023482D02*
X0018441Y0023482D01*
X0021276Y0021884D02*
X0078724Y0021884D01*
X0077126Y0020285D02*
X0022874Y0020285D01*
X0023790Y0018687D02*
X0076210Y0018687D01*
X0075547Y0017088D02*
X0024453Y0017088D01*
X0024800Y0015490D02*
X0075200Y0015490D01*
X0075200Y0013891D02*
X0062766Y0013891D01*
X0064497Y0012293D02*
X0075224Y0012293D01*
X0075886Y0010694D02*
X0065159Y0010694D01*
X0057234Y0013891D02*
X0052766Y0013891D01*
X0054497Y0012293D02*
X0055503Y0012293D01*
X0047234Y0013891D02*
X0043038Y0013891D01*
X0044624Y0012293D02*
X0045503Y0012293D01*
X0040200Y0012293D02*
X0039800Y0012293D01*
X0039800Y0013891D02*
X0040200Y0013891D01*
X0040200Y0010694D02*
X0039800Y0010694D01*
X0036962Y0013891D02*
X0024800Y0013891D01*
X0024776Y0012293D02*
X0035376Y0012293D01*
X0034670Y0010694D02*
X0024114Y0010694D01*
X0057043Y0066642D02*
X0085581Y0066642D01*
X0084919Y0068240D02*
X0057331Y0068240D01*
X0056885Y0069839D02*
X0084900Y0069839D01*
D14*
X0053750Y0068050D03*
X0048750Y0068050D03*
X0053750Y0044300D03*
X0053750Y0034300D03*
X0026250Y0100550D03*
X0016250Y0084300D03*
X0050000Y0123050D03*
D15*
X0050000Y0119300D01*
X0090000Y0079300D01*
X0090000Y0039300D02*
X0058750Y0039300D01*
X0053750Y0044300D01*
X0053750Y0068050D01*
X0048750Y0068050D02*
X0048750Y0039300D01*
X0053750Y0034300D01*
X0058750Y0029300D01*
X0090000Y0029300D01*
X0016250Y0065550D02*
X0016250Y0084300D01*
X0016250Y0065550D02*
X0010000Y0059300D01*
M02*
