%
M48
M72
T01C0.02362
T02C0.03937
T03C0.04000
T04C0.09843
T05C0.10000
%
T01
X48750Y68050
X53750Y68050
X53750Y44300
X53750Y34300
X26250Y100550
X16250Y84300
X50000Y123050
T02
X10000Y29300
X10000Y39300
X10000Y49300
X10000Y59300
X10000Y69300
X10000Y79300
X10000Y89300
X10000Y99300
X10000Y109300
X10000Y119300
X10000Y129300
X10000Y139300
X10000Y149300
X10000Y159300
X10000Y169300
X10000Y179300
X90000Y29300
X90000Y39300
X90000Y49300
X90000Y59300
X90000Y69300
X90000Y79300
X90000Y89300
X90000Y99300
X90000Y109300
X90000Y119300
X90000Y129300
X90000Y139300
T03
X40000Y9300
X50000Y9300
X60000Y9300
T04
X15000Y194300
X85000Y194300
T05
X85000Y14300
X15000Y14300
M30
