G75*
%MOIN*%
%OFA0B0*%
%FSLAX25Y25*%
%IPPOS*%
%LPD*%
%AMOC8*
5,1,8,0,0,1.08239X$1,22.5*
%
%ADD10R,0.03937X0.04331*%
%ADD11C,0.07400*%
%ADD12C,0.15000*%
%ADD13C,0.07000*%
%ADD14R,0.04331X0.03937*%
%ADD15R,0.02657X0.00984*%
%ADD16R,0.00984X0.02657*%
%ADD17R,0.01378X0.01969*%
%ADD18R,0.06000X0.03000*%
%ADD19R,0.08661X0.02362*%
%ADD20C,0.01600*%
%ADD21C,0.01000*%
%ADD22C,0.03962*%
D10*
X0037500Y0055954D03*
X0037500Y0062646D03*
X0037500Y0082204D03*
X0037500Y0088896D03*
X0062500Y0088896D03*
X0062500Y0082204D03*
X0063750Y0062646D03*
X0063750Y0055954D03*
D11*
X0060000Y0009300D03*
X0050000Y0009300D03*
X0040000Y0009300D03*
D12*
X0015000Y0194300D03*
X0085000Y0194300D03*
D13*
X0090000Y0139300D03*
X0090000Y0129300D03*
X0090000Y0119300D03*
X0090000Y0109300D03*
X0090000Y0099300D03*
X0090000Y0089300D03*
X0090000Y0079300D03*
X0090000Y0069300D03*
X0090000Y0059300D03*
X0090000Y0049300D03*
X0090000Y0039300D03*
X0090000Y0029300D03*
X0010000Y0029300D03*
X0010000Y0039300D03*
X0010000Y0049300D03*
X0010000Y0059300D03*
X0010000Y0069300D03*
X0010000Y0079300D03*
X0010000Y0089300D03*
X0010000Y0099300D03*
X0010000Y0109300D03*
X0010000Y0119300D03*
X0010000Y0129300D03*
X0010000Y0139300D03*
X0010000Y0149300D03*
X0010000Y0159300D03*
X0010000Y0169300D03*
X0010000Y0179300D03*
D14*
X0046654Y0178050D03*
X0053346Y0178050D03*
X0053346Y0138050D03*
X0046654Y0138050D03*
X0046654Y0039300D03*
X0046654Y0029300D03*
X0053346Y0029300D03*
X0053346Y0039300D03*
D15*
X0054970Y0079644D03*
X0054970Y0081613D03*
X0054970Y0083581D03*
X0054970Y0085550D03*
X0054970Y0087519D03*
X0054970Y0089487D03*
X0054970Y0091456D03*
X0045030Y0091456D03*
X0045030Y0089487D03*
X0045030Y0087519D03*
X0045030Y0085550D03*
X0045030Y0083581D03*
X0045030Y0081613D03*
X0045030Y0079644D03*
D16*
X0048031Y0077627D03*
X0050000Y0077627D03*
X0051969Y0077627D03*
X0051969Y0093473D03*
X0050000Y0093473D03*
X0048031Y0093473D03*
D17*
X0048720Y0063335D03*
X0051280Y0063335D03*
X0053839Y0063335D03*
X0053839Y0055265D03*
X0051280Y0055265D03*
X0048720Y0055265D03*
X0046161Y0055265D03*
X0046161Y0063335D03*
D18*
X0039000Y0185550D03*
X0039000Y0200550D03*
X0061000Y0200550D03*
X0061000Y0185550D03*
D19*
X0063110Y0123050D03*
X0063110Y0118050D03*
X0063110Y0113050D03*
X0063110Y0108050D03*
X0036890Y0108050D03*
X0036890Y0113050D03*
X0036890Y0118050D03*
X0036890Y0123050D03*
D20*
X0009800Y0024200D02*
X0009800Y0022754D01*
X0013051Y0024100D01*
X0016949Y0024100D01*
X0020551Y0022608D01*
X0023308Y0019851D01*
X0024800Y0016249D01*
X0024800Y0012351D01*
X0023454Y0009100D01*
X0039800Y0009100D01*
X0039800Y0009500D01*
X0039800Y0014800D01*
X0039567Y0014800D01*
X0038712Y0014665D01*
X0037889Y0014397D01*
X0037117Y0014004D01*
X0036417Y0013495D01*
X0035805Y0012883D01*
X0035296Y0012183D01*
X0034903Y0011411D01*
X0034635Y0010588D01*
X0034500Y0009733D01*
X0034500Y0009500D01*
X0039800Y0009500D01*
X0040200Y0009500D01*
X0040200Y0014800D01*
X0040433Y0014800D01*
X0041288Y0014665D01*
X0042111Y0014397D01*
X0042883Y0014004D01*
X0043583Y0013495D01*
X0044195Y0012883D01*
X0044704Y0012183D01*
X0045097Y0011411D01*
X0045115Y0011356D01*
X0045507Y0012302D01*
X0046998Y0013793D01*
X0048946Y0014600D01*
X0051054Y0014600D01*
X0051656Y0014351D01*
X0077600Y0040294D01*
X0077600Y0129777D01*
X0077965Y0130659D01*
X0078641Y0131335D01*
X0085103Y0137797D01*
X0084900Y0138286D01*
X0084900Y0140314D01*
X0085676Y0142189D01*
X0087111Y0143624D01*
X0088986Y0144400D01*
X0090151Y0144400D01*
X0090151Y0186584D01*
X0086810Y0185200D01*
X0083190Y0185200D01*
X0079845Y0186585D01*
X0077285Y0189145D01*
X0075900Y0192490D01*
X0075900Y0196110D01*
X0077285Y0199455D01*
X0077291Y0199461D01*
X0065600Y0199461D01*
X0065600Y0198387D01*
X0064663Y0197450D01*
X0057337Y0197450D01*
X0056400Y0198387D01*
X0056400Y0199461D01*
X0043800Y0199461D01*
X0043800Y0198813D01*
X0043677Y0198355D01*
X0043440Y0197945D01*
X0043105Y0197610D01*
X0042695Y0197373D01*
X0042237Y0197250D01*
X0039000Y0197250D01*
X0039000Y0199461D01*
X0039000Y0199461D01*
X0039000Y0197250D01*
X0035763Y0197250D01*
X0035305Y0197373D01*
X0034895Y0197610D01*
X0034560Y0197945D01*
X0034323Y0198355D01*
X0034200Y0198813D01*
X0034200Y0199461D01*
X0022709Y0199461D01*
X0022715Y0199455D01*
X0024100Y0196110D01*
X0024100Y0192490D01*
X0022715Y0189145D01*
X0020155Y0186585D01*
X0016810Y0185200D01*
X0013190Y0185200D01*
X0009845Y0186585D01*
X0009800Y0186631D01*
X0009800Y0184400D01*
X0011014Y0184400D01*
X0012889Y0183624D01*
X0014324Y0182189D01*
X0014650Y0181400D01*
X0031880Y0181400D01*
X0034400Y0183920D01*
X0034400Y0187713D01*
X0035337Y0188650D01*
X0042663Y0188650D01*
X0043600Y0187713D01*
X0043600Y0184073D01*
X0046055Y0181618D01*
X0049482Y0181618D01*
X0050000Y0181100D01*
X0050518Y0181618D01*
X0056175Y0181618D01*
X0057112Y0180681D01*
X0057112Y0175419D01*
X0056175Y0174481D01*
X0055446Y0174481D01*
X0055446Y0141618D01*
X0056175Y0141618D01*
X0057112Y0140681D01*
X0057112Y0137254D01*
X0065210Y0129156D01*
X0065210Y0125831D01*
X0068104Y0125831D01*
X0069041Y0124894D01*
X0069041Y0124479D01*
X0072120Y0121400D01*
X0073350Y0120170D01*
X0073350Y0062584D01*
X0067318Y0056552D01*
X0067318Y0053125D01*
X0066381Y0052188D01*
X0062954Y0052188D01*
X0061696Y0050930D01*
X0060466Y0049700D01*
X0051630Y0049700D01*
X0051250Y0050080D01*
X0050870Y0049700D01*
X0049600Y0049700D01*
X0049600Y0042750D01*
X0050000Y0042350D01*
X0050482Y0042832D01*
X0050169Y0043588D01*
X0050169Y0045012D01*
X0050714Y0046329D01*
X0051721Y0047336D01*
X0053038Y0047881D01*
X0054462Y0047881D01*
X0055779Y0047336D01*
X0056786Y0046329D01*
X0057331Y0045012D01*
X0057331Y0043588D01*
X0056786Y0042271D01*
X0056779Y0042264D01*
X0057112Y0041931D01*
X0057112Y0036669D01*
X0056779Y0036336D01*
X0056786Y0036329D01*
X0057331Y0035012D01*
X0057331Y0033588D01*
X0056786Y0032271D01*
X0056779Y0032264D01*
X0057112Y0031931D01*
X0057112Y0026669D01*
X0056175Y0025731D01*
X0050518Y0025731D01*
X0050000Y0026250D01*
X0049482Y0025731D01*
X0043825Y0025731D01*
X0042888Y0026669D01*
X0042888Y0031931D01*
X0043825Y0032868D01*
X0045400Y0032868D01*
X0045400Y0035731D01*
X0043825Y0035731D01*
X0042888Y0036669D01*
X0042888Y0041931D01*
X0043825Y0042868D01*
X0045400Y0042868D01*
X0045400Y0050930D01*
X0045292Y0051039D01*
X0044061Y0052269D01*
X0044061Y0053165D01*
X0041068Y0053165D01*
X0041068Y0053125D01*
X0040131Y0052188D01*
X0034869Y0052188D01*
X0033931Y0053125D01*
X0033931Y0058782D01*
X0034308Y0059159D01*
X0034091Y0059376D01*
X0033854Y0059786D01*
X0033731Y0060244D01*
X0033731Y0062462D01*
X0037316Y0062462D01*
X0037316Y0062831D01*
X0037316Y0066612D01*
X0035295Y0066612D01*
X0034837Y0066489D01*
X0034426Y0066252D01*
X0034091Y0065917D01*
X0033854Y0065507D01*
X0033731Y0065049D01*
X0033731Y0062831D01*
X0037316Y0062831D01*
X0037684Y0062831D01*
X0037684Y0066612D01*
X0039705Y0066612D01*
X0040163Y0066489D01*
X0040574Y0066252D01*
X0040909Y0065917D01*
X0041146Y0065507D01*
X0041268Y0065049D01*
X0041268Y0062831D01*
X0037684Y0062831D01*
X0037684Y0062462D01*
X0041268Y0062462D01*
X0041268Y0060244D01*
X0041146Y0059786D01*
X0040909Y0059376D01*
X0040692Y0059159D01*
X0041068Y0058782D01*
X0041068Y0057365D01*
X0044325Y0057365D01*
X0044810Y0057849D01*
X0047203Y0057849D01*
X0047337Y0057926D01*
X0047795Y0058049D01*
X0048281Y0058049D01*
X0047851Y0058480D01*
X0046620Y0059710D01*
X0046620Y0060551D01*
X0046161Y0060551D01*
X0046161Y0063335D01*
X0046161Y0063335D01*
X0043672Y0063335D01*
X0043672Y0062114D01*
X0043795Y0061656D01*
X0044032Y0061246D01*
X0044367Y0060911D01*
X0044778Y0060674D01*
X0045235Y0060551D01*
X0046161Y0060551D01*
X0046161Y0063335D01*
X0046161Y0063335D01*
X0043672Y0063335D01*
X0043672Y0064557D01*
X0043795Y0065014D01*
X0044032Y0065425D01*
X0044367Y0065760D01*
X0044778Y0065997D01*
X0045235Y0066120D01*
X0045673Y0066120D01*
X0045169Y0067338D01*
X0045169Y0068661D01*
X0042930Y0070901D01*
X0042930Y0077661D01*
X0042101Y0078490D01*
X0042101Y0080292D01*
X0042023Y0080426D01*
X0041901Y0080884D01*
X0041901Y0081481D01*
X0041068Y0081481D01*
X0041068Y0079375D01*
X0040131Y0078438D01*
X0034869Y0078438D01*
X0033931Y0079375D01*
X0033931Y0085032D01*
X0034308Y0085409D01*
X0034091Y0085626D01*
X0033854Y0086036D01*
X0033731Y0086494D01*
X0033731Y0088712D01*
X0037316Y0088712D01*
X0037316Y0089081D01*
X0037316Y0092862D01*
X0036532Y0092862D01*
X0049620Y0105950D01*
X0057436Y0105950D01*
X0058117Y0105269D01*
X0068104Y0105269D01*
X0069041Y0106206D01*
X0069041Y0109894D01*
X0068385Y0110550D01*
X0069041Y0111206D01*
X0069041Y0114894D01*
X0068385Y0115550D01*
X0069041Y0116206D01*
X0069041Y0118539D01*
X0069150Y0118430D01*
X0069150Y0064323D01*
X0067289Y0062462D01*
X0065850Y0062462D01*
X0065850Y0062831D01*
X0067518Y0062831D01*
X0067518Y0065049D01*
X0067396Y0065507D01*
X0067159Y0065917D01*
X0066824Y0066252D01*
X0066413Y0066489D01*
X0065955Y0066612D01*
X0065850Y0066612D01*
X0065850Y0078874D01*
X0065909Y0078933D01*
X0066146Y0079343D01*
X0066268Y0079801D01*
X0066268Y0082019D01*
X0065850Y0082019D01*
X0065850Y0082388D01*
X0066268Y0082388D01*
X0066268Y0084606D01*
X0066146Y0085064D01*
X0065909Y0085474D01*
X0065692Y0085691D01*
X0066068Y0086068D01*
X0066068Y0091725D01*
X0065131Y0092662D01*
X0059869Y0092662D01*
X0058931Y0091725D01*
X0058931Y0089618D01*
X0057899Y0089618D01*
X0057899Y0092610D01*
X0056962Y0093548D01*
X0054261Y0093548D01*
X0054261Y0095039D01*
X0054138Y0095497D01*
X0053901Y0095907D01*
X0053566Y0096242D01*
X0053155Y0096479D01*
X0052698Y0096602D01*
X0051969Y0096602D01*
X0051969Y0095588D01*
X0051968Y0095588D01*
X0051968Y0096602D01*
X0051239Y0096602D01*
X0050782Y0096479D01*
X0050648Y0096402D01*
X0046877Y0096402D01*
X0045939Y0095465D01*
X0045939Y0093748D01*
X0045030Y0093748D01*
X0045030Y0091579D01*
X0045029Y0091579D01*
X0045029Y0093748D01*
X0043464Y0093748D01*
X0043006Y0093625D01*
X0042596Y0093388D01*
X0042260Y0093053D01*
X0042023Y0092642D01*
X0041901Y0092185D01*
X0041901Y0091456D01*
X0042914Y0091456D01*
X0042914Y0091455D01*
X0041901Y0091455D01*
X0041901Y0090726D01*
X0042023Y0090269D01*
X0042101Y0090135D01*
X0042101Y0085681D01*
X0040941Y0085681D01*
X0041146Y0086036D01*
X0041268Y0086494D01*
X0041268Y0088712D01*
X0037684Y0088712D01*
X0037684Y0089081D01*
X0037316Y0089081D01*
X0033731Y0089081D01*
X0033731Y0090062D01*
X0014773Y0071103D01*
X0015100Y0070314D01*
X0015100Y0068286D01*
X0014324Y0066411D01*
X0012889Y0064976D01*
X0011256Y0064300D01*
X0012889Y0063624D01*
X0014324Y0062189D01*
X0015100Y0060314D01*
X0015100Y0058286D01*
X0014324Y0056411D01*
X0012889Y0054976D01*
X0011256Y0054300D01*
X0012889Y0053624D01*
X0014324Y0052189D01*
X0015100Y0050314D01*
X0015100Y0048286D01*
X0014324Y0046411D01*
X0012889Y0044976D01*
X0011256Y0044300D01*
X0012889Y0043624D01*
X0014324Y0042189D01*
X0015100Y0040314D01*
X0015100Y0038286D01*
X0014324Y0036411D01*
X0012889Y0034976D01*
X0011256Y0034300D01*
X0012889Y0033624D01*
X0014324Y0032189D01*
X0015100Y0030314D01*
X0015100Y0028286D01*
X0014324Y0026411D01*
X0012889Y0024976D01*
X0011014Y0024200D01*
X0009800Y0024200D01*
X0009800Y0023482D02*
X0011559Y0023482D01*
X0012993Y0025081D02*
X0062387Y0025081D01*
X0063985Y0026679D02*
X0057112Y0026679D01*
X0057112Y0028278D02*
X0065584Y0028278D01*
X0067182Y0029876D02*
X0057112Y0029876D01*
X0057112Y0031475D02*
X0068781Y0031475D01*
X0070379Y0033073D02*
X0057118Y0033073D01*
X0057331Y0034672D02*
X0071978Y0034672D01*
X0073576Y0036270D02*
X0056810Y0036270D01*
X0057112Y0037869D02*
X0075175Y0037869D01*
X0076773Y0039467D02*
X0057112Y0039467D01*
X0057112Y0041066D02*
X0077600Y0041066D01*
X0077600Y0042664D02*
X0056949Y0042664D01*
X0057331Y0044263D02*
X0077600Y0044263D01*
X0077600Y0045861D02*
X0056979Y0045861D01*
X0055479Y0047460D02*
X0077600Y0047460D01*
X0077600Y0049058D02*
X0049600Y0049058D01*
X0049600Y0047460D02*
X0052021Y0047460D01*
X0050521Y0045861D02*
X0049600Y0045861D01*
X0049600Y0044263D02*
X0050169Y0044263D01*
X0050314Y0042664D02*
X0049686Y0042664D01*
X0045400Y0044263D02*
X0011346Y0044263D01*
X0013774Y0045861D02*
X0045400Y0045861D01*
X0045400Y0047460D02*
X0014758Y0047460D01*
X0015100Y0049058D02*
X0045400Y0049058D01*
X0045400Y0050657D02*
X0014958Y0050657D01*
X0014257Y0052255D02*
X0034802Y0052255D01*
X0033931Y0053854D02*
X0012333Y0053854D01*
X0013365Y0055452D02*
X0033931Y0055452D01*
X0033931Y0057051D02*
X0014589Y0057051D01*
X0015100Y0058649D02*
X0033931Y0058649D01*
X0033731Y0060248D02*
X0015100Y0060248D01*
X0014465Y0061846D02*
X0033731Y0061846D01*
X0033731Y0063445D02*
X0013068Y0063445D01*
X0012956Y0065043D02*
X0033731Y0065043D01*
X0037316Y0065043D02*
X0037684Y0065043D01*
X0037684Y0063445D02*
X0037316Y0063445D01*
X0041068Y0058649D02*
X0047681Y0058649D01*
X0046620Y0060248D02*
X0041268Y0060248D01*
X0041268Y0061846D02*
X0043744Y0061846D01*
X0043672Y0063445D02*
X0041268Y0063445D01*
X0041268Y0065043D02*
X0043812Y0065043D01*
X0045169Y0068240D02*
X0015081Y0068240D01*
X0015100Y0069839D02*
X0043991Y0069839D01*
X0042930Y0071437D02*
X0015107Y0071437D01*
X0016706Y0073036D02*
X0042930Y0073036D01*
X0042930Y0074634D02*
X0018304Y0074634D01*
X0019903Y0076233D02*
X0042930Y0076233D01*
X0042759Y0077832D02*
X0021501Y0077832D01*
X0023100Y0079430D02*
X0033931Y0079430D01*
X0033931Y0081029D02*
X0024698Y0081029D01*
X0026297Y0082627D02*
X0033931Y0082627D01*
X0033931Y0084226D02*
X0027895Y0084226D01*
X0029494Y0085824D02*
X0033977Y0085824D01*
X0033731Y0087423D02*
X0031092Y0087423D01*
X0032691Y0089021D02*
X0037316Y0089021D01*
X0037684Y0089021D02*
X0042101Y0089021D01*
X0041268Y0089081D02*
X0041268Y0091299D01*
X0041146Y0091757D01*
X0040909Y0092167D01*
X0040574Y0092502D01*
X0040163Y0092739D01*
X0039705Y0092862D01*
X0037684Y0092862D01*
X0037684Y0089081D01*
X0041268Y0089081D01*
X0041268Y0090620D02*
X0041929Y0090620D01*
X0041910Y0092218D02*
X0040858Y0092218D01*
X0039085Y0095415D02*
X0045939Y0095415D01*
X0045939Y0093817D02*
X0037486Y0093817D01*
X0037316Y0092218D02*
X0037684Y0092218D01*
X0037684Y0090620D02*
X0037316Y0090620D01*
X0041023Y0085824D02*
X0042101Y0085824D01*
X0042101Y0087423D02*
X0041268Y0087423D01*
X0045029Y0092218D02*
X0045030Y0092218D01*
X0042282Y0098612D02*
X0069150Y0098612D01*
X0069150Y0097014D02*
X0040683Y0097014D01*
X0043881Y0100211D02*
X0069150Y0100211D01*
X0069150Y0101809D02*
X0045479Y0101809D01*
X0047078Y0103408D02*
X0069150Y0103408D01*
X0069150Y0105006D02*
X0048676Y0105006D01*
X0045380Y0111400D02*
X0042820Y0111400D01*
X0042820Y0111206D02*
X0042820Y0114894D01*
X0042164Y0115550D01*
X0042820Y0116206D01*
X0042820Y0119894D01*
X0042164Y0120550D01*
X0042564Y0120950D01*
X0047036Y0120950D01*
X0047971Y0120014D01*
X0049288Y0119469D01*
X0050712Y0119469D01*
X0052029Y0120014D01*
X0053036Y0121021D01*
X0053581Y0122338D01*
X0053581Y0123762D01*
X0053036Y0125079D01*
X0052029Y0126086D01*
X0050712Y0126631D01*
X0049288Y0126631D01*
X0047971Y0126086D01*
X0047036Y0125150D01*
X0042564Y0125150D01*
X0041883Y0125831D01*
X0031896Y0125831D01*
X0030959Y0124894D01*
X0030959Y0121206D01*
X0031615Y0120550D01*
X0031215Y0120150D01*
X0030380Y0120150D01*
X0029150Y0118920D01*
X0014150Y0103920D01*
X0014150Y0102362D01*
X0012889Y0103624D01*
X0011256Y0104300D01*
X0012889Y0104976D01*
X0014324Y0106411D01*
X0015100Y0108286D01*
X0015100Y0110314D01*
X0014324Y0112189D01*
X0012889Y0113624D01*
X0011256Y0114300D01*
X0012889Y0114976D01*
X0014324Y0116411D01*
X0015100Y0118286D01*
X0015100Y0120314D01*
X0014324Y0122189D01*
X0012889Y0123624D01*
X0011256Y0124300D01*
X0012889Y0124976D01*
X0014324Y0126411D01*
X0015100Y0128286D01*
X0015100Y0130314D01*
X0014324Y0132189D01*
X0012889Y0133624D01*
X0011256Y0134300D01*
X0012889Y0134976D01*
X0014324Y0136411D01*
X0015100Y0138286D01*
X0015100Y0140314D01*
X0014324Y0142189D01*
X0012889Y0143624D01*
X0011479Y0144208D01*
X0012034Y0144388D01*
X0012778Y0144767D01*
X0013453Y0145257D01*
X0014043Y0145847D01*
X0014533Y0146522D01*
X0014912Y0147266D01*
X0015169Y0148059D01*
X0015300Y0148883D01*
X0015300Y0149116D01*
X0010184Y0149116D01*
X0010184Y0149484D01*
X0015300Y0149484D01*
X0015300Y0149717D01*
X0015169Y0150541D01*
X0014912Y0151334D01*
X0014533Y0152078D01*
X0014043Y0152753D01*
X0013453Y0153343D01*
X0012778Y0153833D01*
X0012034Y0154212D01*
X0011479Y0154392D01*
X0012889Y0154976D01*
X0014324Y0156411D01*
X0015100Y0158286D01*
X0015100Y0160314D01*
X0014324Y0162189D01*
X0012889Y0163624D01*
X0011256Y0164300D01*
X0012889Y0164976D01*
X0014324Y0166411D01*
X0014650Y0167200D01*
X0051246Y0167200D01*
X0051246Y0141618D01*
X0050518Y0141618D01*
X0050141Y0141242D01*
X0049924Y0141459D01*
X0049514Y0141696D01*
X0049056Y0141818D01*
X0046838Y0141818D01*
X0046838Y0138234D01*
X0046469Y0138234D01*
X0046469Y0137866D01*
X0042688Y0137866D01*
X0042688Y0135845D01*
X0042811Y0135387D01*
X0043048Y0134976D01*
X0043383Y0134641D01*
X0043793Y0134404D01*
X0044251Y0134281D01*
X0046469Y0134281D01*
X0046469Y0137866D01*
X0046838Y0137866D01*
X0046838Y0134281D01*
X0049056Y0134281D01*
X0049514Y0134404D01*
X0049924Y0134641D01*
X0050141Y0134858D01*
X0050518Y0134481D01*
X0053945Y0134481D01*
X0061010Y0127416D01*
X0061010Y0125831D01*
X0058117Y0125831D01*
X0057180Y0124894D01*
X0057180Y0121206D01*
X0057836Y0120550D01*
X0057180Y0119894D01*
X0057180Y0116206D01*
X0057836Y0115550D01*
X0057436Y0115150D01*
X0049130Y0115150D01*
X0043020Y0109040D01*
X0043020Y0109468D01*
X0042898Y0109926D01*
X0042661Y0110336D01*
X0042326Y0110671D01*
X0042300Y0110686D01*
X0042820Y0111206D01*
X0042931Y0109802D02*
X0043782Y0109802D01*
X0042820Y0112999D02*
X0046979Y0112999D01*
X0048577Y0114597D02*
X0042820Y0114597D01*
X0042810Y0116196D02*
X0057190Y0116196D01*
X0057180Y0117794D02*
X0042820Y0117794D01*
X0042820Y0119393D02*
X0057180Y0119393D01*
X0057394Y0120991D02*
X0053006Y0120991D01*
X0053581Y0122590D02*
X0057180Y0122590D01*
X0057180Y0124188D02*
X0053405Y0124188D01*
X0052328Y0125787D02*
X0058073Y0125787D01*
X0059443Y0128984D02*
X0015100Y0128984D01*
X0014989Y0130582D02*
X0057844Y0130582D01*
X0056246Y0132181D02*
X0014327Y0132181D01*
X0013290Y0135378D02*
X0042816Y0135378D01*
X0042688Y0136976D02*
X0014558Y0136976D01*
X0015100Y0138575D02*
X0042688Y0138575D01*
X0042688Y0138234D02*
X0046469Y0138234D01*
X0046469Y0141818D01*
X0044251Y0141818D01*
X0043793Y0141696D01*
X0043383Y0141459D01*
X0043048Y0141124D01*
X0042811Y0140713D01*
X0042688Y0140255D01*
X0042688Y0138234D01*
X0042688Y0140173D02*
X0015100Y0140173D01*
X0014496Y0141772D02*
X0044078Y0141772D01*
X0046469Y0141772D02*
X0046838Y0141772D01*
X0046838Y0140173D02*
X0046469Y0140173D01*
X0046469Y0138575D02*
X0046838Y0138575D01*
X0046838Y0136976D02*
X0046469Y0136976D01*
X0046469Y0135378D02*
X0046838Y0135378D01*
X0049229Y0141772D02*
X0051246Y0141772D01*
X0051246Y0143370D02*
X0013142Y0143370D01*
X0013056Y0144969D02*
X0051246Y0144969D01*
X0051246Y0146568D02*
X0014556Y0146568D01*
X0015186Y0148166D02*
X0051246Y0148166D01*
X0051246Y0149765D02*
X0015292Y0149765D01*
X0014897Y0151363D02*
X0051246Y0151363D01*
X0051246Y0152962D02*
X0013834Y0152962D01*
X0014071Y0156159D02*
X0051246Y0156159D01*
X0051246Y0157757D02*
X0014881Y0157757D01*
X0015100Y0159356D02*
X0051246Y0159356D01*
X0051246Y0160954D02*
X0014835Y0160954D01*
X0013960Y0162553D02*
X0051246Y0162553D01*
X0051246Y0164151D02*
X0011615Y0164151D01*
X0013662Y0165750D02*
X0051246Y0165750D01*
X0055446Y0165750D02*
X0090151Y0165750D01*
X0090151Y0167348D02*
X0055446Y0167348D01*
X0055446Y0168947D02*
X0090151Y0168947D01*
X0090151Y0170545D02*
X0055446Y0170545D01*
X0055446Y0172144D02*
X0090151Y0172144D01*
X0090151Y0173742D02*
X0055446Y0173742D01*
X0057034Y0175341D02*
X0090151Y0175341D01*
X0090151Y0176939D02*
X0057112Y0176939D01*
X0057112Y0178538D02*
X0090151Y0178538D01*
X0090151Y0180136D02*
X0057112Y0180136D01*
X0057337Y0182450D02*
X0056400Y0183387D01*
X0056400Y0187713D01*
X0057337Y0188650D01*
X0064663Y0188650D01*
X0065600Y0187713D01*
X0065600Y0183387D01*
X0064663Y0182450D01*
X0057337Y0182450D01*
X0056454Y0183333D02*
X0044340Y0183333D01*
X0043600Y0184932D02*
X0056400Y0184932D01*
X0056400Y0186530D02*
X0043600Y0186530D01*
X0043184Y0188129D02*
X0056816Y0188129D01*
X0057067Y0197720D02*
X0043215Y0197720D01*
X0043800Y0199318D02*
X0056400Y0199318D01*
X0064933Y0197720D02*
X0076567Y0197720D01*
X0077229Y0199318D02*
X0065600Y0199318D01*
X0065184Y0188129D02*
X0078302Y0188129D01*
X0077044Y0189727D02*
X0022956Y0189727D01*
X0023618Y0191326D02*
X0076382Y0191326D01*
X0075900Y0192924D02*
X0024100Y0192924D01*
X0024100Y0194523D02*
X0075900Y0194523D01*
X0075905Y0196121D02*
X0024095Y0196121D01*
X0023433Y0197720D02*
X0034785Y0197720D01*
X0034200Y0199318D02*
X0022771Y0199318D01*
X0021698Y0188129D02*
X0034816Y0188129D01*
X0034400Y0186530D02*
X0020022Y0186530D01*
X0014512Y0181735D02*
X0032215Y0181735D01*
X0033813Y0183333D02*
X0013179Y0183333D01*
X0009800Y0184932D02*
X0034400Y0184932D01*
X0039000Y0197720D02*
X0039000Y0197720D01*
X0039000Y0199318D02*
X0039000Y0199318D01*
X0045939Y0181735D02*
X0090151Y0181735D01*
X0090151Y0183333D02*
X0065546Y0183333D01*
X0065600Y0184932D02*
X0090151Y0184932D01*
X0090151Y0186530D02*
X0090022Y0186530D01*
X0079978Y0186530D02*
X0065600Y0186530D01*
X0055446Y0164151D02*
X0090151Y0164151D01*
X0090151Y0162553D02*
X0055446Y0162553D01*
X0055446Y0160954D02*
X0090151Y0160954D01*
X0090151Y0159356D02*
X0055446Y0159356D01*
X0055446Y0157757D02*
X0090151Y0157757D01*
X0090151Y0156159D02*
X0055446Y0156159D01*
X0055446Y0154560D02*
X0090151Y0154560D01*
X0090151Y0152962D02*
X0055446Y0152962D01*
X0055446Y0151363D02*
X0090151Y0151363D01*
X0090151Y0149765D02*
X0055446Y0149765D01*
X0055446Y0148166D02*
X0090151Y0148166D01*
X0090151Y0146568D02*
X0055446Y0146568D01*
X0055446Y0144969D02*
X0090151Y0144969D01*
X0086858Y0143370D02*
X0055446Y0143370D01*
X0055446Y0141772D02*
X0085504Y0141772D01*
X0084900Y0140173D02*
X0057112Y0140173D01*
X0057112Y0138575D02*
X0084900Y0138575D01*
X0084282Y0136976D02*
X0057390Y0136976D01*
X0058988Y0135378D02*
X0082684Y0135378D01*
X0081085Y0133779D02*
X0060587Y0133779D01*
X0062185Y0132181D02*
X0079487Y0132181D01*
X0077933Y0130582D02*
X0063784Y0130582D01*
X0065210Y0128984D02*
X0077600Y0128984D01*
X0077600Y0127385D02*
X0065210Y0127385D01*
X0068148Y0125787D02*
X0077600Y0125787D01*
X0077600Y0124188D02*
X0069331Y0124188D01*
X0070930Y0122590D02*
X0077600Y0122590D01*
X0077600Y0120991D02*
X0072529Y0120991D01*
X0073350Y0119393D02*
X0077600Y0119393D01*
X0077600Y0117794D02*
X0073350Y0117794D01*
X0073350Y0116196D02*
X0077600Y0116196D01*
X0077600Y0114597D02*
X0073350Y0114597D01*
X0073350Y0112999D02*
X0077600Y0112999D01*
X0077600Y0111400D02*
X0073350Y0111400D01*
X0073350Y0109802D02*
X0077600Y0109802D01*
X0077600Y0108203D02*
X0073350Y0108203D01*
X0073350Y0106605D02*
X0077600Y0106605D01*
X0077600Y0105006D02*
X0073350Y0105006D01*
X0073350Y0103408D02*
X0077600Y0103408D01*
X0077600Y0101809D02*
X0073350Y0101809D01*
X0073350Y0100211D02*
X0077600Y0100211D01*
X0077600Y0098612D02*
X0073350Y0098612D01*
X0073350Y0097014D02*
X0077600Y0097014D01*
X0077600Y0095415D02*
X0073350Y0095415D01*
X0073350Y0093817D02*
X0077600Y0093817D01*
X0077600Y0092218D02*
X0073350Y0092218D01*
X0073350Y0090620D02*
X0077600Y0090620D01*
X0077600Y0089021D02*
X0073350Y0089021D01*
X0073350Y0087423D02*
X0077600Y0087423D01*
X0077600Y0085824D02*
X0073350Y0085824D01*
X0073350Y0084226D02*
X0077600Y0084226D01*
X0077600Y0082627D02*
X0073350Y0082627D01*
X0073350Y0081029D02*
X0077600Y0081029D01*
X0077600Y0079430D02*
X0073350Y0079430D01*
X0073350Y0077832D02*
X0077600Y0077832D01*
X0077600Y0076233D02*
X0073350Y0076233D01*
X0073350Y0074634D02*
X0077600Y0074634D01*
X0077600Y0073036D02*
X0073350Y0073036D01*
X0073350Y0071437D02*
X0077600Y0071437D01*
X0077600Y0069839D02*
X0073350Y0069839D01*
X0073350Y0068240D02*
X0077600Y0068240D01*
X0077600Y0066642D02*
X0073350Y0066642D01*
X0073350Y0065043D02*
X0077600Y0065043D01*
X0077600Y0063445D02*
X0073350Y0063445D01*
X0072613Y0061846D02*
X0077600Y0061846D01*
X0077600Y0060248D02*
X0071014Y0060248D01*
X0069416Y0058649D02*
X0077600Y0058649D01*
X0077600Y0057051D02*
X0067817Y0057051D01*
X0067318Y0055452D02*
X0077600Y0055452D01*
X0077600Y0053854D02*
X0067318Y0053854D01*
X0066448Y0052255D02*
X0077600Y0052255D01*
X0077600Y0050657D02*
X0061423Y0050657D01*
X0058727Y0053900D02*
X0060181Y0055355D01*
X0060181Y0058782D01*
X0060558Y0059159D01*
X0060341Y0059376D01*
X0060104Y0059786D01*
X0059981Y0060244D01*
X0059981Y0062462D01*
X0061650Y0062462D01*
X0061650Y0062831D01*
X0059981Y0062831D01*
X0059981Y0065049D01*
X0060104Y0065507D01*
X0060341Y0065917D01*
X0060676Y0066252D01*
X0061087Y0066489D01*
X0061545Y0066612D01*
X0061650Y0066612D01*
X0061650Y0078238D01*
X0060295Y0078238D01*
X0059837Y0078361D01*
X0059426Y0078598D01*
X0059091Y0078933D01*
X0058854Y0079343D01*
X0058731Y0079801D01*
X0058731Y0082019D01*
X0061650Y0082019D01*
X0061650Y0082388D01*
X0058731Y0082388D01*
X0058731Y0084606D01*
X0058854Y0085064D01*
X0059059Y0085419D01*
X0058099Y0085419D01*
X0058099Y0084821D01*
X0057977Y0084363D01*
X0057899Y0084229D01*
X0057899Y0082934D01*
X0057977Y0082800D01*
X0058099Y0082342D01*
X0058099Y0081613D01*
X0057086Y0081613D01*
X0057086Y0081613D01*
X0058099Y0081613D01*
X0058099Y0080884D01*
X0057977Y0080426D01*
X0057899Y0080292D01*
X0057899Y0079371D01*
X0058370Y0078900D01*
X0059600Y0077670D01*
X0059600Y0062180D01*
X0057100Y0059680D01*
X0055870Y0058450D01*
X0054620Y0058450D01*
X0054219Y0058049D01*
X0054765Y0058049D01*
X0055222Y0057926D01*
X0055633Y0057689D01*
X0055968Y0057354D01*
X0056205Y0056944D01*
X0056328Y0056486D01*
X0056328Y0055265D01*
X0053839Y0055265D01*
X0053839Y0055264D01*
X0056328Y0055264D01*
X0056328Y0054043D01*
X0056289Y0053900D01*
X0058727Y0053900D01*
X0060181Y0055452D02*
X0056328Y0055452D01*
X0056143Y0057051D02*
X0060181Y0057051D01*
X0060181Y0058649D02*
X0056069Y0058649D01*
X0057668Y0060248D02*
X0059981Y0060248D01*
X0059981Y0061846D02*
X0059266Y0061846D01*
X0059600Y0063445D02*
X0059981Y0063445D01*
X0059981Y0065043D02*
X0059600Y0065043D01*
X0059600Y0066642D02*
X0061650Y0066642D01*
X0061650Y0068240D02*
X0059600Y0068240D01*
X0059600Y0069839D02*
X0061650Y0069839D01*
X0061650Y0071437D02*
X0059600Y0071437D01*
X0059600Y0073036D02*
X0061650Y0073036D01*
X0061650Y0074634D02*
X0059600Y0074634D01*
X0059600Y0076233D02*
X0061650Y0076233D01*
X0061650Y0077832D02*
X0059438Y0077832D01*
X0058831Y0079430D02*
X0057899Y0079430D01*
X0058099Y0081029D02*
X0058731Y0081029D01*
X0058731Y0082627D02*
X0058023Y0082627D01*
X0057086Y0081613D02*
X0057086Y0081613D01*
X0057899Y0084226D02*
X0058731Y0084226D01*
X0058931Y0090620D02*
X0057899Y0090620D01*
X0057899Y0092218D02*
X0059425Y0092218D01*
X0054261Y0093817D02*
X0069150Y0093817D01*
X0069150Y0095415D02*
X0054160Y0095415D01*
X0065575Y0092218D02*
X0069150Y0092218D01*
X0069150Y0090620D02*
X0066068Y0090620D01*
X0066068Y0089021D02*
X0069150Y0089021D01*
X0069150Y0087423D02*
X0066068Y0087423D01*
X0065824Y0085824D02*
X0069150Y0085824D01*
X0069150Y0084226D02*
X0066268Y0084226D01*
X0066268Y0082627D02*
X0069150Y0082627D01*
X0069150Y0081029D02*
X0066268Y0081029D01*
X0066169Y0079430D02*
X0069150Y0079430D01*
X0069150Y0077832D02*
X0065850Y0077832D01*
X0065850Y0076233D02*
X0069150Y0076233D01*
X0069150Y0074634D02*
X0065850Y0074634D01*
X0065850Y0073036D02*
X0069150Y0073036D01*
X0069150Y0071437D02*
X0065850Y0071437D01*
X0065850Y0069839D02*
X0069150Y0069839D01*
X0069150Y0068240D02*
X0065850Y0068240D01*
X0065850Y0066642D02*
X0069150Y0066642D01*
X0069150Y0065043D02*
X0067518Y0065043D01*
X0067518Y0063445D02*
X0068272Y0063445D01*
X0080000Y0039300D02*
X0050000Y0009300D01*
X0047234Y0013891D02*
X0043038Y0013891D01*
X0044624Y0012293D02*
X0045503Y0012293D01*
X0040200Y0012293D02*
X0039800Y0012293D01*
X0039800Y0013891D02*
X0040200Y0013891D01*
X0040200Y0010694D02*
X0039800Y0010694D01*
X0036962Y0013891D02*
X0024800Y0013891D01*
X0024800Y0015490D02*
X0052795Y0015490D01*
X0054394Y0017088D02*
X0024453Y0017088D01*
X0023790Y0018687D02*
X0055993Y0018687D01*
X0057591Y0020285D02*
X0022874Y0020285D01*
X0021276Y0021884D02*
X0059190Y0021884D01*
X0060788Y0023482D02*
X0018441Y0023482D01*
X0015097Y0028278D02*
X0042888Y0028278D01*
X0042888Y0029876D02*
X0015100Y0029876D01*
X0014619Y0031475D02*
X0042888Y0031475D01*
X0043287Y0036270D02*
X0014183Y0036270D01*
X0014927Y0037869D02*
X0042888Y0037869D01*
X0042888Y0039467D02*
X0015100Y0039467D01*
X0014789Y0041066D02*
X0042888Y0041066D01*
X0043621Y0042664D02*
X0013848Y0042664D01*
X0012153Y0034672D02*
X0045400Y0034672D01*
X0045400Y0033073D02*
X0013439Y0033073D01*
X0014435Y0026679D02*
X0042888Y0026679D01*
X0035376Y0012293D02*
X0024776Y0012293D01*
X0024114Y0010694D02*
X0034670Y0010694D01*
X0040198Y0052255D02*
X0044075Y0052255D01*
X0046161Y0061846D02*
X0046161Y0061846D01*
X0045457Y0066642D02*
X0014419Y0066642D01*
X0019585Y0085605D02*
X0019286Y0086329D01*
X0018350Y0087264D01*
X0018350Y0102180D01*
X0030959Y0114789D01*
X0030959Y0111206D01*
X0031479Y0110686D01*
X0031454Y0110671D01*
X0031119Y0110336D01*
X0030882Y0109926D01*
X0030759Y0109468D01*
X0030759Y0108050D01*
X0036890Y0108050D01*
X0036890Y0105069D01*
X0039049Y0105069D01*
X0019585Y0085605D01*
X0019495Y0085824D02*
X0019804Y0085824D01*
X0018350Y0087423D02*
X0021403Y0087423D01*
X0023001Y0089021D02*
X0018350Y0089021D01*
X0018350Y0090620D02*
X0024600Y0090620D01*
X0026198Y0092218D02*
X0018350Y0092218D01*
X0018350Y0093817D02*
X0027797Y0093817D01*
X0029395Y0095415D02*
X0018350Y0095415D01*
X0018350Y0097014D02*
X0030994Y0097014D01*
X0032592Y0098612D02*
X0018350Y0098612D01*
X0018350Y0100211D02*
X0034191Y0100211D01*
X0035789Y0101809D02*
X0018350Y0101809D01*
X0019578Y0103408D02*
X0037388Y0103408D01*
X0036890Y0105069D02*
X0036890Y0108050D01*
X0036890Y0108050D01*
X0030759Y0108050D01*
X0030759Y0106632D01*
X0030882Y0106174D01*
X0031119Y0105764D01*
X0031454Y0105429D01*
X0031864Y0105192D01*
X0032322Y0105069D01*
X0036890Y0105069D01*
X0036890Y0106605D02*
X0036890Y0106605D01*
X0036890Y0108050D02*
X0036890Y0108050D01*
X0038986Y0105006D02*
X0021176Y0105006D01*
X0022775Y0106605D02*
X0030766Y0106605D01*
X0030759Y0108203D02*
X0024373Y0108203D01*
X0025972Y0109802D02*
X0030848Y0109802D01*
X0030959Y0111400D02*
X0027570Y0111400D01*
X0029169Y0112999D02*
X0030959Y0112999D01*
X0030959Y0114597D02*
X0030767Y0114597D01*
X0028024Y0117794D02*
X0014897Y0117794D01*
X0015100Y0119393D02*
X0029623Y0119393D01*
X0030959Y0122590D02*
X0013923Y0122590D01*
X0014820Y0120991D02*
X0031174Y0120991D01*
X0030959Y0124188D02*
X0011525Y0124188D01*
X0013699Y0125787D02*
X0031852Y0125787D01*
X0026426Y0116196D02*
X0014108Y0116196D01*
X0013514Y0112999D02*
X0023229Y0112999D01*
X0024827Y0114597D02*
X0011974Y0114597D01*
X0014650Y0111400D02*
X0021630Y0111400D01*
X0020032Y0109802D02*
X0015100Y0109802D01*
X0015066Y0108203D02*
X0018433Y0108203D01*
X0016835Y0106605D02*
X0014404Y0106605D01*
X0015236Y0105006D02*
X0012919Y0105006D01*
X0013105Y0103408D02*
X0014150Y0103408D01*
X0014727Y0127385D02*
X0061010Y0127385D01*
X0054647Y0133779D02*
X0012513Y0133779D01*
X0011884Y0154560D02*
X0051246Y0154560D01*
X0047672Y0125787D02*
X0041927Y0125787D01*
X0041901Y0081029D02*
X0041068Y0081029D01*
X0041068Y0079430D02*
X0042101Y0079430D01*
X0053839Y0057669D02*
X0053839Y0055265D01*
X0053839Y0055265D01*
X0053839Y0057669D01*
X0053839Y0057669D01*
X0053839Y0057051D02*
X0053839Y0057051D01*
X0053839Y0055452D02*
X0053839Y0055452D01*
X0069041Y0106605D02*
X0069150Y0106605D01*
X0069150Y0108203D02*
X0069041Y0108203D01*
X0069041Y0109802D02*
X0069150Y0109802D01*
X0069150Y0111400D02*
X0069041Y0111400D01*
X0069041Y0112999D02*
X0069150Y0112999D01*
X0069150Y0114597D02*
X0069041Y0114597D01*
X0069031Y0116196D02*
X0069150Y0116196D01*
X0069150Y0117794D02*
X0069041Y0117794D01*
X0080000Y0129300D02*
X0080000Y0039300D01*
X0080000Y0129300D02*
X0090000Y0139300D01*
X0009978Y0186530D02*
X0009800Y0186530D01*
D21*
X0010000Y0179300D02*
X0032750Y0179300D01*
X0039000Y0185550D01*
X0039154Y0185550D01*
X0046654Y0178050D01*
X0053346Y0171800D02*
X0050846Y0169300D01*
X0010000Y0169300D01*
X0031250Y0118050D02*
X0036890Y0118050D01*
X0036890Y0123050D02*
X0050000Y0123050D01*
X0050000Y0113050D02*
X0016250Y0079300D01*
X0010000Y0079300D01*
X0010000Y0069300D02*
X0048750Y0108050D01*
X0063110Y0108050D01*
X0063110Y0113050D02*
X0050000Y0113050D01*
X0051969Y0093552D02*
X0065157Y0093552D01*
X0067047Y0091662D01*
X0067106Y0086849D01*
X0062500Y0082204D01*
X0061171Y0082204D01*
X0060571Y0081603D01*
X0056476Y0081603D01*
X0057776Y0082646D01*
X0057776Y0084576D01*
X0056427Y0085530D01*
X0054970Y0085550D01*
X0054970Y0087519D02*
X0061073Y0087519D01*
X0062096Y0088896D01*
X0062500Y0088896D01*
X0063750Y0081800D02*
X0063750Y0063050D01*
X0063750Y0062646D02*
X0061220Y0062646D01*
X0053839Y0055265D01*
X0053839Y0055461D01*
X0053750Y0055550D01*
X0051250Y0058050D02*
X0053750Y0060550D01*
X0055000Y0060550D01*
X0057500Y0063050D01*
X0057500Y0076800D01*
X0054646Y0079654D01*
X0053425Y0079654D01*
X0049779Y0083301D01*
X0049779Y0085329D01*
X0051969Y0087519D01*
X0054970Y0087519D01*
X0051004Y0091446D02*
X0051969Y0092410D01*
X0051988Y0092430D01*
X0051988Y0093532D01*
X0051969Y0093552D01*
X0051969Y0093473D02*
X0051969Y0092410D01*
X0051004Y0091446D02*
X0045039Y0091446D01*
X0045030Y0091456D01*
X0040059Y0091456D01*
X0037500Y0088896D01*
X0032874Y0084310D01*
X0032854Y0079438D01*
X0033976Y0078335D01*
X0041142Y0078355D01*
X0034055Y0078355D01*
X0032500Y0076800D01*
X0032500Y0067646D01*
X0037500Y0062646D01*
X0038189Y0063335D01*
X0046161Y0063335D01*
X0046250Y0063247D01*
X0046250Y0060550D01*
X0048720Y0058080D01*
X0048720Y0055265D01*
X0051250Y0055294D02*
X0051250Y0058050D01*
X0048720Y0060580D01*
X0048720Y0063335D01*
X0051250Y0063365D02*
X0051280Y0063335D01*
X0051250Y0063365D02*
X0051250Y0065550D01*
X0048750Y0068050D01*
X0045030Y0071770D01*
X0045030Y0079644D01*
X0045030Y0081613D02*
X0043317Y0081613D01*
X0042421Y0080717D01*
X0042421Y0079635D01*
X0041142Y0078355D01*
X0037904Y0082204D02*
X0038632Y0083581D01*
X0045030Y0083581D01*
X0045354Y0083591D01*
X0048041Y0083591D01*
X0049779Y0085329D01*
X0050000Y0077627D02*
X0050000Y0071800D01*
X0053750Y0068050D01*
X0053839Y0067961D01*
X0053839Y0063335D01*
X0051250Y0055294D02*
X0051280Y0055265D01*
X0051250Y0055235D01*
X0051250Y0053050D01*
X0050000Y0051800D01*
X0047500Y0051800D01*
X0047500Y0040146D01*
X0046654Y0039300D01*
X0047500Y0038454D01*
X0047500Y0030550D01*
X0046654Y0029704D01*
X0046654Y0029300D01*
X0053346Y0029300D02*
X0053750Y0029704D01*
X0053750Y0034300D01*
X0053346Y0039300D02*
X0053750Y0039704D01*
X0053750Y0044300D01*
X0052500Y0051800D02*
X0051280Y0053020D01*
X0051280Y0055265D01*
X0052500Y0051800D02*
X0059596Y0051800D01*
X0063750Y0055954D01*
X0071250Y0063454D01*
X0071250Y0119300D01*
X0067500Y0123050D01*
X0063110Y0123050D01*
X0063110Y0128286D01*
X0053346Y0138050D01*
X0053346Y0171800D01*
X0053346Y0178050D01*
X0031250Y0118050D02*
X0016250Y0103050D01*
X0016250Y0084300D01*
X0037500Y0082204D02*
X0037904Y0082204D01*
X0037500Y0055954D02*
X0038189Y0055265D01*
X0046161Y0055265D01*
X0046161Y0053139D01*
X0047500Y0051800D01*
X0054646Y0079654D02*
X0054961Y0079654D01*
X0054970Y0079644D01*
X0054980Y0081603D02*
X0056476Y0081603D01*
X0054980Y0081603D02*
X0054970Y0081613D01*
X0083750Y0053050D02*
X0083750Y0033050D01*
X0060000Y0009300D01*
X0083750Y0053050D02*
X0090000Y0059300D01*
D22*
X0053750Y0068050D03*
X0048750Y0068050D03*
X0053750Y0044300D03*
X0053750Y0034300D03*
X0026250Y0100550D03*
X0016250Y0084300D03*
X0050000Y0123050D03*
M02*
